<svg width="1280" height="826" viewBox="0 0 1280 826" fill="none" xmlns="http://www.w3.org/2000/svg">
<rect width="1280" height="826" fill="white"/>
<path d="M872.14 261.351C872.307 268.044 878.854 269.53 883.614 272.825C890.914 277.879 905.598 277.178 913.994 277.178C926.485 277.178 938.645 273.704 949.342 267.286C952.747 265.243 957.857 263.449 959.806 259.768C960.742 258 958.715 255.306 957.608 253.613C953.747 247.708 945.87 244.228 939.362 242.709C933.186 241.268 926.693 240.477 920.413 241.39C916.902 241.901 913.608 242.169 910.125 242.973C908.985 243.236 906.476 242.587 905.553 243.325C901.615 246.475 893.333 246.897 888.407 248.689C883.941 250.313 878.257 253.863 876.096 258.185" stroke="black" stroke-width="6.25162" stroke-linecap="round" stroke-linejoin="round"/>
<path d="M874.305 259.768C872.865 267.33 874.019 274.675 874.305 282.102C874.456 286.026 874.502 290.124 875.272 293.973C876.372 299.469 879.139 304.386 880.636 309.624C882.422 315.876 891.789 321.607 897.255 324.484C903.393 327.715 910.879 330.2 917.83 330.2C923.152 330.2 928.812 329.809 933.658 327.386C937.946 325.242 941.055 322.803 944.385 319.472C948.078 315.78 949.406 309.94 952.035 305.491C957.379 296.448 959.058 285.044 960.52 274.804C961.286 269.445 959.773 264.303 959.773 258.976" stroke="black" stroke-width="6.25162" stroke-linecap="round" stroke-linejoin="round"/>
<path d="M959.773 270.847C965.033 270.847 968.224 272.508 971.468 276.562C972.871 278.316 973.126 284.322 972.039 286.279C970.242 289.514 968.795 291.423 964.917 291.423C962.153 291.423 957.2 289.74 957.399 289.84" stroke="black" stroke-width="6.25162" stroke-linecap="round" stroke-linejoin="round"/>
<path d="M879.053 308.041C871.652 308.222 865.799 310.717 860.852 315.955C857.155 319.869 859.835 326.528 861.643 330.595C864.881 337.88 874.542 340.028 881.383 342.422C889.494 345.261 899.478 346.027 907.982 346.027C915.318 346.027 922.592 345.351 929.877 345.236C933.792 345.174 937.862 345.606 941.747 345.06C945.596 344.519 949.26 342.943 953.09 342.246C964.487 340.174 969.063 332.389 972.831 322.594C973.318 321.327 972.661 316.181 972.039 314.812C970.823 312.136 968.241 309.844 965.708 308.437C962.028 306.392 956.771 307.25 952.651 307.25" stroke="black" stroke-width="6.25162" stroke-linecap="round" stroke-linejoin="round"/>
<path d="M893.794 126.491C914.815 133.645 938.154 123.37 952.36 107.703C962.439 96.588 967.986 84.6847 967.434 69.3225C967.022 57.8748 960.615 46.2272 955.783 36.0603" stroke="black" stroke-width="5.64062" stroke-linecap="round" stroke-linejoin="round"/>
<path d="M899.231 141.575C913.742 144.022 927.531 152.344 942.261 153.15C961.997 154.229 976.175 138.849 987.529 124.727C995.515 114.794 998.609 102.544 998.513 89.8875C998.436 79.8636 995.007 73.1397 989.774 64.9408C983.784 55.5534 975.491 49.1404 968.559 41.0742" stroke="black" stroke-width="5.64062" stroke-linecap="round" stroke-linejoin="round"/>
<path d="M896.699 128.228C899.715 130.033 905.79 132.883 904.299 137.376C903.391 140.113 901.756 142.689 898.78 142.328C894.616 141.822 893.882 132.937 895.54 130.165" stroke="black" stroke-width="5.64062" stroke-linecap="round" stroke-linejoin="round"/>
<path d="M965.853 43.3993C964.113 36.475 964.046 30.4768 963.312 23.4749" stroke="black" stroke-width="5.64062" stroke-linecap="round" stroke-linejoin="round"/>
<path d="M953.069 31.8074C954.57 33.8669 955.824 36.1247 957.14 38.1867" stroke="black" stroke-width="5.64062" stroke-linecap="round" stroke-linejoin="round"/>
<path d="M953.648 30.8394C956.024 29.8416 960.944 25.8257 963.122 25.9904" stroke="black" stroke-width="5.64062" stroke-linecap="round" stroke-linejoin="round"/>
<path d="M904.642 136.925C912.343 136.942 920.122 135.667 927.6 135.906C932.582 136.066 940.042 135.256 944.201 132.327C954.24 125.259 960.716 120.105 967.034 109.544C972.981 99.6039 978.889 85.4453 975.952 73.7616C974.518 68.0538 971.84 62.9859 969.837 57.6145C968.437 53.8595 964.407 49.1429 964.695 45.3356" stroke="black" stroke-width="5.64062" stroke-linecap="round" stroke-linejoin="round"/>
<path d="M756.959 200C740.229 200 725.878 204.344 713.883 216.339C703.616 226.606 702 240.095 702 253.845C702 275.643 713.627 297.036 728.737 312.145" stroke="black" stroke-width="6.2651" stroke-linecap="round" stroke-linejoin="round"/>
<path d="M756.216 200C771.545 200 782.46 214.513 786.088 228.222C787.868 234.945 790.379 241.57 790.379 248.646C790.379 252.492 791.279 256.648 791.122 260.735C790.94 265.482 788.724 270.224 788.193 275.011C787.802 278.529 786.633 281.405 784.768 284.336C783.262 286.703 781.547 292.714 779.239 294.156C774.806 296.927 772.363 302.514 767.728 305.09C764.149 307.078 758.583 311.593 756.381 315.116C754.9 317.485 751.119 318.645 749.119 320.645C746.92 322.844 744.387 324.717 742.105 326.999" stroke="black" stroke-width="6.2651" stroke-linecap="round" stroke-linejoin="round"/>
<path d="M728.737 312.145C731.785 315.289 736.499 319.5 738.392 323.286" stroke="black" stroke-width="6.2651" stroke-linecap="round" stroke-linejoin="round"/>
<path d="M739.877 326.256C739.089 328.157 737.649 330.099 737.649 332.198" stroke="black" stroke-width="6.2651" stroke-linecap="round" stroke-linejoin="round"/>
<path d="M737.649 332.941C739.376 333.278 741.083 333.683 742.848 333.683" stroke="black" stroke-width="6.2651" stroke-linecap="round" stroke-linejoin="round"/>
<path d="M740.62 327.742C742.118 329.719 743.718 331.647 745.076 333.683" stroke="black" stroke-width="6.2651" stroke-linecap="round" stroke-linejoin="round"/>
<path d="M740.62 327.742C744.391 328.434 747.156 328.622 748.211 332.528C749.338 336.697 751.088 338.784 748.335 342.595C743.668 349.058 739.642 353.765 737.649 361.74C736.425 366.634 738.784 369.529 741.321 373.334C746.345 380.871 736.283 386.934 738.391 394.748C739.898 400.333 744.243 407.22 740.537 412.779C738.657 415.6 732.713 420.622 733.935 424.291" stroke="black" stroke-width="6.2651" stroke-linecap="round" stroke-linejoin="round"/>
<path d="M760.672 206.684C758.774 207.055 755.682 207.01 754.731 208.912" stroke="black" stroke-width="6.2651" stroke-linecap="round" stroke-linejoin="round"/>
<path d="M759.929 207.427C768.752 212.888 775.044 221.554 777.382 231.688C779.149 239.344 778.496 245.436 778.496 252.73" stroke="black" stroke-width="6.2651" stroke-linecap="round" stroke-linejoin="round"/>
<path d="M753.245 210.398C757.259 212.16 761.092 215.935 763.478 219.64C766.593 224.478 770.352 229.783 772.184 235.278C774.137 241.136 777.754 246.423 777.754 252.731" stroke="black" stroke-width="6.2651" stroke-linecap="round" stroke-linejoin="round"/>
<path d="M668.206 489.954C704.27 526.633 741.685 562.545 776.935 600.19" stroke="black" stroke-width="6.75547" stroke-linecap="round" stroke-linejoin="round"/>
<path d="M776.294 598.036C776.36 594.27 775.378 588.861 776.715 585.25" stroke="black" stroke-width="6.75547" stroke-linecap="round" stroke-linejoin="round"/>
<path d="M774.827 599.41C771.087 598.299 766.724 595.722 762.822 596.882" stroke="black" stroke-width="6.75547" stroke-linecap="round" stroke-linejoin="round"/>
<path d="M669.627 490.001C669.231 486.815 669.447 480.985 667.159 478.542" stroke="black" stroke-width="6.75547" stroke-linecap="round" stroke-linejoin="round"/>
<path d="M676.497 497.337C675.812 491.835 676.101 487.744 676.277 482.397" stroke="black" stroke-width="6.75547" stroke-linecap="round" stroke-linejoin="round"/>
<path d="M684.053 505.408C683.694 501.396 684.52 496.379 685.894 492.669" stroke="black" stroke-width="6.75547" stroke-linecap="round" stroke-linejoin="round"/>
<path d="M667.94 476.435C672.656 481.472 678.538 488.94 685.254 490.514" stroke="black" stroke-width="6.75547" stroke-linecap="round" stroke-linejoin="round"/>
<path d="M667.519 489.221C663.452 490.847 661.056 492.564 656.748 492.422" stroke="black" stroke-width="6.75547" stroke-linecap="round" stroke-linejoin="round"/>
<path d="M673.702 495.823C671.444 496.293 665.183 498.421 662.977 497.604" stroke="black" stroke-width="6.75547" stroke-linecap="round" stroke-linejoin="round"/>
<path d="M681.259 503.894C676.741 504.918 672.61 507.161 668.426 504.894" stroke="black" stroke-width="6.75547" stroke-linecap="round" stroke-linejoin="round"/>
<path d="M657.435 493.156C660.939 496.898 664.971 499.733 668.473 503.474" stroke="black" stroke-width="6.75547" stroke-linecap="round" stroke-linejoin="round"/>
<path d="M464.197 519.503C453.857 523.791 455.248 533.226 452.478 542.229C451.672 544.847 452.274 548.415 452.274 551.146C452.274 552.322 452.274 559.62 452.274 556.191" stroke="black" stroke-width="5" stroke-linecap="round" stroke-linejoin="round"/>
<path d="M451.357 557.108C443.072 560.679 434.668 561.725 426.185 564.446C421.998 565.789 416.349 568.115 411.917 568.115" stroke="black" stroke-width="5" stroke-linecap="round" stroke-linejoin="round"/>
<path d="M411 571.783C423.413 579 437.848 583.409 451.357 588.089C466.519 593.342 482.51 597.396 497.93 601.847C504.649 603.787 510.912 606.592 517.395 609.185C525.099 612.266 533.378 613.496 541.038 616.726C546.428 618.999 552.381 621.128 558.159 622.178C561.716 622.825 569.646 627.998 572.427 624.522C573.535 623.136 576.935 622.183 578.49 621.261C583.077 618.543 587.799 617.042 592.554 614.79C600.591 610.983 608.581 606.904 616.452 602.968" stroke="black" stroke-width="5" stroke-linecap="round" stroke-linejoin="round"/>
<path d="M609.968 601.839C603.188 595.823 597.157 587.101 599.626 577.535C601.884 568.786 605.515 561.12 615.196 559.046" stroke="black" stroke-width="4.03883" stroke-linecap="round" stroke-linejoin="round"/>
<path d="M464.618 516C494.523 528.46 526.024 536.197 557.459 543.72C571.684 547.124 585.597 553.126 600.057 555.439C607.137 556.572 615.906 557.708 622.376 560.943" stroke="black" stroke-width="5" stroke-linecap="round" stroke-linejoin="round"/>
<path d="M569.427 627.732C567.058 637.485 565.758 647.944 565.758 658" stroke="black" stroke-width="5" stroke-linecap="round" stroke-linejoin="round"/>
<path d="M604.529 611.223C601.892 620.53 598.607 631.98 601.777 641.49" stroke="black" stroke-width="5" stroke-linecap="round" stroke-linejoin="round"/>
<path d="M420.172 577.287C417.067 590.948 411.877 606.517 416.503 620.395" stroke="black" stroke-width="5" stroke-linecap="round" stroke-linejoin="round"/>
<path d="M450.44 588.293C450.44 595.535 449.898 601.884 453.191 608.471" stroke="black" stroke-width="5" stroke-linecap="round" stroke-linejoin="round"/>
<path d="M455.943 557.108C471.686 562.956 487.767 567.177 503.892 571.783C521.126 576.708 537.95 583.632 555 589.21C561.841 591.448 568.979 593.022 575.688 595.631C578.98 596.911 581.775 598.827 585.318 599.299C590.485 599.988 595.321 602.492 599.943 604.803" stroke="black" stroke-width="5" stroke-linecap="round" stroke-linejoin="round"/>
<path d="M472.949 545.433C488.033 553.788 504.934 556.97 521.051 562.86C537.615 568.914 553.961 575.087 571.089 579.369" stroke="black" stroke-width="5" stroke-linecap="round" stroke-linejoin="round"/>
<path d="M481.624 532.344C512.54 545.67 546.198 552.326 578.847 559.86" stroke="black" stroke-width="5" stroke-linecap="round" stroke-linejoin="round"/>
<path d="M463.197 518C453.054 518 450.041 518.605 445.195 527.605C443.066 531.557 444.669 538.198 441.483 541.385C438.485 544.383 433.763 545.457 429.976 547.046C427.674 548.011 419.268 548.988 418.098 551.036C414.066 558.091 413.653 564.531 415.592 572.287" stroke="black" stroke-width="4.55289" stroke-linecap="round" stroke-linejoin="round"/>
<path d="M621.955 560.777C612.248 558.971 605.345 559.73 601.777 569.541C600.996 571.689 600.025 574.437 599.943 576.573C599.815 579.89 596.683 582.787 595.153 585.541C593.087 589.26 587.825 588.813 584.401 589.669C579.571 590.877 572.427 592.063 568.809 595.682C559.17 605.32 567.841 620.414 567.841 631.401" stroke="black" stroke-width="5" stroke-linecap="round" stroke-linejoin="round"/>
<path d="M449.019 570.28C466.459 577.175 484.405 582.56 502.42 587.707C512.613 590.619 522.665 594.67 532.892 597.287C541.88 599.586 551.575 601.508 559.083 606.968" stroke="black" stroke-width="5" stroke-linecap="round" stroke-linejoin="round"/>
<path d="M1059.34 578.267C1062.41 578.866 1065.3 578.834 1068.41 578.834C1073.6 578.834 1078.75 579.968 1083.97 579.968C1091.3 579.968 1098.58 579.401 1105.85 579.401C1123.9 579.401 1142.33 578.834 1160.52 578.834C1175.75 578.834 1190.95 576.856 1206.15 577.701C1211.34 577.989 1216.79 578.267 1222.14 578.267C1224.82 578.267 1229.24 578.278 1231.65 577.26C1233.29 576.57 1236.1 577.134 1237.86 577.134C1239.61 577.134 1239.03 577.706 1240.16 578.267" stroke="black" stroke-width="5" stroke-linecap="round" stroke-linejoin="round"/>
<path d="M1239.59 577.134C1240.94 584.061 1240.54 590.661 1240.16 597.539C1239.94 601.37 1237.07 608.797 1233.07 610.576C1230.2 611.854 1227.24 613.839 1224.29 615.237C1220.28 617.134 1215.81 617.303 1211.82 619.078C1207.4 621.043 1202.21 621.347 1197.68 622.763C1194.12 623.874 1189.44 624.747 1185.74 624.747C1167.79 624.747 1149.83 625.88 1131.89 625.88C1116.19 625.88 1101.13 623.088 1085.98 619.204C1077.81 617.108 1069.47 611.123 1066.39 603.207C1063.58 595.966 1060.47 588.442 1060.47 580.535" stroke="black" stroke-width="5" stroke-linecap="round" stroke-linejoin="round"/>
<path d="M1031 629.848C1033.87 626.201 1037.22 623.689 1041.74 622.227C1043.78 621.566 1045.6 621.346 1047.72 621.346C1049.21 621.346 1050.54 622.4 1051.97 622.479C1054.35 622.611 1056.5 623.613 1059.06 623.613C1060.68 623.613 1061.52 624.597 1063.18 623.613C1064.55 622.804 1066.2 622.442 1067.53 621.597C1069.01 620.654 1069.74 618.066 1071.81 617.945C1074.54 617.784 1076.53 619.757 1078.9 621.031C1080.64 621.968 1084.49 621.46 1086.55 621.346C1088.93 621.213 1091.37 620.779 1093.92 620.779" stroke="black" stroke-width="5" stroke-linecap="round" stroke-linejoin="round"/>
<path d="M1218.62 616.811C1225.97 615.634 1233.01 614.346 1240.44 615.961C1244.71 616.89 1249.37 619.524 1253.63 617.819C1254.35 617.531 1254.24 616.695 1254.89 616.37C1255.62 616.006 1256.91 615.989 1257.73 615.803C1260.41 615.19 1262.73 616.427 1265.32 616.811C1267.62 617.152 1275.75 619.869 1277 617.378" stroke="black" stroke-width="5" stroke-linecap="round" stroke-linejoin="round"/>
<path d="M1144.93 453C1144.93 455.868 1144.36 458.48 1144.36 461.219C1144.36 463.824 1144.93 466.326 1144.93 468.871C1144.93 474.206 1145.51 479.464 1146.1 484.742C1147.28 495.376 1148.33 506.297 1148.33 517.051C1148.33 527.946 1148.98 538.924 1150 549.674C1150.5 554.905 1150.83 560.322 1151.76 565.482C1152.63 570.222 1154 575.035 1154 579.968" stroke="black" stroke-width="5" stroke-linecap="round" stroke-linejoin="round"/>
<path d="M1143.8 464.336C1148.15 465.136 1151.83 465.47 1156.27 465.47" stroke="black" stroke-width="5" stroke-linecap="round" stroke-linejoin="round"/>
<path d="M1155.13 458.101C1155.13 462.761 1156.27 467.125 1156.27 471.705" stroke="black" stroke-width="5" stroke-linecap="round" stroke-linejoin="round"/>
<path d="M1155.7 456.968C1167.08 461.521 1181.01 460.936 1193.11 460.936" stroke="black" stroke-width="5" stroke-linecap="round" stroke-linejoin="round"/>
<path d="M1158.53 472.839C1163.64 471.342 1168.87 469.744 1173.84 467.863C1178.66 466.039 1183.39 464.046 1188.39 462.73C1191.61 461.883 1194.65 461.298 1197.65 459.802" stroke="black" stroke-width="5" stroke-linecap="round" stroke-linejoin="round"/>
<path d="M1152.87 477.373C1154.39 485.355 1155.13 493.059 1155.13 501.211C1155.13 504.262 1155.3 508.562 1156.14 511.508C1157.43 516.023 1156.34 521.267 1156.96 525.931C1157.61 530.782 1157.97 536.32 1157.97 541.172C1157.97 545.714 1158.53 550.227 1158.53 554.713C1158.53 560.122 1159.67 565.032 1159.67 570.332" stroke="black" stroke-width="5" stroke-linecap="round" stroke-linejoin="round"/>
<path d="M1159.67 570.332C1172.98 570.332 1186.28 571.466 1199.6 571.466C1204.71 571.466 1209.81 570.204 1214.9 569.797C1220.39 569.358 1225.57 569.765 1231.09 569.765" stroke="black" stroke-width="5" stroke-linecap="round" stroke-linejoin="round"/>
<path d="M1234.49 569.198C1227.35 562.064 1221.07 553.809 1214.65 545.959C1208.08 537.928 1200.92 530.163 1194.78 521.869C1187.56 512.125 1178.04 503.955 1170.44 494.504C1167.03 490.267 1164.08 485.188 1160.27 481.372C1158.95 480.056 1156.25 477.901 1155.7 476.24" stroke="black" stroke-width="5" stroke-linecap="round" stroke-linejoin="round"/>
<path d="M789.638 759.457C793.628 757.825 797.407 756.346 801.604 755.272C815.048 751.833 827.809 745.728 840.314 739.841C858.623 731.22 877.564 722.93 894.325 711.462C898.695 708.472 902.846 705.18 907.337 702.373" stroke="black" stroke-width="5" stroke-linecap="round" stroke-linejoin="round"/>
<path d="M789.638 761.811C799.304 756.057 811.435 754.003 822.201 751.153C840.717 746.252 858.657 739.809 876.048 731.765C886.89 726.751 895.927 719.402 906.16 713.555" stroke="black" stroke-width="5" stroke-linecap="round" stroke-linejoin="round"/>
<path d="M790.226 759.457C794.625 757.718 799.437 756.916 804.154 756.515C815.879 755.517 827.495 752.758 838.973 750.27C859.492 745.822 879.968 740.4 900.013 734.152C905.262 732.516 910.033 730.397 914.857 727.809C916.263 727.054 917.512 726.501 919.107 726.501" stroke="black" stroke-width="5" stroke-linecap="round" stroke-linejoin="round"/>
<path d="M793.757 759.457C799.353 758.408 804.82 758.315 810.497 758.28C821.344 758.213 832.047 756.611 842.798 755.338C860.903 753.194 879.208 752.674 897.202 749.649C908.538 747.743 922.004 746.067 932.054 740.037" stroke="black" stroke-width="5" stroke-linecap="round" stroke-linejoin="round"/>
<path d="M894.978 704.727C896.459 695.397 900.445 688.429 906.291 681.056C911.398 674.615 918.026 666.3 927.346 668.371C930.252 669.017 938.006 671.072 936.762 675.302C935.759 678.711 934.717 677.426 937.154 674.583C942.702 668.11 955.104 665.012 963.244 666.279C973.663 667.899 983.326 679.234 982.599 690.015C981.888 700.555 966.867 702.863 958.601 702.962C958.481 702.963 955.827 702.849 957.196 702.112C959.084 701.095 962.698 702.546 964.421 703.223C974.541 707.199 981.574 718.573 979.787 729.444C977.889 740.998 967.245 747.092 956.444 748.603C954.667 748.851 947.569 747.507 950.101 750.434C954.862 755.936 957.778 765.148 956.378 772.404C953.2 788.886 924.592 786.048 912.633 782.866C901.309 779.854 899.724 767.514 899.098 757.496C898.72 751.455 898.417 745.128 900.863 739.448C901.564 737.821 902.567 736.368 903.217 734.74" stroke="black" stroke-width="5" stroke-linecap="round" stroke-linejoin="round"/>
<path d="M911.456 703.55C915.811 697.329 924.507 690.951 932.381 695.573C936.256 697.848 941.303 705.632 937.939 709.958C937.32 710.754 936.55 710.909 937.743 710.743C939.711 710.468 941.864 711.046 943.464 712.214C945.032 713.358 946.8 715.907 946.374 718.001C945.981 719.93 942.935 719.865 941.47 720.028" stroke="black" stroke-width="5" stroke-linecap="round" stroke-linejoin="round"/>
<path d="M938.527 727.678C941.524 729.926 948.284 734.732 942.777 738.141C941.306 739.052 940.83 738.597 941.175 740.462C941.876 744.243 941.766 748.896 939.9 752.33C937.974 755.875 934.465 757.735 930.55 758.15C928.268 758.391 925.466 757.628 923.782 759.523C919.799 764.004 914.453 766.573 909.691 761.811" stroke="black" stroke-width="5" stroke-linecap="round" stroke-linejoin="round"/>
<path d="M790.226 762.988C796.76 762.988 803.027 762.616 809.516 761.811C817.92 760.768 826.497 761.232 834.952 760.765C846.878 760.107 858.805 759.755 870.719 758.869C877.781 758.344 886.156 758.572 892.624 755.338" stroke="black" stroke-width="5" stroke-linecap="round" stroke-linejoin="round"/>
<path d="M742.04 731.052C751.698 727.527 759.966 728.633 769.358 732.227C775.459 734.561 779.89 739.847 783.779 744.985C788.462 751.173 791.064 757.891 791.723 765.687C792.728 777.59 788.367 786.448 783.134 796.743C779.335 804.215 771.756 811.791 764.59 815.953C757.367 820.148 749.476 823.662 740.976 823.241C737.218 823.055 732.518 823.333 729.486 820.836" stroke="black" stroke-width="5" stroke-linecap="round" stroke-linejoin="round"/>
<path d="M786.133 792.736C803.148 791.149 819.721 783.603 830.826 770.241C840.397 758.724 841.1 743.922 835.199 730.548C829.872 718.476 825.11 708.166 814.047 700.109C803.939 692.748 792.613 689.135 780.214 689.954C773.79 690.378 768.15 691.505 761.897 692.599" stroke="black" stroke-width="5" stroke-linecap="round" stroke-linejoin="round"/>
<path d="M505.497 200.967C520.031 205.812 533.88 212.77 548.485 217.264C560.811 221.057 573.867 224.795 586.318 227.907" stroke="black" stroke-width="5" stroke-linecap="round" stroke-linejoin="round"/>
<path d="M504.748 201.715C504.748 193.563 508.461 190.001 515.974 187.497" stroke="black" stroke-width="5" stroke-linecap="round" stroke-linejoin="round"/>
<path d="M517.47 186C525.597 188.955 534.322 189.418 542.498 192.361C551.8 195.709 561.729 196.974 570.977 200.593C581.593 204.747 592.838 206.383 603.53 209.947" stroke="black" stroke-width="5" stroke-linecap="round" stroke-linejoin="round"/>
<path d="M605.775 212.192C595.562 212.192 585.57 218.332 585.57 229.404" stroke="black" stroke-width="5" stroke-linecap="round" stroke-linejoin="round"/>
<path d="M504 203.212C504 217.882 505.207 232.786 506.827 247.364C509.635 272.636 508.49 298.306 508.49 323.695" stroke="black" stroke-width="5" stroke-linecap="round" stroke-linejoin="round"/>
<path d="M509.238 324.444C517.694 329.556 526.692 331.771 536.137 334.505C543.699 336.694 551.006 339.723 558.629 341.656C571.522 344.924 583.343 351.315 596.046 355.126" stroke="black" stroke-width="5" stroke-linecap="round" stroke-linejoin="round"/>
<path d="M587.06 231.152C589.222 242.505 587.652 254.803 587.808 266.325C588.031 282.824 588.906 300.033 590.427 316.464C591.071 323.414 591.708 330.367 592.88 337.251C593.251 339.43 592.327 342.558 593.42 344.527C594.262 346.041 593.495 347.927 593.961 349.557C594.596 351.779 595.291 354.557 595.291 356.874" stroke="black" stroke-width="5" stroke-linecap="round" stroke-linejoin="round"/>
<path d="M608.02 213.689C608.02 219.079 609.517 224.031 609.517 229.238C609.517 234.332 609.576 240.756 610.307 245.868C611.639 255.197 612.51 265.589 612.51 275.053C612.51 298.201 617 320.778 617 343.901" stroke="black" stroke-width="5" stroke-linecap="round" stroke-linejoin="round"/>
<path d="M615.503 344.649C609.326 344.649 607.403 345.266 603.156 349.513C600.674 351.994 597.543 355.113 597.543 358.868" stroke="black" stroke-width="5" stroke-linecap="round" stroke-linejoin="round"/>
<path d="M521.212 240.629C523.306 242.265 524.382 245.946 527.199 244.537C529.82 243.227 530.501 244.264 532.271 246.034C533.791 247.554 536.731 245.561 538.258 246.782C540.253 248.378 541.204 249.672 544.244 248.695C548.887 247.202 547.247 249.093 551.146 250.94C552.535 251.598 554.866 250.607 556.218 250.191C557.459 249.809 557.719 250.994 558.629 251.854C561.14 254.225 562.819 252.603 565.946 252.603C569.114 252.603 568.649 255.19 572.099 252.603" stroke="black" stroke-width="5" stroke-linecap="round" stroke-linejoin="round"/>
<path d="M527.199 291.517C528.158 292.215 529.924 294.029 531.315 293.72C531.925 293.584 532.521 292.847 533.185 293.18C534.867 294.02 534.959 296.185 537.301 294.884C538.997 293.942 539.616 295.372 541.043 296.007C543.343 297.029 545.84 296.936 548.152 295.84C550.817 294.578 555.964 295.481 557.881 297.878C558.798 299.024 568.031 298.904 568.358 298.252" stroke="black" stroke-width="5" stroke-linecap="round" stroke-linejoin="round"/>
<path d="M534.682 270.563C538.121 269.961 539.765 271.685 542.623 273.224C545.434 274.737 548.189 274.979 549.649 272.06" stroke="black" stroke-width="5" stroke-linecap="round" stroke-linejoin="round"/>
<path d="M1065.89 299.971C1068.8 297.816 1072.09 296.75 1075.46 295.505C1080.78 293.54 1086.04 291.431 1091.4 289.558C1097.71 287.355 1104.07 285.242 1110.3 282.847C1117.77 279.981 1124.92 276.403 1132.49 273.791C1144.37 269.686 1156.63 266.802 1168.39 262.317C1172.59 260.714 1177.29 258.723 1180.92 256" stroke="black" stroke-width="5" stroke-linecap="round" stroke-linejoin="round"/>
<path d="M1067.66 303.081C1091.53 303.081 1115.37 304.548 1139.22 304.413C1146.48 304.372 1153.69 304.324 1160.94 304.068C1170.1 303.744 1179.2 304.645 1188.38 303.771C1194.78 303.161 1201.08 301.622 1207.48 300.86C1212.09 300.31 1216.79 299.911 1221.34 299.083" stroke="black" stroke-width="5" stroke-linecap="round" stroke-linejoin="round"/>
<path d="M1065.44 302.636C1066.93 314.511 1066.8 326.234 1065.89 338.144C1065.68 340.852 1065 343.437 1065 346.164C1065 348.253 1065.44 350.273 1065.44 352.357C1065.44 355.561 1066.25 360.647 1067.66 363.486" stroke="black" stroke-width="5" stroke-linecap="round" stroke-linejoin="round"/>
<path d="M1072.11 363.042C1082.58 363.042 1092.97 364.433 1103.42 364.793C1111.28 365.065 1119.04 364.948 1126.89 365.706C1137.37 366.72 1147.84 367.039 1158.37 367.039C1166.47 367.039 1174.66 366.762 1182.75 366.373C1193.16 365.872 1203.57 366.411 1213.96 365.706C1218.32 365.411 1222.71 364.021 1227.02 363.93C1230.01 363.866 1233.01 363.93 1236 363.93" stroke="black" stroke-width="5" stroke-linecap="round" stroke-linejoin="round"/>
<path d="M1229.78 299.971C1232.51 313.316 1232.11 327.105 1233.24 340.636C1233.83 347.755 1233.78 355 1233.78 362.153" stroke="black" stroke-width="5" stroke-linecap="round" stroke-linejoin="round"/>
<path d="M1183.15 257.332C1190.65 258.222 1196.36 260.651 1203.03 264.217C1209.55 267.697 1216.88 272.463 1221.1 278.652C1223.69 282.463 1225.96 286.288 1226.77 290.841C1227.34 294.02 1227.95 298.549 1229.78 301.304" stroke="black" stroke-width="5" stroke-linecap="round" stroke-linejoin="round"/>
<path d="M1065.89 326.621C1078.26 326.621 1090.59 327.509 1102.95 327.509C1110.51 327.509 1118.07 327.509 1125.63 327.509C1134.94 327.509 1144.42 327.958 1153.73 327.41C1172.28 326.319 1190.8 324.774 1209.35 323.931C1214.16 323.713 1219.46 323.794 1224.21 322.845C1226.86 322.314 1230.01 322.951 1232.45 321.735" stroke="black" stroke-width="5" stroke-linecap="round" stroke-linejoin="round"/>
<path d="M1065.89 339.057C1069.44 338.396 1073.3 338.908 1076.89 339.156C1081.05 339.443 1085.33 339.18 1089.45 339.723C1092.97 340.187 1096.55 339.829 1100.09 339.97C1104.35 340.14 1108.36 340.455 1112.62 340.044C1120.58 339.277 1128.72 339.96 1136.71 339.477C1145.36 338.952 1154.03 339.057 1162.71 339.057C1177.53 339.057 1192.45 337.881 1207.11 335.726C1212.95 334.867 1218.98 335.155 1224.8 334.073C1227.51 333.569 1230.13 332.395 1232.89 332.395" stroke="black" stroke-width="5" stroke-linecap="round" stroke-linejoin="round"/>
<path d="M1227.56 298.639C1224.15 297.974 1221.99 299.527 1218.68 299.527" stroke="black" stroke-width="5" stroke-linecap="round" stroke-linejoin="round"/>
<path d="M1065.44 300.86C1065.62 301.749 1065.76 302.63 1065.89 303.525" stroke="black" stroke-width="5" stroke-linecap="round" stroke-linejoin="round"/>
<path d="M1067.66 363.042C1069 363.042 1070.33 363.042 1071.66 363.042" stroke="black" stroke-width="5" stroke-linecap="round" stroke-linejoin="round"/>
<path d="M1183.59 256.888C1182.54 256.653 1181.53 256 1180.48 256" stroke="black" stroke-width="5" stroke-linecap="round" stroke-linejoin="round"/>
<path d="M1067.22 334.616C1070.11 332.744 1072.42 331.898 1075.91 332.296C1077.92 332.526 1077.54 333.33 1076.55 334.813C1076.5 334.88 1074.82 336.991 1074.82 336.121C1074.82 334.587 1076.73 332.058 1077.88 331.161C1078.39 330.765 1079.96 329.649 1080.45 330.618C1081.33 332.384 1077.91 334.399 1076.82 334.986C1076.01 335.425 1073.76 336.759 1074.6 334.813C1075.67 332.323 1079.04 330.974 1081.53 330.717C1082.47 330.621 1087.54 329.973 1087.65 331.605C1087.77 333.2 1086.39 335.544 1085.21 336.54C1083.35 338.11 1081.47 335.911 1083.75 334.171C1085.13 333.125 1089.19 331.082 1090.91 332.148C1093.03 333.467 1086.96 336.828 1086.29 337.009C1085.92 337.111 1080.26 338.151 1081.73 336.195C1084.36 332.684 1089.83 332.27 1093.77 331.531C1096.13 331.089 1097.94 330.806 1098.48 333.53C1098.85 335.36 1097.44 337.104 1095.75 337.626C1094.35 338.054 1095.98 335.256 1096.39 334.961C1098.55 333.379 1106.08 329.708 1108.6 331.63C1113.19 335.123 1098.87 338.369 1101.27 335.306C1103.96 331.875 1109.59 329.975 1113.81 330.569C1117.84 331.138 1120.02 333.661 1116.97 336.836C1116.12 337.711 1113.29 339.295 1114.94 336.836C1117.59 332.904 1124.21 331.874 1128.49 332.296C1137.51 333.186 1124.71 338.448 1125.5 336.293C1126.37 333.957 1131 332.875 1133.05 332.592C1134.28 332.424 1140.88 331.969 1138.21 334.64C1137.57 335.282 1132.91 338.877 1132.17 337.182C1131.11 334.789 1138.24 332.351 1139.49 332.025C1142.21 331.318 1148.53 330.187 1150.43 333.283C1151.45 334.957 1149.39 335.475 1148.16 335.504C1145.8 335.559 1147.65 333.588 1148.8 332.839C1153.25 329.927 1160.65 329.495 1165.55 331.284C1169.09 332.575 1163.16 333.977 1161.92 334.369C1159.83 335.037 1162.26 333.185 1163.01 332.938C1167.46 331.471 1172.79 331.102 1177.42 331.704C1179.97 332.036 1181.49 332.779 1178.65 334.196C1178.27 334.389 1173.47 336.385 1173.47 336.096C1173.47 333.332 1181.89 331.834 1183.49 331.506C1183.93 331.417 1192.5 330.113 1191.49 332.395C1191.21 333.026 1187.92 333.619 1187.69 332.987C1187.33 332.018 1189.49 330.535 1189.98 330.199C1192.38 328.547 1195.1 328.015 1197.98 328.077C1199.91 328.118 1202.52 328.264 1203.65 330.125C1204.3 331.202 1203.73 331.644 1202.69 331.852C1198.72 332.645 1203.46 331.003 1204.79 330.643C1208.1 329.743 1215.42 327.951 1218.38 330.519C1219.59 331.566 1213.87 332.321 1213.45 332.296C1213.04 332.272 1209.42 332.25 1209.45 331.408C1209.49 330.335 1212.29 329.365 1212.98 329.088C1215.33 328.139 1219.46 327.063 1221.71 328.866C1222.76 329.704 1222.62 331.413 1221.24 331.852C1220.22 332.18 1220.35 330.942 1220.75 330.421C1222.52 328.143 1226.14 326.624 1228.94 326.251C1231.09 325.965 1225.45 328.872 1223.46 329.73C1222.29 330.237 1218.19 331.86 1218.75 329.236C1219.7 324.816 1228.1 324.577 1223.02 328.496C1219.49 331.22 1214.75 333.066 1210.24 332.74C1207.65 332.553 1209.38 330.095 1210.51 329.261C1211.8 328.306 1215.55 325.704 1214.83 327.139C1213.21 330.384 1207.4 332.979 1204.12 333.727C1196.14 335.543 1207.38 323.692 1210.49 326.177C1212.53 327.816 1199.39 337.904 1198.76 331.062C1198.59 329.111 1200.94 327.525 1202.39 326.695C1202.73 326.499 1203.32 326.258 1203.06 326.917C1202.13 329.234 1199.01 331.412 1197.11 332.79C1193.82 335.176 1187.6 337.755 1183.44 335.948C1181.14 334.946 1185.54 330.987 1186.4 330.47C1188.87 328.992 1186 331.321 1185.24 331.753C1182.62 333.258 1177.49 335.839 1174.31 334.961C1173.91 334.851 1177.18 332.668 1177.72 332.493C1178.4 332.274 1177.82 333.228 1177.72 333.382C1176.61 335.03 1174.42 335.989 1172.68 336.787C1169.72 338.146 1164.28 339.211 1161.31 337.231C1159.57 336.071 1161.4 331.971 1162.81 331.062C1164.46 330.002 1164.43 331.647 1163.31 332.592C1160.44 335 1155.38 337.775 1151.49 336.59C1150.29 336.225 1149.93 334.812 1150.48 333.727C1150.85 332.98 1153.39 331.983 1153.29 332.222C1151.77 335.647 1139.22 336.298 1140.95 332.839C1141.09 332.569 1142.65 330.759 1143.07 331.605C1144.29 334.047 1136.4 335.738 1135.25 335.627C1134.09 335.516 1130.99 334.585 1132.36 332.839C1132.79 332.291 1135.93 331.307 1135.52 331.951C1133.77 334.722 1128.68 335.164 1125.87 334.813C1124.5 334.642 1122.86 334.524 1121.58 333.949C1121.11 333.739 1121.23 333.036 1121.75 333.036C1123.7 333.036 1118.5 335.308 1116.62 335.849C1115.8 336.086 1111.56 337.698 1111.22 336.17C1111.1 335.627 1111.79 334.87 1111.76 334.887C1108.89 336.479 1104.42 336.536 1101.27 336.293C1100.48 336.232 1094.84 335.294 1095.3 333.727C1095.4 333.401 1095.81 333.465 1095.35 333.826C1093.54 335.256 1090.63 335.676 1088.42 335.874C1087.29 335.975 1081.03 336.503 1081.53 333.974C1081.69 333.177 1083.56 331.278 1083.16 332.864C1082.56 335.255 1075.81 335.85 1074.87 333.727C1074.45 332.78 1076.44 331.26 1077.24 331.26C1077.87 331.26 1075.31 333.962 1074.6 334.147C1071.32 335.001 1070.12 332.323 1069.89 329.384C1069.87 329.128 1069.01 329.548 1069.19 329.73C1069.68 330.219 1072.99 329.73 1073.66 329.73C1075.16 329.73 1076.87 330.358 1078.32 330.149C1079.38 329.999 1079.51 329.661 1080.55 330.075C1081.54 330.473 1083.42 330.262 1084.44 330.075C1086 329.793 1087.2 330.295 1088.74 330.149C1093.46 329.699 1098.52 328.743 1103.3 329.631C1105.76 330.09 1108.45 329.816 1110.95 330.149C1114.64 330.643 1118.66 330.618 1122.39 330.618C1126.29 330.618 1130.19 330.618 1134.09 330.618C1138.39 330.618 1143.13 331.159 1147.37 330.593C1151.23 330.078 1155.06 329.349 1158.96 328.94C1162.35 328.586 1165.2 328.841 1168.54 328.841C1169.93 328.841 1171.35 328.755 1172.73 328.866C1175.11 329.057 1177.42 328.756 1179.79 328.94C1186.85 329.49 1193.87 327.953 1200.96 327.953C1204.79 327.953 1208.44 328.869 1212.24 328.422C1215.23 328.07 1218.14 327.802 1221.1 327.164C1222.21 326.922 1224.45 326.397 1225.56 326.645C1226.59 326.874 1226.95 329.103 1227.46 329.829C1229.16 332.258 1220.73 333.172 1219.81 333.382C1216.53 334.133 1212.26 334.075 1208.91 333.703C1206.26 333.408 1203.07 333.705 1200.49 333.061C1194.24 331.497 1187.21 332.941 1180.92 333.727C1173.57 334.647 1165.93 335.948 1158.52 335.948C1155.14 335.948 1151.6 335.971 1148.25 336.417C1144.6 336.904 1140.68 337.725 1137 337.725C1129.91 337.725 1123.17 337.28 1116.1 337.28C1105.84 337.28 1095.63 336.836 1085.36 336.836C1083.03 336.836 1079.43 337.56 1077.34 336.195C1076.86 335.885 1075.17 335.165 1076.3 334.616C1079.76 332.933 1084.72 333.283 1088.44 333.283C1094.32 333.283 1100.27 333.596 1106.11 332.938C1110.41 332.453 1114.34 333.334 1118.57 333.727C1125.54 334.375 1132.53 334.171 1139.52 334.171C1147.32 334.171 1155.1 334.171 1162.91 334.171C1170.48 334.171 1178.15 334.018 1185.71 333.703C1192.13 333.435 1198.51 332.155 1204.91 331.605C1208.36 331.308 1211.91 331.178 1215.37 331.062C1216.99 331.008 1221.72 330.596 1220.16 330.149C1215.16 328.72 1209.35 328.127 1204.22 329.286C1199.14 330.435 1194.82 332.049 1189.54 331.926C1182.61 331.765 1175.72 331.317 1168.81 330.865C1164.6 330.589 1159.35 329.836 1155.16 330.717C1151.23 331.545 1146.96 331.951 1142.92 331.951C1136.65 331.951 1130.28 332.054 1124.02 332.493C1114.3 333.176 1104.52 332.269 1094.81 331.605C1090.18 331.288 1085.46 331.506 1080.82 331.506C1079.02 331.506 1077.23 331.153 1075.44 331.038C1074.14 330.954 1070.49 330.631 1071.66 330.075C1075.02 328.483 1080.46 328.961 1084.17 329.508C1089.34 330.268 1094.77 330.15 1099.99 330.519C1106.7 330.995 1113.57 331.237 1120.3 331.482C1125.83 331.683 1131.15 330.751 1136.66 330.618C1140.55 330.524 1144.29 329.73 1148.21 329.73C1153.21 329.73 1158.18 330.174 1163.21 330.174C1174.72 330.174 1186.33 329.997 1197.65 327.731C1204.11 326.44 1210.76 326.515 1217.25 325.387C1219.42 325.009 1221.8 325.142 1223.98 324.869C1225.12 324.726 1227.47 323.968 1228.35 324.943C1229.26 325.95 1229.74 330.889 1228.65 331.087C1225.31 331.693 1222.11 332.898 1218.78 333.382C1214.93 333.94 1211.35 333.283 1207.52 333.283C1201.72 333.283 1196.18 333.738 1190.45 334.196C1184.31 334.687 1178.04 335.504 1171.87 335.504C1168.47 335.504 1165.07 335.561 1161.73 335.504C1157.95 335.439 1154.12 335.373 1150.38 335.849C1140.47 337.107 1130.57 336.392 1120.62 336.392C1112.13 336.392 1103.6 335.209 1095.2 335.973C1091.36 336.322 1087.55 337.381 1083.75 338.07C1080.51 338.659 1077.93 338.183 1074.75 337.527C1071.6 336.878 1067.82 338.249 1068.9 333.925C1069.28 332.419 1069.55 331.824 1069 330.174" stroke="black" stroke-width="5" stroke-linecap="round" stroke-linejoin="round"/>
<path d="M220.465 637.18C212.315 640.761 203.944 642.215 194.962 642.297C189.491 642.346 184.036 641.759 178.579 641.468C173.648 641.204 168.286 640.803 163.489 639.65" stroke="black" stroke-width="5" stroke-linecap="round" stroke-linejoin="round"/>
<path d="M220.439 634.249C217.75 626.951 214.739 619.896 213.002 612.241C211.634 606.214 209.62 599.998 207.447 594.232C204.888 587.444 198.043 582.121 191.005 580.955C188.596 580.556 186.056 580.07 183.631 579.882C181.998 579.754 180.08 579.109 178.748 580.251C176.947 581.797 175.409 583.757 173.692 585.418C169.891 589.095 168.261 595.68 167.208 600.694C165.573 608.481 163.829 616.135 161.899 623.868C161.212 626.618 160.467 629.666 160.493 632.512C160.507 633.988 159.354 638.926 160.884 639.674" stroke="black" stroke-width="5" stroke-linecap="round" stroke-linejoin="round"/>
<path d="M160.52 635.443C158.07 635.073 154.946 635.048 152.672 634.03C149.586 632.649 146.395 631.457 143.282 630.134C140.285 628.861 137.262 627.736 134.362 626.234C133.331 625.7 130.49 625.084 129.872 623.995C126.367 617.818 125.5 612.18 129.055 605.69C132.558 599.295 136.122 592.068 141.188 586.762C143.286 584.565 145.569 582.519 148.303 581.16C152.739 578.956 157.484 579.154 162.298 579.984C166.08 580.637 168.154 584.563 172.11 584.528" stroke="black" stroke-width="5" stroke-linecap="round" stroke-linejoin="round"/>
<path d="M223.727 632.609C231.819 632.536 239.383 628.985 246.463 625.563C250.081 623.815 253.337 622.715 254.704 618.486C255.765 615.205 255.008 612.171 254.527 608.879C254.035 605.516 253.431 601.027 251.732 598.012C249.547 594.135 246.434 591.159 242.549 589.047C241.631 588.548 240.791 587.478 239.852 586.864C238.143 585.747 236.579 584.84 234.688 584.124C232.812 583.414 230.348 583.311 228.664 582.261C227.936 581.807 226.612 581.321 225.794 581.056C222.807 580.091 219.646 581.394 216.922 582.512C214.491 583.51 211.552 584.11 209.662 586.052C208.034 587.724 207.89 591.164 206.1 592.381" stroke="black" stroke-width="5" stroke-linecap="round" stroke-linejoin="round"/>
<path d="M256.806 610.808C258.417 609.466 259.238 607.419 260.143 605.567C260.777 604.269 261.506 602.792 262.078 601.46C262.95 599.429 264.698 596.361 264.798 594.125C264.973 590.237 265.259 585.616 263.548 581.94C262.063 578.75 256.976 577.159 253.958 575.983C251.67 575.092 249.741 573.669 247.362 572.949C244.746 572.157 241.981 572.259 239.457 573.256C237.502 574.028 236.212 577.498 234.769 579.016C233.778 580.058 232.935 582.771 231.804 583.349" stroke="black" stroke-width="5" stroke-linecap="round" stroke-linejoin="round"/>
<path d="M126.457 614.58C116.076 612.454 110.526 602.918 107.376 593.582C105.957 589.375 105.091 584.904 105.557 580.461C105.886 577.315 107.59 572.706 110.429 570.936C113.734 568.874 116.386 565.219 120.528 567.243C122.388 568.153 123.351 569.36 124.938 570.605C127.17 572.359 130.089 572.992 132.125 574.992C133.859 576.695 135.371 578.919 137.563 580.099C139.137 580.946 140.826 581.564 142.13 582.845" stroke="black" stroke-width="5" stroke-linecap="round" stroke-linejoin="round"/>
<path d="M260.054 577.841C261.027 571.25 259.148 565.726 257.463 559.462C256.762 556.856 255.323 554.623 253.636 552.494C252.284 550.788 251.61 548.89 250.007 547.316C248.401 545.739 248.084 545.743 246.497 547.42C245.154 548.84 244.273 550.438 243.337 552.099C239.92 558.16 242.346 564.631 242.406 571.161" stroke="black" stroke-width="5" stroke-linecap="round" stroke-linejoin="round"/>
<path d="M114.625 566.808C114.591 563.017 115.424 557.925 112.87 554.791C111.729 553.391 108.024 550.793 106.848 553.199C105.472 556.016 104.38 559.005 104.233 562.161C104.022 566.715 104.344 571.202 104.591 575.729C104.69 577.546 104.235 579.642 105.31 581.224" stroke="black" stroke-width="5" stroke-linecap="round" stroke-linejoin="round"/>
<path d="M152 219.953C152 225.98 152.324 232.026 152.591 238.047C152.89 244.777 152.79 251.491 153.453 258.201C154.074 264.487 153.814 270.84 154.146 277.14C154.332 280.681 154.737 284.236 154.737 287.766" stroke="black" stroke-width="5" stroke-linecap="round" stroke-linejoin="round"/>
<path d="M152.216 216.649C155.355 219.788 159.554 221.631 163.231 224.083C169.265 228.105 175.628 231.559 181.342 236.044C185.035 238.942 189.026 241.442 192.728 244.322C194.362 245.592 196.175 246.651 197.83 247.903C198.485 248.399 199.288 249.156 199.959 249.491" stroke="black" stroke-width="5" stroke-linecap="round" stroke-linejoin="round"/>
<path d="M200.263 250.099C201.361 247.333 203.017 245.42 204.994 243.24C207.212 240.794 209.159 238.104 211.278 235.571C214.883 231.262 219.035 227.522 222.462 223.035C224.024 220.991 225.592 218.919 226.787 216.649C227.15 215.958 228.223 214.225 228.848 213.912" stroke="black" stroke-width="5" stroke-linecap="round" stroke-linejoin="round"/>
<path d="M229.76 214.216C232.885 218.302 237.129 220.802 240.775 224.319C243.703 227.143 247.187 229.316 250.456 231.719C252.659 233.339 254.82 235.078 257.112 236.567C258.613 237.543 260.097 239.383 261.386 240.672C262.655 241.942 263.749 243.34 265.018 244.609C266.568 246.159 268.246 247.599 270.205 248.579" stroke="black" stroke-width="5" stroke-linecap="round" stroke-linejoin="round"/>
<path d="M271.117 248.883C273.453 245.706 274.849 241.918 277.182 238.73C279.959 234.935 282.927 231.373 286.018 227.833C287.812 225.777 289.431 223.584 291.187 221.498C292.437 220.013 294.034 218.37 294.971 216.666C295.799 215.162 296.961 213.612 298.181 212.392" stroke="black" stroke-width="5" stroke-linecap="round" stroke-linejoin="round"/>
<path d="M300.702 212C300.702 217.016 300.806 221.907 301.242 226.901C301.608 231.083 302.163 235.248 302.526 239.436C303.031 245.259 302.83 251.133 302.83 256.972C302.83 264.356 302.922 271.666 303.574 279.019C303.753 281.046 303.827 283.094 304.199 285.101C304.324 285.778 304.655 286.43 304.655 287.111" stroke="black" stroke-width="5" stroke-linecap="round" stroke-linejoin="round"/>
<path d="M154.474 289.982C160.954 293.46 168.24 294.732 175.389 296.199C183.579 297.881 191.76 298.799 200.02 300.018C207.402 301.107 214.688 301.646 222.135 301.994C229.337 302.331 236.709 302.735 243.877 301.91C251.092 301.078 258.345 300.812 265.552 299.865C271.194 299.125 276.383 296.643 281.957 295.524C285.282 294.856 288.66 294.469 292.009 293.936C294.588 293.525 297.427 293.242 299.493 291.486C301.253 289.99 302.589 287.647 305 287.246" stroke="black" stroke-width="5" stroke-linecap="round" stroke-linejoin="round"/>
<path d="M155.649 254.661C160.486 256.513 165.635 257.233 170.567 258.766C176.386 260.575 182.387 261.446 188.39 262.398C206.482 265.268 224.796 266.884 243.127 266.825C250.303 266.801 257.956 266.866 265.055 265.727C270.646 264.829 276.063 263.086 281.51 261.587C283.996 260.904 286.495 260.377 289.011 259.83C290.512 259.504 291.715 258.638 293.099 258.023C295.192 257.093 297.296 256.987 299.181 255.573" stroke="black" stroke-width="5" stroke-linecap="round" stroke-linejoin="round"/>
<path d="M179.889 232.766C184.747 229.432 189.02 225.294 194.181 222.427" stroke="black" stroke-width="5" stroke-linecap="round" stroke-linejoin="round"/>
<path d="M194.485 222.427C197.805 224.357 201.331 225.585 204.588 227.664C206.652 228.981 208.611 231.697 210.906 232.462" stroke="black" stroke-width="5" stroke-linecap="round" stroke-linejoin="round"/>
<path d="M253.263 233.287C255.387 228.039 260.858 224.389 264.515 220.211" stroke="black" stroke-width="5" stroke-linecap="round" stroke-linejoin="round"/>
<path d="M268.38 222.427C271.277 224.151 274.178 226.119 276.827 228.205C278.381 229.428 280.043 231.299 281.76 232.158" stroke="black" stroke-width="5" stroke-linecap="round" stroke-linejoin="round"/>
<path d="M232.193 232.462C230.657 234.981 228.78 237.392 226.854 239.625C225.189 241.557 223.28 244.013 221.246 245.538" stroke="black" stroke-width="5" stroke-linecap="round" stroke-linejoin="round"/>
<path d="M220.637 245.538C222.521 247.865 224.431 250.225 226.415 252.465C227.276 253.436 228.49 255.15 229.76 255.573" stroke="black" stroke-width="5" stroke-linecap="round" stroke-linejoin="round"/>
<path d="M233.714 231.854C235.366 234.672 237.493 237.076 239.424 239.693C239.982 240.449 240.798 242.086 241.62 242.497" stroke="black" stroke-width="5" stroke-linecap="round" stroke-linejoin="round"/>
<path d="M242.228 245.234C240.78 247.573 239.133 249.782 236.906 251.434C235.368 252.576 233.884 253.273 232.497 254.661" stroke="black" stroke-width="5" stroke-linecap="round" stroke-linejoin="round"/>
<path d="M210.602 250.099C209.581 251.678 208.901 253.625 207.561 254.965" stroke="black" stroke-width="5" stroke-linecap="round" stroke-linejoin="round"/>
<path d="M207.561 255.269C208.954 257.091 210.992 259.721 213.035 260.743" stroke="black" stroke-width="5" stroke-linecap="round" stroke-linejoin="round"/>
<path d="M212.731 250.404C213.36 251.637 214.166 252.593 214.86 253.749" stroke="black" stroke-width="5" stroke-linecap="round" stroke-linejoin="round"/>
<path d="M216.38 256.485C215.726 258.013 214.465 259.19 213.947 260.743" stroke="black" stroke-width="5" stroke-linecap="round" stroke-linejoin="round"/>
<path d="M252.567 247.667C251.062 249.628 249.796 251.767 248.31 253.748" stroke="black" stroke-width="5" stroke-linecap="round" stroke-linejoin="round"/>
<path d="M248.31 255.573C249.948 257.211 251.431 258.335 253.175 259.83" stroke="black" stroke-width="5" stroke-linecap="round" stroke-linejoin="round"/>
<path d="M253.479 247.971C254.38 249.507 255.548 251.757 257.433 252.228" stroke="black" stroke-width="5" stroke-linecap="round" stroke-linejoin="round"/>
<path d="M258.345 253.444C256.586 255.617 255.018 257.827 253.479 260.135" stroke="black" stroke-width="5" stroke-linecap="round" stroke-linejoin="round"/>
<path d="M211.515 250.404C212.627 251.872 213.573 253.376 214.691 254.813C215.267 255.554 215.783 256.793 216.684 257.094" stroke="black" stroke-width="5" stroke-linecap="round" stroke-linejoin="round"/>
<path d="M241.62 242.193C242.038 243.264 242.236 244.03 242.836 244.93" stroke="black" stroke-width="5" stroke-linecap="round" stroke-linejoin="round"/>
<path d="M233.409 254.357C232.286 254.822 231.208 255.496 230.064 255.877" stroke="black" stroke-width="5" stroke-linecap="round" stroke-linejoin="round"/>
<path d="M264.731 220.298C266.209 221.178 268.425 221.864 269.596 223.035" stroke="black" stroke-width="5" stroke-linecap="round" stroke-linejoin="round"/>
<path d="M32.1752 405.999C33.0707 406.869 34.1134 407.488 35.0655 408.286C37.9254 410.683 40.3394 413.516 42.958 416.159C47.7362 420.982 52.9396 425.294 57.4876 430.348C62.1544 435.533 67.1699 440.269 72.387 444.887C76.0767 448.153 80.0137 451.118 83.6661 454.434C86.8607 457.334 89.7793 460.636 92.7848 463.728C93.9397 464.916 95.0181 466.15 96.2104 467.309C96.9786 468.056 97.7225 469.072 98.7407 469.411" stroke="black" stroke-width="5" stroke-linecap="round" stroke-linejoin="round"/>
<path d="M99.0911 469.761C101.895 468.055 104.069 465.525 106.526 463.377C108.779 461.408 111.066 459.3 113.105 457.11C119.009 450.769 125.262 444.661 130.719 437.919C134.668 433.042 138.413 427.932 142.534 423.204C146.035 419.188 149.675 415.28 153.005 411.118C154.376 409.404 155.684 407.645 156.898 405.823" stroke="black" stroke-width="5" stroke-linecap="round" stroke-linejoin="round"/>
<path d="M32.1752 405.648C48.8904 405.648 65.5898 406.879 82.2939 407.575C85.5286 407.71 88.714 407.781 91.9479 407.575C95.7931 407.33 99.6506 407.337 103.49 407.05C109.432 406.605 115.402 406.743 121.348 406.437C130.204 405.98 139.091 406.195 147.945 405.687C151.223 405.499 154.489 405.298 157.774 405.298" stroke="black" stroke-width="5" stroke-linecap="round" stroke-linejoin="round"/>
<path d="M99.6166 469.937C96.0271 465.001 92.122 460.223 89.1841 454.881C87.6432 452.08 85.9431 449.339 84.3766 446.541C83.278 444.58 82.1518 442.645 81.0483 440.683C79.7224 438.326 78.0308 436.219 76.669 433.89C74.6088 430.366 72.312 426.903 69.9735 423.555C69.0034 422.166 68.1546 420.716 67.2097 419.312C65.7278 417.109 64.1322 414.885 62.8304 412.577C61.3388 409.933 59.4844 407.478 57.8379 404.928C55.9155 401.951 54.0043 398.95 52.213 395.887C49.8597 391.864 47.5611 387.722 45.4883 383.577" stroke="black" stroke-width="5" stroke-linecap="round" stroke-linejoin="round"/>
<path d="M32 404.948C33.762 400.738 36.1108 396.536 38.7928 392.861C39.6955 391.624 40.5386 390.361 41.3815 389.085C41.7697 388.497 42.3664 388.033 42.6855 387.43C43.2282 386.405 43.7841 385.106 44.6124 384.277" stroke="black" stroke-width="5" stroke-linecap="round" stroke-linejoin="round"/>
<path d="M98.04 470.761C98.439 469.836 99.0665 468.989 99.276 468.046C99.4788 467.134 99.8263 466.161 100.064 465.243C100.243 464.556 100.632 464.092 100.93 463.472C101.47 462.351 101.852 461.126 102.595 460.115C103.802 458.471 104.656 456.273 105.358 454.373C106.149 452.234 107.057 450.088 108.122 448.067C109.449 445.55 110.285 442.829 111.626 440.34C114.15 435.652 116.643 431.026 119.761 426.696C120.872 425.154 121.788 423.468 122.739 421.83C123.62 420.313 124.692 418.899 125.503 417.334C127.585 413.314 130.207 409.535 132.286 405.5C134.983 400.265 138.071 395.256 140.743 390.007C141.99 387.558 143.586 385.334 144.986 383" stroke="black" stroke-width="5" stroke-linecap="round" stroke-linejoin="round"/>
<path d="M144.986 383.226C147.274 386.923 150.198 390.029 152.772 393.503C154.49 395.821 156.269 398.257 157.589 400.831C158.126 401.879 158.476 403.024 159 404.072" stroke="black" stroke-width="5" stroke-linecap="round" stroke-linejoin="round"/>
<path d="M45.3131 383.226C47.0526 383.226 48.7413 382.725 50.471 382.701C52.2543 382.676 54.0398 382.701 55.8235 382.701C59.1544 382.701 62.4855 383.052 65.8277 382.866C69.2614 382.675 72.7153 382.35 76.1532 382.35C80.8666 382.35 85.5611 382.526 90.274 382.526C93.9289 382.526 97.6039 382.35 101.271 382.35C106.089 382.35 110.892 382.526 115.713 382.526C122.066 382.526 128.394 382.286 134.739 382.613C138.255 382.794 141.843 382.614 145.337 383.051" stroke="black" stroke-width="5" stroke-linecap="round" stroke-linejoin="round"/>
<path d="M58.9766 407.349C59.8312 406.991 60.4132 406.566 61.0884 405.948C61.9082 405.196 62.9107 404.702 63.7743 404.011C65.5845 402.563 67.3051 401.17 69.2339 399.855C71.234 398.493 73.2354 397.087 75.2773 395.788C77.6607 394.271 79.7985 392.416 82.2356 390.961C85.4402 389.047 88.4625 386.703 91.7338 384.927C92.3242 384.606 92.8083 383.963 93.3979 383.701C93.78 383.531 94.177 383.369 94.3614 383" stroke="black" stroke-width="5" stroke-linecap="round" stroke-linejoin="round"/>
<path d="M28 347C30.5536 350.906 32.9144 354.829 35 359" stroke="black" stroke-width="5" stroke-linecap="round" stroke-linejoin="round"/>
<path d="M63 338C63.7202 345.292 63.5609 352.805 65 360" stroke="black" stroke-width="5" stroke-linecap="round" stroke-linejoin="round"/>
<path d="M103 336C103 344.075 103.001 351.988 102 360" stroke="black" stroke-width="5" stroke-linecap="round" stroke-linejoin="round"/>
<path d="M131 363C134.439 356.122 137.918 349.808 143 344" stroke="black" stroke-width="5" stroke-linecap="round" stroke-linejoin="round"/>
<path d="M159 382C164.404 374.451 170.148 367.202 176 360" stroke="black" stroke-width="5" stroke-linecap="round" stroke-linejoin="round"/>
<path d="M3 364C9.32313 370.494 14.9948 377.492 20 385" stroke="black" stroke-width="5" stroke-linecap="round" stroke-linejoin="round"/>
<path d="M94.011 383.35C95.2595 384.305 96.5032 385.068 97.7675 385.978C99.1265 386.956 100.56 387.82 101.894 388.82C103.355 389.916 104.981 391.21 106.604 392.021C107.91 392.674 109.015 393.704 110.312 394.396C112.373 395.495 114.226 396.945 116.18 398.201C116.797 398.598 117.683 399.209 118.107 399.826C118.77 400.791 120.004 401.232 120.958 401.821C124.552 404.041 127.906 406.298 131.848 407.874" stroke="black" stroke-width="5" stroke-linecap="round" stroke-linejoin="round"/>
<path d="M300.766 99.9685C296.547 100.852 293.593 101.986 290.113 104.627C287.084 106.925 285.18 110.809 283.6 114.159C280.922 119.836 282.487 125.383 286.792 129.687C292.971 135.867 300.896 138.204 309.307 139.09C317.294 139.931 325.577 138.879 333.483 137.817C340.107 136.928 346.87 136.103 353.086 133.526C355.035 132.718 357.081 132.422 358.996 131.498C361.829 130.132 364.749 129.085 367.665 127.918C375.128 124.933 382.621 121.985 389.792 118.343C398.317 114.013 406.075 108.231 414.098 103.074C422.039 97.9688 429.297 92.1191 435.384 84.9152C439.446 80.1064 443.346 74.7668 445.973 69.0208C448.243 64.0554 447.522 58.1175 445.865 53.0832C444.174 47.9453 441.205 45.047 435.836 44.8233C431.447 44.6405 428.08 44.4685 423.91 46.0095C421.271 46.985 418.841 49.3238 416.448 50.8619C414.978 51.8071 413.576 52.821 412.178 53.8596C408.155 56.8479 404.586 59.8127 401.007 63.392C399.581 64.8175 398.519 66.5535 397.06 67.9209C394.27 70.5363 391.271 72.8626 388.283 75.2534C383.431 79.1349 377.368 81.5641 372.108 84.8289C367.889 87.4473 363.673 89.4166 359.082 91.3419C348.922 95.6025 338.25 99.0646 327.164 99.5803C321.103 99.8622 315.08 100.745 309.005 100.745C305.312 100.745 301.716 101.133 298.049 101.133" stroke="black" stroke-width="5" stroke-linecap="round" stroke-linejoin="round"/>
<path d="M281.357 120.543C279.118 120.49 276.04 120.062 274.11 118.904C272.881 118.166 269.51 115.831 269.323 114.332C269.145 112.914 268.187 111.558 268.158 110.062C268.105 107.378 267.692 104.167 268.46 101.608C269.815 97.0901 273.783 94.6024 277.388 91.8165C282.007 88.2478 288.188 87.347 293.606 85.6054C303.23 82.5121 312.97 79.1821 322.807 77.0651C330.197 75.4749 337.555 73.8896 344.546 70.9403C352.254 67.6885 360.598 65.2414 367.751 60.8472C374.191 56.8914 380.908 52.705 387.549 49.1151C391.347 47.0625 394.401 43.8033 398.203 41.7394C400.385 40.5547 401.97 38.3438 404.328 37.383C406.662 36.432 408.765 34.0672 411.013 32.811C412.687 31.8755 414.118 30.3718 415.758 29.3172C417.31 28.3194 419.983 27.2598 421.02 25.8235C421.986 24.4867 425.098 24.1287 426.627 23.7963C429.031 23.2737 431.267 22.6684 433.744 22.7179C435.428 22.7516 436.818 23.7732 438.187 24.6589C439.758 25.6757 441.911 26.3413 442.543 28.2389C443.311 30.5403 444.02 32.7571 444.7 35.0539C445.201 36.7446 444.461 38.4559 444.398 40.1004C444.317 42.1978 444.008 45.2353 442.457 46.786" stroke="black" stroke-width="5" stroke-linecap="round" stroke-linejoin="round"/>
<path d="M302.319 90.6517C304.753 91.579 307.259 92.1313 309.867 91.73C312.413 91.3384 316.172 91.063 318.321 89.4871C322.68 86.2911 326.556 81.4311 332.34 80.9684C335.257 80.735 338.202 80.4018 341.139 80.192C344.48 79.9533 347.872 80.4271 351.21 80.1489C356.132 79.7387 359.345 76.6126 361.929 72.8811C363.395 70.7628 365.292 69.5524 367.148 67.7483C369.026 65.9224 371.137 65.8334 373.359 64.9446C375.432 64.1152 378.345 64.6203 380.605 64.1683C383.044 63.6804 385.266 63.3186 387.528 62.3135C391.079 60.7354 393.843 56.0763 395.896 52.9969C397.303 50.8863 398.679 47.7421 400.748 46.2251C402.936 44.6206 405.996 44.1901 408.469 43.2058C411.766 41.8928 414.445 41.3511 418.001 41.3511" stroke="black" stroke-width="5" stroke-linecap="round" stroke-linejoin="round"/>
<path d="M273.981 94.1456C273.078 91.3799 272.198 88.1421 273.011 85.2171C273.664 82.8657 274.731 81.1047 275.836 79.006C278.962 73.0658 284.65 70.8124 290.717 68.3307C296.779 65.8505 304.268 65.9165 310.687 65.031C318.603 63.9392 326.094 61.8836 333.677 59.2944C339.523 57.2982 344.876 55.2255 350.283 52.2422C354.144 50.1118 358.406 48.7351 362.101 46.2252C366.707 43.0964 370.931 39.1864 375.472 35.9165C380.372 32.3889 385.127 28.6812 390.073 25.2196C394.541 22.0921 399.697 20.0005 405.212 20.0005C411.023 20.0005 419.021 19.8562 423.436 24.2707" stroke="black" stroke-width="5" stroke-linecap="round" stroke-linejoin="round"/>
<path d="M608.124 72.6817C608.438 71.2503 609.286 69.8711 609.871 68.5329C610.534 67.0174 611.144 65.3899 611.94 63.9128C612.813 62.2911 613.305 60.2605 614.008 58.5343C614.475 57.3898 615.047 56.1731 615.364 54.9831C615.933 52.8523 617.321 50.7713 618.307 48.8001C619.592 46.2293 621.008 43.7174 622.145 41.0771C623.609 37.6792 625.347 34.4167 626.742 30.9866C628.005 27.8802 629.946 25.0043 631.04 21.8385C631.882 19.4034 633.253 16.5581 634.729 14.4257C635.578 13.2006 636.229 12.5244 637.499 11.748C638.521 11.1235 639.642 10.0889 640.821 9.79421C641.742 9.56394 643.408 8.77571 644.119 8.13928C645.319 7.06592 647.152 6.52911 648.509 5.65688C650.146 4.60479 652.377 3.851 654.255 3.38135" stroke="black" stroke-width="5" stroke-linecap="round" stroke-linejoin="round"/>
<path d="M654.462 3.38131C659.781 2.34348 664.84 3.69925 670.069 4.19728C671.743 4.35671 673.459 4.58302 675.103 4.87535C676.629 5.14655 678.259 5.24311 679.815 5.24311C680.772 5.24311 681.732 5.44998 682.711 5.44998C683.671 5.44998 684.769 5.29504 685.699 5.55341C688.235 6.25787 691.012 6.41845 693.468 7.31178C695.895 8.1944 698.71 8.39291 701.007 9.54134C701.551 9.81294 703.173 9.70834 703.49 10.1045C703.747 10.4257 706.03 10.9425 706.478 11.0239C707.812 11.2665 709.001 12.1362 710.201 12.7363C711.016 13.1435 711.799 13.621 712.603 14.0235C712.758 14.101 713.535 13.7246 713.833 13.7246" stroke="black" stroke-width="5" stroke-linecap="round" stroke-linejoin="round"/>
<path d="M712.799 14.3452C717.291 11.6711 722.365 10.0927 727.59 11.2537C728.572 11.4721 729.826 12.0313 730.681 12.5753C731.752 13.2565 732.14 14.1739 732.566 15.391C733.698 18.6267 735.644 21.5042 736.496 24.792C739.338 35.7513 741.033 47.4402 741.346 58.7296C741.419 61.3313 741.346 64.0386 741.346 66.7284C741.346 69.5187 741.453 72.3266 741.553 75.118C741.592 76.2087 741.967 77.403 741.967 78.4739" stroke="black" stroke-width="5" stroke-linecap="round" stroke-linejoin="round"/>
<path d="M608.124 73.0953C608.601 75.7432 610.794 78.1245 612.882 79.761C614.402 80.9524 615.757 82.4843 617.732 82.864C618.869 83.0827 620.008 83.4951 621.145 83.7605C622.294 84.0284 623.434 84.1401 624.582 84.3696C629.331 85.3195 634.244 85.6083 639.051 86.1279C646.625 86.9468 654.242 87.576 661.864 87.576C676.084 87.576 690.477 86.9781 704.524 84.7833C710.74 83.812 716.955 82.9973 723.222 82.3009C725.502 82.0477 727.779 81.864 730.061 81.5769C732.394 81.2832 735.035 81.4431 737.289 80.7494C738.664 80.3263 739.992 79.7526 741.346 79.3013" stroke="black" stroke-width="5" stroke-linecap="round" stroke-linejoin="round"/>
<path d="M611.641 63.7864C613.618 64.558 615.687 65 617.479 66.0619C618.075 66.4148 618.946 66.464 619.617 66.6365C620.382 66.8334 621.011 67.267 621.823 67.3031C623.478 67.3766 625.354 67.8324 626.96 68.234C627.896 68.4679 629.08 68.6596 630.041 68.7397C630.954 68.8158 631.812 69.1649 632.73 69.1649C635.286 69.1649 637.979 70.0437 640.51 70.3601C646.405 71.0969 652.237 72.1145 658.186 72.4863C669.28 73.1797 680.307 73.5091 691.422 73.5091C695.628 73.5091 699.88 72.8968 704.087 72.6357C706.306 72.498 708.51 72.5056 710.73 72.4748C713.839 72.4316 716.855 71.2649 719.936 70.9463C724.379 70.4866 728.854 70.3285 733.29 69.774C734.494 69.6235 735.693 69.0643 736.91 68.8661C738.542 68.6005 740.148 68.282 741.76 67.9237" stroke="black" stroke-width="5" stroke-linecap="round" stroke-linejoin="round"/>
<path d="M618.881 47.8577C617.404 47.8276 615.935 47.6738 614.457 47.6738C612.433 47.6738 610.505 48.0736 608.515 48.3864C604.448 49.0256 600.392 49.8054 596.344 50.5585C591.815 51.4012 587.625 52.6115 583.346 54.2706C580.964 55.1944 579.63 58.3635 578.312 60.3616C576.472 63.1524 575.532 66.0387 575.129 69.3489C574.614 73.5825 575.686 77.5125 577.554 81.2782C579.332 84.8631 581.556 87.5419 584.587 90.1504C586.736 91.9994 588.726 94.1608 591.15 95.6324C597.327 99.3828 605.362 99.8827 612.33 101.022C633.422 104.472 654.903 105.271 676.206 106.447C691.735 107.304 707.097 105.697 722.383 102.999C727.481 102.1 732.371 100.301 737.37 98.9997C739.435 98.4621 741.567 98.1251 743.495 97.1724C745.382 96.2402 747.196 95.3878 749.196 94.713C752.074 93.7416 754.926 92.5777 757.643 91.2193C759.228 90.4267 761.26 89.485 761.872 87.691C763.082 84.1416 762.787 80.0587 761.93 76.4398C761.153 73.1624 758.295 71.0759 755.988 68.7972C752.836 65.6843 749.153 63.2495 745.3 61.1087C744.423 60.6218 743.275 60.4585 742.473 59.9479C742.032 59.6677 741.629 59.3987 741.139 59.2354" stroke="black" stroke-width="5" stroke-linecap="round" stroke-linejoin="round"/>
<path d="M612.261 65.2345C612.195 67.9638 611.02 70.5257 611.02 73.3138C611.02 74.0944 611.227 74.8279 611.227 75.5434C611.227 76.7129 611.347 73.2016 611.549 72.0496C611.726 71.0383 611.899 69.6478 612.985 69.165C613.429 68.9676 614.236 68.0031 614.422 67.6135C614.776 66.8725 614.756 67.019 615.158 67.6709C615.431 68.1152 615.039 69.0724 614.951 69.5557C614.747 70.6752 614.047 71.5538 613.905 72.6932C613.737 74.0385 613.71 75.3469 613.71 76.7156C613.71 77.2507 613.545 80.1184 614.227 78.451C615.535 75.2522 616.349 71.84 617.525 68.6478C617.928 67.553 618.13 69.7765 618.215 70.1533C618.538 71.5899 618.597 72.7898 618.364 74.2332C618.117 75.7634 618.261 77.0203 618.261 78.4855C618.261 79.2238 618.656 79.7549 618.835 80.4507C619.046 81.2691 619.122 80.2106 619.295 79.6922C620.159 77.0997 619.915 74.1546 620.329 71.4635C620.431 70.8033 620.831 70.2583 620.938 69.6132C620.98 69.3615 621.058 69.7724 621.099 69.8545C621.482 70.6202 621.982 71.3356 622.306 72.1301C622.762 73.247 622.752 74.8835 622.904 76.072C623.058 77.2836 623.202 78.4954 623.225 79.7152C623.234 80.1838 623.689 83.4653 624.099 82.3585C624.52 81.2224 625.149 80.1132 625.271 78.8877C625.375 77.8483 625.115 76.8205 625.087 75.7847C625.06 74.7786 625.023 73.824 625.099 72.8081C625.12 72.5206 625.204 72.266 625.283 71.9921C625.307 71.9068 625.362 72.1842 625.501 72.176C625.761 72.1607 625.945 71.1822 626.133 71.5899C626.795 73.0241 627.059 74.5735 627.57 76.0605C628.071 77.5207 628.55 79.5488 628.604 81.1173C628.628 81.8278 628.699 82.4816 628.799 83.1859C628.822 83.3426 629.153 82.4781 629.27 82.2665C630.686 79.7179 629.319 76.5569 629.799 73.8539C629.943 73.0431 630.256 70.6635 631.132 72.2909C632.487 74.8071 632.631 77.5818 633.362 80.2898C633.467 80.6785 634.039 83.4466 634.442 83.14C635.302 82.4868 635.182 80.2879 635.212 79.3359C635.256 77.9706 634.82 76.0174 635.316 74.7044C635.605 73.9396 635.925 73.1434 636.258 72.3944C636.53 71.783 637.592 74.0877 637.66 74.1987C639.115 76.5573 638.999 79.3143 640.142 81.7838C640.517 82.5932 641.071 85.4671 642.004 83.025C643.023 80.3618 642.171 77.2268 642.567 74.4516C642.667 73.7565 642.733 73.383 643.2 72.8886C643.829 72.2216 644.103 73.3598 644.337 73.9919C645.323 76.6544 645.75 79.4308 646.705 82.0826C647.054 83.0528 647.241 84.9766 648.544 85.2661C649.763 85.5371 649.785 79.8549 649.716 79.0946C649.613 77.9615 649.203 76.3797 649.612 75.2675C650.264 73.499 650.997 76.6707 651.371 77.3477C652.59 79.5567 653.439 82.0599 654.784 84.1743C655.005 84.5217 655.095 85.1045 655.244 84.3812C655.508 83.0942 655.083 81.6423 655.083 80.3358C655.083 78.9517 655.13 75.3068 656.761 74.8538C657.8 74.565 657.847 74.7624 658.439 75.6238C659.327 76.9165 659.87 78.2678 660.461 79.7037C660.935 80.8529 661.43 82.0261 662.07 83.094C662.251 83.3956 662.755 84.3395 663.059 84.4501C664.809 85.0865 664.806 79.7929 664.806 79.0256C664.806 78.0288 665.305 77.6942 665.955 77.0259C666.202 76.7715 666.507 75.6649 666.966 75.7962C667.545 75.9615 668.047 77.3427 668.299 77.7614C669.264 79.3645 670.429 81.0005 671.207 82.7032C671.528 83.405 672.459 85.5336 673.391 84.2432C674.586 82.5875 674.332 79.0639 674.023 77.1868C673.944 76.7126 673.766 76.2601 673.701 75.7847C673.687 75.6803 673.571 75.5721 673.632 75.5893C674.334 75.7899 676.02 75.9582 676.436 76.5432C678.22 79.0523 679.096 81.7667 680.413 84.4731C680.547 84.7496 680.695 85.2077 680.941 85.3925C681.259 85.6309 682.18 83.9047 682.228 83.7835C683.239 81.2452 682.397 78.9782 681.401 76.6122C681.249 76.2503 681.929 75.851 682.194 75.7847C683.397 75.4839 684.117 76.5116 684.665 77.4856C685.782 79.4716 686.586 81.7822 687.4 83.8985C688.069 85.6375 689.101 84.3297 689.584 83.1859C690.212 81.6967 690.335 80.3014 690.135 78.7038C690.037 77.9146 689.614 76.9646 689.997 76.1984C690.211 75.7714 691.044 75.4466 691.457 75.302C692.15 75.0593 693.036 77.517 693.238 77.9223C694.004 79.454 694.506 81.0678 695.226 82.5998C695.573 83.3362 696.13 84.1114 697.031 83.5997C698.769 82.612 699.25 79.8483 698.893 78.0602C698.805 77.6235 698.25 75.114 699.352 75.1641C702.066 75.2874 702.491 78.3718 703.283 80.2898C704.983 84.405 709.037 79.2296 707.259 76.1525C706.472 74.7895 707.339 74.0833 708.96 74.4745C711.049 74.9787 711.255 78.5198 711.868 80.2208C712.214 81.1837 713.005 82.8191 713.936 81.8873C715.507 80.3163 715.557 78.337 714.66 76.4168C714.377 75.8098 714.151 75.3797 714.293 74.7044C714.434 74.0314 714.912 73.0902 715.591 73.9689C716.212 74.7719 716.603 75.486 716.775 76.4513C716.933 77.3397 716.941 78.3887 717.568 79.0946C718.219 79.8267 719.735 82.0015 720.855 80.5082C721.868 79.1578 720.29 76.1817 720.05 74.8653C719.878 73.9165 721.932 73.2566 722.108 73.9574C722.373 75.0195 722.907 76.1341 723.349 77.1408C723.734 78.0192 723.865 78.8315 724.693 79.4049C726.389 80.5785 727.116 79.2059 727.36 77.4971C727.537 76.2566 726.906 75.2945 726.705 74.1298C726.555 73.2625 726.776 73.2332 727.498 72.9805C728.227 72.7253 728.716 72.6563 729.44 72.8426C730.589 73.138 730.502 73.5333 730.704 74.6584C730.852 75.4819 731.102 78.3182 732.256 78.4625C733.805 78.6561 735.523 78.3383 736.071 76.6926C736.715 74.76 735.745 73.0452 736.485 71.1532C736.876 70.1546 739.089 70.6946 739.484 71.5324C740.082 72.7989 740.312 74.1949 740.312 75.5778C740.312 76.5731 740.749 77.303 739.484 77.6005C737.969 77.957 736.842 75.5903 736.083 74.7044C734.636 73.0162 731.693 71.6379 729.808 73.5551C728.472 74.9131 728.7 76.9169 727.693 78.428C727.099 79.3192 725.227 80.125 724.176 79.7841C723.492 79.5621 722.657 77.9407 722.223 77.3477C721.782 76.7463 721.003 75.8401 720.2 75.7847C718.73 75.6833 717.35 75.9831 716.775 77.4396C716.328 78.5735 716.241 79.4482 715.017 79.8416C713.407 80.3591 711.7 80.7789 709.994 80.7495C709.184 80.7355 708.439 79.7952 707.96 79.2095C707.463 78.6018 706.267 78.4968 705.512 78.474C704.541 78.4445 703.867 78.7294 702.972 79.0026C701.017 79.6002 698.909 79.911 696.87 79.922C691.474 79.9512 686.313 81.1632 680.918 81.1632C675.011 81.1632 669.184 82.4381 663.358 83.3468C659.21 83.9937 654.927 83.3119 650.739 83.5192C648.25 83.6424 645.755 83.1106 643.268 82.9791C639.366 82.7726 635.338 82.6986 631.477 82.0711C629.044 81.6757 626.652 81.0845 624.214 80.7035C623.516 80.5945 622.957 80.1716 622.352 79.8301C620.53 78.8015 618.568 78.1392 616.675 77.2557C615.048 76.4967 612.029 75.2659 611.457 73.4057C611.15 72.409 610.997 70.5919 612.055 69.912C612.871 69.3872 613.666 68.5628 614.652 68.3835C616.057 68.1281 617.955 69.1024 619.364 69.2339C622.834 69.5578 626.323 69.9691 629.799 70.4981C633.283 71.0282 636.696 71.0633 640.142 71.8542C647.484 73.5391 655.199 73.7848 662.599 75.0607C663.984 75.2995 665.407 75.0879 666.805 75.2101C669.846 75.4757 672.823 75.7847 675.884 75.7847C678.049 75.7847 680.213 75.7847 682.378 75.7847C688.127 75.7847 693.904 75.371 699.651 75.371C701.493 75.371 703.313 75.4004 705.145 75.2101C705.886 75.1331 706.633 75.1891 707.374 75.1181C708.6 75.0009 709.717 74.4691 710.925 74.2677C713.91 73.7703 717.031 73.9872 720.039 73.6241C721.756 73.4168 723.224 73.4328 724.889 72.8886C725.887 72.5622 726.926 72.1249 727.98 72.0496C729.712 71.9259 731.45 71.6662 733.187 71.6474C734.329 71.6349 735.755 71.4098 736.876 71.6589C737.319 71.7574 736.331 72.7324 736.255 72.8081C734.746 74.317 733.339 74.5615 731.187 74.9113C729.33 75.213 727.426 74.9463 725.59 75.2905C724.178 75.5553 722.963 76.0564 721.51 76.1525C718.244 76.3684 715.071 76.1984 711.81 76.1984C710.293 76.1984 708.757 76.1222 707.248 76.3019C705.799 76.4744 704.341 76.9887 702.892 77.0259C700.835 77.0786 698.812 77.4396 696.755 77.4396C694.077 77.4396 691.414 77.4825 688.756 77.8534C686.738 78.135 684.886 78.0832 682.883 78.0832C680.813 78.0832 678.779 78.6808 676.689 78.6808C674.127 78.6808 671.626 78.125 669.069 78.0717C665.941 78.0065 662.826 78.0533 659.703 77.8074C655.947 77.5117 652.215 76.7955 648.463 76.4513C643.162 75.9649 637.886 75.6803 632.695 74.3826C630.559 73.8484 628.46 73.0446 626.282 72.6817C624.246 72.3424 622.427 72.5176 620.398 72.4289C619.211 72.3769 613.23 71.4085 613.87 73.8769C614.071 74.6518 614.955 74.872 615.709 75.0377C616.597 75.2325 617.514 75.108 618.41 75.0722C620.129 75.0034 621.841 75.1814 623.547 75.371C631.969 76.3067 640.515 77.234 648.831 78.8877C652.458 79.6089 656.162 79.9634 659.818 80.5196C662.196 80.8815 664.579 80.628 666.966 80.7955C669.572 80.9783 672.056 80.5656 674.643 80.5656C676.861 80.5656 678.9 80.6088 681.102 80.3817C685.93 79.884 690.726 80.1059 695.56 80.1059C697.512 80.1059 700.184 80.0595 702.019 79.4164C705.291 78.2693 708.484 78.1767 711.948 78.0602C716.461 77.9085 721.265 77.2961 725.716 76.4972C727.89 76.1071 729.613 75.5823 731.876 75.8881C733.516 76.1097 735.164 75.7847 736.818 75.7847C737.504 75.7847 737.841 75.8083 738.404 76.1984C738.98 76.5967 738.596 76.722 738.45 77.2328C737.858 79.3035 735.028 79.4075 733.336 79.7152C729.34 80.4417 725.246 80.5426 721.188 80.5426C717.536 80.5426 713.937 80.6194 710.293 80.8529C705.336 81.1707 700.424 81.9706 695.468 82.1861C694.033 82.2485 692.619 82.2699 691.193 82.4964C688.834 82.8708 686.581 83.7688 684.217 84.1513C679.434 84.925 674.341 84.2662 669.506 84.2662C665.266 84.2662 661.048 84.2662 656.818 84.2662C651.768 84.2662 646.568 83.3842 641.533 83.7491C638.268 83.9857 635.375 84.2702 632.132 83.7491C629.203 83.2783 625.899 83.0415 623.122 81.9907C621.432 81.3511 619.134 80.8871 617.755 79.7152C615.986 78.2112 613.851 78.0472 611.825 77.0719C610.008 76.1972 609.007 73.9954 608.952 72.0611C608.909 70.5796 609.561 69.2778 610.446 68.1306C610.844 67.6137 611.389 66.7275 611.894 66.3148C612.579 65.754 614.803 66.5831 615.617 66.6826C617.586 66.923 619.197 67.2361 621.111 67.6709C625.369 68.6387 629.669 69.7657 634.028 70.3602C639.24 71.0709 644.325 72.3913 649.543 73.0954C652.207 73.4548 654.936 73.3386 657.565 73.9229C658.711 74.1775 659.822 74.3391 660.99 74.4975C662.788 74.7414 664.683 74.5017 666.495 74.555C668.443 74.6123 670.291 74.8904 672.207 75.1641C675.889 75.6902 679.395 75.9996 683.056 75.371C685.122 75.0162 687.427 74.7144 689.515 74.7504C692.538 74.8025 695.585 75.1703 698.617 74.9457C701.1 74.7618 703.564 74.2921 706.053 74.1413C707.982 74.0243 709.862 73.5092 711.81 73.5092C715.231 73.5092 718.752 72.9917 722.142 72.5783C723.947 72.3582 725.693 71.8125 727.509 71.6474C729.802 71.4389 732.378 71.342 734.623 70.8199C735.339 70.6534 736.131 70.7198 736.795 70.4062C737.309 70.1634 737.779 69.9924 738.347 69.9924C738.995 69.9924 739.764 69.5542 740.013 70.3027C740.352 71.3202 740.105 72.8487 740.105 73.9344C740.105 74.9576 740.51 75.9879 739.783 76.9225C738.987 77.9463 738.258 78.6041 736.968 78.9911C734.791 79.6442 732.198 79.7793 729.934 80.0255C727.079 80.3358 724.232 79.9181 721.395 80.4392C720.021 80.6915 718.588 81.1195 717.189 81.1632C716.1 81.1973 715.109 81.2125 714.04 81.462C710.184 82.3617 706.087 82.4758 702.248 83.5422C698.892 84.4747 694.949 84.2056 691.491 84.2662C689.629 84.2989 687.871 85.0594 686.021 85.0937C684.394 85.1238 682.757 85.1037 681.148 85.3465C677.625 85.8784 673.909 85.9212 670.345 85.9212C667.7 85.9212 665.138 85.4806 662.484 85.5074C660.788 85.5246 659.014 85.9643 657.312 85.6683C655.314 85.3208 653.204 85.5074 651.175 85.5074C648.638 85.5074 646.123 85.3006 643.59 85.3006C640.675 85.3006 637.901 84.7598 635.017 84.3122C632.691 83.9513 630.29 84.1898 627.983 83.5997C625.331 82.9211 622.699 82.1629 620.03 81.531C619.051 81.2989 617.834 81.4927 617.1 80.7265C616.418 80.0145 615.399 79.4373 615.043 78.474C614.216 76.241 613.611 74.0113 612.882 71.7393C612.554 70.7166 612.703 69.5334 612.307 68.5444C612.259 68.4224 612.21 67.7946 612.009 68.1306C611.469 69.0307 610.885 69.8925 610.526 70.8889C609.97 72.4341 610.611 74.2463 610.802 75.7732C610.815 75.8763 611.017 76.7358 611.02 76.7271C611.509 75.4234 611.617 73.9545 612.078 72.6242C612.23 72.1839 613.207 68.9406 613.641 69.9235C614.496 71.8635 615.682 73.9789 616.169 76.049C616.45 77.2444 617.388 78.285 617.629 79.4853C617.873 80.7061 617.131 77.0455 616.858 75.8307C616.519 74.3174 616.781 72.598 616.295 71.1417C616.157 70.7251 616.009 69.9236 616.652 69.9924C617.657 70.1002 618.297 71.8399 618.467 72.6932C618.864 74.6771 619.286 76.9904 620.433 78.6808C620.763 79.1673 622.392 81.8692 622.915 81.462C623.676 80.8702 623.097 78.9683 622.927 78.2671C622.557 76.7425 621.878 75.3247 621.467 73.8195C621.324 73.2946 620.419 71.6331 621.283 71.1532C622.442 70.5093 624.855 77.5443 625.329 78.3246C626.6 80.4186 627.973 82.3812 629.822 84.0249C631.086 85.1481 631.147 82.5104 630.742 81.7723C629.948 80.3293 628.81 78.9775 627.937 77.5546C627.138 76.2513 626.497 74.7682 625.604 73.5321C625.32 73.1382 624.033 70.636 625.007 70.636C626.661 70.636 628.264 74.0261 628.811 75.2101C630.024 77.8389 631.767 81.1549 634.396 82.6573C634.994 82.9986 636.415 84.3034 636.925 83.8525C637.955 82.9409 637.49 80.5821 636.971 79.5428C636.246 78.0941 635.29 76.7467 634.442 75.371C634.2 74.9781 632.676 72.2276 633.362 72.268C633.538 72.2783 634.041 72.5156 634.212 72.6012C635.056 73.0231 636.407 73.9218 637.039 74.5895C638.325 75.946 639.329 78.2109 640.246 79.8416C640.686 80.6244 640.775 81.5681 641.269 82.2895C641.651 82.8487 642.567 84.6514 643.337 84.68C645.853 84.7731 643.952 80.1403 643.659 78.8417C643.44 77.8702 643.016 73.6778 641.062 73.8999C640.437 73.9709 640.084 75.2749 639.936 75.6928C639.399 77.2005 639.311 78.692 639.039 80.2438C638.794 81.644 636.528 81.4146 635.568 80.9793C634.006 80.2704 632.899 79.2668 631.546 78.2786C628.804 76.2764 627.385 79.4024 624.719 79.0026C623.933 78.8847 623.193 78.4494 622.49 78.1062C621.483 77.6149 621.869 77.8741 622.72 78.0602C626.287 78.8406 630.311 79.3655 633.959 79.2555C637.074 79.1616 639.85 79.505 642.924 79.899C645.185 80.189 647.382 79.7833 649.658 80.1289C650.93 80.3218 652.281 80.4714 653.566 80.5311C655.469 80.6196 657.188 80.9724 659.082 81.2092C663.382 81.7467 667.774 82.2702 672.103 82.4044C673.427 82.4455 674.802 82.6344 676.126 82.5768C676.994 82.5391 677.82 82.1342 678.689 82.0367C681.591 81.7109 684.46 82.1967 687.354 82.0597C689.388 81.9633 691.381 81.2768 693.422 81.1747C696.632 81.0142 699.799 80.7146 702.995 80.4277C706.957 80.0722 710.913 80.0214 714.798 79.0946C717.998 78.3314 721.207 78.16 724.406 77.5316C726.763 77.0687 729.308 76.9972 731.601 76.3134C732.452 76.0594 735.114 75.8991 735.451 74.9572C735.834 73.883 733.517 73.3887 732.842 73.3942C729.212 73.4237 725.595 74.9485 722.016 75.4514C718.558 75.9372 714.983 76.2679 711.488 76.1525C709.953 76.1018 708.424 75.933 706.891 76.1295C705.015 76.3701 703.182 76.8374 701.295 77.0144C697.522 77.3681 693.858 77.3751 690.066 77.4856C687.214 77.5688 684.386 77.9363 681.539 78.0832C679.451 78.191 677.409 77.9018 675.333 77.7499C670.702 77.4111 665.902 77.6747 661.335 76.7041C659.094 76.228 657.035 76.0143 654.738 75.9916C652.963 75.974 651.344 75.4763 649.635 75.0492C647.483 74.5111 645.442 73.9493 643.223 73.9229C641.67 73.9044 639.923 73.7326 638.407 73.3827C634.433 72.4657 630.36 72.3633 626.351 71.6474C624.403 71.2994 622.441 71.1365 620.513 70.659C620.039 70.5416 617.39 69.4863 617.123 70.1533C616.937 70.618 618.307 72.1091 618.513 72.3599C619.78 73.9011 621.518 74.8479 623.363 75.5548C627.215 77.0305 631.999 76.5424 636.063 76.6237C639.296 76.6883 642.447 77.1016 645.659 77.3477C649.213 77.62 652.672 78.2897 656.221 78.5774C660.295 78.9077 665.053 79.2897 668.839 81.0253C669.338 81.254 667.756 81.2387 667.208 81.2437C664.538 81.2677 661.925 80.7888 659.266 80.6805C657.881 80.6241 656.471 80.7776 655.106 81.0023C653.935 81.1951 652.828 81.7171 651.635 81.7494C646.953 81.8759 642.334 79.9366 637.66 80.9104C636.683 81.114 638.351 81.2711 638.534 81.3011C641.97 81.8648 645.463 82.1746 648.946 82.1746C653.296 82.1746 657.647 81.9746 662.001 81.9907C666.188 82.0062 670.744 82.7409 674.839 81.5425C675.158 81.449 677.132 80.7593 676.114 80.1634C674.692 79.331 672.639 79.7596 671.127 79.922C666.031 80.4693 661.2 79.5619 656.163 78.8762C653.308 78.4876 650.253 77.6465 647.36 77.6465C642.64 77.6465 656.8 77.762 661.519 77.8878C664.169 77.9585 666.764 78.3789 669.403 78.5199C671.437 78.6287 673.385 78.1999 675.402 78.0602C684.97 77.3975 694.596 79.5131 704.156 78.2211C706.311 77.9299 708.37 77.213 710.523 76.934C711.08 76.8618 715.535 76.2365 713.212 75.7387C709.615 74.9679 706.155 75.2376 702.536 75.6813C697.272 76.3265 692.104 75.7122 686.825 75.8307C684.629 75.8799 682.423 75.9364 680.229 76.0375C677.275 76.1737 674.42 76.9334 671.483 77.1523C666.495 77.524 661.389 76.2279 656.462 75.5778C653.469 75.1829 650.479 75.4584 647.486 74.9342C643.392 74.2171 639.261 73.7769 635.132 73.3023C632.769 73.0307 630.528 72.382 628.202 71.9692C627.351 71.8183 626.495 71.704 625.65 71.5209C624.721 71.3196 623.592 70.7604 622.628 70.8659C621.573 70.9813 618.527 72.0503 618.272 73.1989C618.194 73.5481 618.784 73.9962 618.973 74.1527C621.053 75.8705 624.574 76.2312 627.11 76.7041C630.158 77.2724 633.248 77.356 636.327 77.6465C641.297 78.1154 646.237 78.995 651.164 79.7841C655.545 80.4859 659.786 81.347 664.208 81.8068C671.526 82.5678 678.922 83.268 686.274 83.6456C689.417 83.8071 692.609 83.5094 695.732 83.1285C698.138 82.8351 700.645 83.0609 702.961 82.2435C705.726 81.2677 708.207 79.8354 711.144 79.3014" stroke="black" stroke-width="5" stroke-linecap="round" stroke-linejoin="round"/>
<path d="M737.002 76.1984C737.888 75.2847 738.45 74.2789 738.45 72.992C738.45 72.7259 738.303 71.8201 738.565 71.6703C738.9 71.4792 739.235 72.031 739.266 72.2795C739.383 73.2155 738.804 74.3141 738.577 75.1986C738.33 76.1587 738.168 76.2063 737.197 76.5202C735.86 76.953 734.926 77.3935 733.485 77.4511C732.463 77.492 731.366 77.5718 730.405 77.9453C729.165 78.4277 727.797 78.6656 726.544 78.3131C726.025 78.167 727.077 78.7948 727.233 78.8417C727.579 78.9454 728.028 78.7439 728.36 78.6808C729.348 78.4926 730.346 78.4888 731.348 78.474C732.645 78.4547 733.896 78.0602 735.186 78.0602C736.332 78.0602 737.419 78.3936 738.542 78.5889C739.346 78.7287 739.178 78.4406 738.657 78.2671" stroke="black" stroke-width="5" stroke-linecap="round" stroke-linejoin="round"/>
<path d="M914.224 425C908.745 425.368 903.167 425.726 897.81 427.023C890.857 428.706 884.555 432.505 878.881 436.798C868.763 444.454 860.865 456.196 856.347 467.993C855.422 470.408 854.759 472.824 854.143 475.331C853.084 479.642 851.75 483.882 851.317 488.322C850.453 497.174 851.455 506.631 853.132 515.341C854.523 522.564 856.107 529.779 858.837 536.63C861.563 543.472 865.78 549.539 870.635 555.041C878.545 564.006 889.024 569.032 900.066 573.088C907.597 575.855 915.091 577.388 923.092 578.041C931.087 578.693 939.369 579.343 947.363 578.404C955.755 577.418 963.417 575.16 969.948 569.64C972.594 567.403 975.07 564.952 977.65 562.638C979.44 561.033 981.264 559.322 982.654 557.349C984.489 554.746 986.372 552.03 987.892 549.232C988.917 547.346 989.249 545.394 989.655 543.32C990.297 540.041 991.055 536.842 991.47 533.519" stroke="black" stroke-width="5" stroke-linecap="round" stroke-linejoin="round"/>
<path d="M913.29 425.467C911.407 426.956 909.681 428.601 907.793 430.082C904.858 432.387 902.883 435.811 901.285 439.132C898.099 445.748 896.294 452.22 895.554 459.539C894.914 465.873 894.782 472.253 895.917 478.546C896.299 480.665 897.285 483.022 898.458 484.834C898.748 485.282 899.055 485.836 899.055 486.377" stroke="black" stroke-width="5" stroke-linecap="round" stroke-linejoin="round"/>
<path d="M990.77 533.285C988.485 536.06 984.497 537.64 981.422 539.236C975.245 542.444 968.716 542.856 961.91 543.139C957.328 543.329 953.183 542.702 948.659 542.063C944.605 541.49 940.776 540.512 937.043 538.769C934.697 537.675 932.531 536.035 930.093 535.152C929.117 534.799 928.272 534.498 927.526 533.752" stroke="black" stroke-width="5" stroke-linecap="round" stroke-linejoin="round"/>
<path d="M898.355 485.21C899.183 486.304 899.491 486.482 900.662 486.792C901.581 487.035 903.052 487.148 903.774 487.726C904.45 488.266 905.58 488.31 906.289 488.944C906.946 489.532 907.341 489.966 907.741 490.811C909.234 493.963 907.988 498.149 906.523 501.08" stroke="black" stroke-width="5" stroke-linecap="round" stroke-linejoin="round"/>
<path d="M906.523 501.313C910.151 503.526 914.052 504.844 917.828 506.733C920.431 508.034 923.203 508.747 926.074 509.196C927.396 509.403 928.557 509.964 929.86 510.181" stroke="black" stroke-width="5" stroke-linecap="round" stroke-linejoin="round"/>
<path d="M930.093 510.648C927.227 515.235 920.561 517.582 915.624 518.816" stroke="black" stroke-width="5" stroke-linecap="round" stroke-linejoin="round"/>
<path d="M915.624 519.283C918.347 521.346 921.238 522.288 924.583 522.783C926.768 523.107 929.775 523.632 931.377 525.234C933.163 527.02 932.296 529.253 930.975 530.952C928.888 533.635 924.41 534.544 921.303 534.906C917.639 535.333 913.953 534.982 910.283 535.269C908.415 535.415 906.529 535.619 904.656 535.619" stroke="black" stroke-width="5" stroke-linecap="round" stroke-linejoin="round"/>
<path d="M895.087 491.511C890.771 491.612 886.78 492.641 882.952 494.597C879.992 496.11 875.873 498.435 874.317 501.546" stroke="black" stroke-width="5" stroke-linecap="round" stroke-linejoin="round"/>
<path d="M874.317 502.48C876.831 504.175 879.506 504.55 882.355 505.28C884.475 505.824 886.685 506.212 888.864 506.395C892.307 506.685 895.724 506.214 899.055 506.214" stroke="black" stroke-width="5" stroke-linecap="round" stroke-linejoin="round"/>
<path d="M895.321 491.978C897.298 494.667 898.588 498.901 898.588 502.247C898.588 503.208 898.164 505.959 897.188 506.447" stroke="black" stroke-width="5" stroke-linecap="round" stroke-linejoin="round"/>
<path d="M894.854 491.978C891.607 494.529 888.923 496.548 888.034 500.794C887.783 501.997 887.888 502.999 888.073 504.204C888.187 504.947 888.553 505.689 888.553 506.447" stroke="black" stroke-width="5" stroke-linecap="round" stroke-linejoin="round"/>
<path d="M508.846 742.979C508.043 737.962 505.753 733.805 501.832 730.52C496.759 726.27 489.673 724.012 483.269 722.807C478.529 721.916 473.808 721.033 469.057 720.197C462.073 718.969 455.112 718.479 448.041 718.18C440.424 717.857 432.763 717.991 425.154 718.404C417.922 718.796 410.742 718.642 403.533 719.485C398.307 720.096 393.167 720.795 388.002 721.805C383.142 722.756 378.205 723.333 373.434 724.732C368.793 726.094 364.597 727.687 360.659 730.52C356.007 733.866 352.621 738.567 349.848 743.559C347.205 748.317 347.025 753.335 347.29 758.668C347.56 764.096 348.643 769.789 351.39 774.541C354.301 779.576 357.805 783.334 362.887 786.262C367.435 788.882 372.124 790.578 377.138 792.049C386.801 794.885 396.698 796.816 406.565 798.747C416.103 800.613 425.85 800.502 435.49 799.881C445.097 799.261 454.641 797.805 464.258 797.204C470.09 796.84 475.541 795.749 481.252 794.62C487.486 793.388 492.668 790.64 498.246 787.646C507.77 782.533 513.517 772.23 513.816 761.621C513.969 756.207 513.767 750.035 511.878 744.877C510.71 741.687 508.551 737.701 506.13 735.279C504.931 734.08 503.986 732.362 502.438 731.588" stroke="black" stroke-width="5" stroke-linecap="round" stroke-linejoin="round"/>
<path d="M347 758.404C349.306 758.404 349.92 758.748 350.902 760.909C351.783 762.847 352.774 764.613 353.882 766.42C355.319 768.764 357.675 769.966 360.289 770.401C361.198 770.553 362.021 770.98 362.821 770.349C363.816 769.562 365.021 768.859 365.853 767.896C368.096 765.3 370.177 761.159 374.238 762.082C375.408 762.348 375.382 765.121 375.53 766.051C375.866 768.166 376.048 770.93 376.954 772.88C377.976 775.081 379.465 776.565 381.515 777.837C383.41 779.013 384.787 777.954 386.103 776.44C387.62 774.696 388.887 772.973 390.217 771.1C391.517 769.268 393.37 767.29 395.477 766.407C399.355 764.78 402.352 768.577 404.179 771.469C405.625 773.76 406.982 777.28 409.36 778.76C412.048 780.433 416.4 780.517 419.221 779.235C424.788 776.704 424.361 768.386 431.008 767.132C437.177 765.968 438.641 773.338 442.293 776.769C445.395 779.683 450.154 781.747 454.212 782.741C459.591 784.059 463.531 780.532 466.103 776.11C466.781 774.946 467.318 773.817 467.554 772.484C467.835 770.898 467.651 769.081 468.318 767.58C469.189 765.622 473.828 765.265 475.49 766.051C477.8 767.142 479.368 768.672 481.107 770.52C482.16 771.639 483.165 773.049 484.403 773.961C485.852 775.029 487.919 775.562 489.65 775.965C492.201 776.559 495.287 774.742 496.374 772.524C497.674 769.871 497.493 767.558 497.705 764.693C497.85 762.74 498.586 762.175 500.408 761.726C502.94 761.102 504.652 762.16 506.723 763.506C507.784 764.196 509.466 765.431 510.85 764.996C512.331 764.53 514.06 761.525 514.304 760.065" stroke="black" stroke-width="5" stroke-linecap="round" stroke-linejoin="round"/>
<path d="M401.107 745.589C403.481 750.963 411.045 752.439 416.044 754.106C419.164 755.146 422.781 755.596 426.024 756.136C430.124 756.82 434.314 756.72 438.444 756.506C441.861 756.328 445.437 756.142 448.701 755.082C451.837 754.062 454.677 753.018 457.587 751.522C459.848 750.359 462.377 749.034 463.994 747.013" stroke="black" stroke-width="5" stroke-linecap="round" stroke-linejoin="round"/>
<path d="M400.87 745.352C401.834 740.335 407.413 736.276 412.155 735.253C419.542 733.66 427.192 733.465 434.673 734.686C439.095 735.408 443.279 736.193 447.567 737.468C449.82 738.138 452.041 738.596 454.133 739.656C456.793 741.006 459.668 742.468 461.99 744.35C462.525 744.783 463.12 745.413 463.282 746.064" stroke="black" stroke-width="5" stroke-linecap="round" stroke-linejoin="round"/>
<path d="M410.362 751.759C411.921 748.41 416.732 747.353 420.131 746.908C427.407 745.955 434.287 746.225 441.502 747.606C445.05 748.286 448.016 748.739 450.836 750.995C451.247 751.323 451.298 751.909 451.548 752.366C452.017 753.221 452.537 754.034 453.078 754.844" stroke="black" stroke-width="5" stroke-linecap="round" stroke-linejoin="round"/>
<path d="M333.316 403.547C330.279 403.008 326.805 403.829 325.043 406.587C323.041 409.72 323.588 413.88 324.239 417.325C324.914 420.893 327.415 422.243 330.428 423.872C334.665 426.164 339.837 426.599 344.531 427.292C349.74 428.06 354.787 429.017 360.068 429.159C366.353 429.329 372.699 430.65 379.003 430.082C381.921 429.82 384.808 428.813 387.547 427.9C388.91 427.446 390.482 427.297 391.901 427.151C393.927 426.942 395.946 426.529 397.959 426.217C402.305 425.543 406.606 424.759 410.901 423.872C412.578 423.526 414.281 423.398 415.895 422.786C417.413 422.21 418.849 421.259 420.184 420.343C422.816 418.538 424.949 416.529 426.535 413.753C428.086 411.039 428.114 407.974 427.708 404.926C427.215 401.234 423.54 399.262 420.368 398.314C417.389 397.424 414.294 396.982 411.183 397.109C408.932 397.201 406.471 398.049 404.452 399.009C403.865 399.288 402.934 399.593 402.497 400.03" stroke="black" stroke-width="5" stroke-linecap="round" stroke-linejoin="round"/>
<path d="M351.686 380.487C348.88 380.247 345.144 380.305 342.74 382.007C341.216 383.085 339.886 385.015 338.994 386.632C337.429 389.468 335.856 392.224 335.856 395.535C335.856 396.78 335.899 397.971 336.095 399.205C336.399 401.116 337.888 402.419 339.363 403.526C341.64 405.233 344.783 406.6 347.582 407.022C349.34 407.287 350.98 407.822 352.772 407.999C354.976 408.217 357.199 408.296 359.406 408.422C363.313 408.646 367.124 409.227 371.033 408.781C374.767 408.354 378.518 408.284 382.151 407.174C385.866 406.038 389.485 404.689 393.225 403.634C394.49 403.278 395.489 402.654 396.635 402.082C398.149 401.325 399.766 400.697 401.173 399.747C403.702 398.04 406.173 394.624 406.601 391.518C406.782 390.206 407.383 388.939 407.383 387.62C407.383 386.371 407.211 385.148 407.188 383.918C407.144 381.592 406.577 380.069 405.331 378.153C403.398 375.179 401.425 374.316 398.003 373.354C393.929 372.208 389.414 371.556 386.32 368.414C385.335 367.413 384.586 366.168 383.715 365.07C382.496 363.535 381.164 362.053 380.349 360.249C378.849 356.932 379.437 353.504 379.437 350" stroke="black" stroke-width="5" stroke-linecap="round" stroke-linejoin="round"/>
<path d="M379.241 350.195C376.53 351.551 373.363 352.459 371.229 354.734C368.674 357.457 365.844 359.984 363.564 362.942C359.348 368.41 354.422 374.466 354.422 381.659" stroke="black" stroke-width="5" stroke-linecap="round" stroke-linejoin="round"/>
<path d="M404.843 433.057C403.234 434.692 401.772 436.459 400.174 438.105C399.462 438.839 397.19 440.453 397.047 441.569C396.95 442.324 402.364 443.813 402.899 444.033C404.718 444.782 407.027 445.514 408.556 446.737" stroke="black" stroke-width="5" stroke-linecap="round" stroke-linejoin="round"/>
<path d="M368.297 438.92C366.771 437.429 364.466 436.166 362.228 436.39C360.023 436.611 359.106 438.912 358.721 440.744C357.987 444.246 361.611 448.281 364.888 445.456C366.363 444.185 367.878 441.811 367.32 439.745C367.151 439.119 366.843 438.334 366.104 438.334C365.207 438.334 364.159 438.526 363.759 439.419C363.284 440.48 362.649 444.804 364.693 444.967C366.469 445.109 367.689 443.034 367.689 441.46C367.689 439.342 365.08 438.902 363.499 438.92C362.186 438.935 361.91 439.32 361.664 440.614C361.417 441.911 361.434 443.522 362.174 444.685C363.436 446.668 364.628 445.167 365.561 443.806C366.279 442.758 367.457 440.682 366.343 439.506C364.77 437.845 360.024 437.411 359.308 440.277C359.136 440.964 358.405 441.677 358.569 442.438C358.83 443.642 359.803 444.377 360.48 445.326C361.027 446.091 361.996 446.614 362.717 447.204C363.149 447.557 365.251 447.162 365.713 446.889C368.09 445.484 369.45 442.756 369.655 439.995C370.002 435.303 363.932 435.153 360.882 436.488C355.686 438.761 358.574 447.645 363.064 449.039C363.785 449.262 365.47 448.894 366.137 448.594C367.475 447.992 368.151 446.639 368.775 445.391C370.349 442.244 369.244 438.896 366.387 437.161C364.56 436.052 360.706 436.755 358.917 437.791C357.313 438.72 356.685 441.788 357.256 443.502C358.511 447.267 362.488 449.392 366.343 448.691C368.264 448.342 370.031 446.278 370.241 444.392C370.524 441.846 370.78 439.821 368.536 438.138C367.218 437.149 364.635 436.48 363.075 437.226C361.898 437.789 361.239 439.584 360.687 440.69C359.909 442.244 361.02 444.152 362.369 445.011C363.649 445.825 365.441 445.868 366.213 444.392C366.654 443.548 367.093 441.847 366.191 441.156C362.969 438.688 361.045 444.809 364.15 446.411C366.522 447.635 368.617 442.129 366.354 441.113C364.961 440.488 362.968 440.64 362.131 442.047C361.056 443.851 362.749 446.441 364.497 447.106C366.478 447.859 366.845 444.932 366.875 443.632C366.928 441.348 365.952 439.349 363.813 438.399C361.895 437.546 360.944 438.286 361.62 440.375C362.124 441.929 363.297 443.055 364.943 442.372C366.295 441.811 367.859 440.846 368.059 439.267C368.152 438.531 367.801 437.198 366.886 438.16C366.402 438.669 365.36 441.239 366.235 441.808C366.938 442.265 367.796 440.719 367.863 440.244C368.237 437.584 363.594 436.151 363.488 439.756C363.462 440.634 363.955 444.368 365.507 443.925C367.069 443.479 367.642 441.495 367.505 440.06C367.421 439.176 365.93 440.644 365.8 440.809C365.585 441.084 363.998 444.723 364.91 444.696C367.666 444.615 369.588 439.827 365.67 439.951C361.151 440.095 365.207 447.505 367.147 443.48C367.602 442.534 367.1 441.039 367.668 440.244C367.958 439.838 368.108 439.426 368.341 439.007C368.659 438.434 369.073 440.304 369.09 440.396C369.289 441.491 369.759 442.269 369.655 443.415C369.529 444.801 367.879 445.211 366.908 445.912C366.259 446.381 365.547 445.955 364.78 445.955" stroke="black" stroke-width="5" stroke-linecap="round" stroke-linejoin="round"/>
<path d="M326.671 422.308C325.311 422.625 324.057 423.415 322.774 423.97C321.619 424.468 320.462 425.088 319.636 426.065C317.613 428.456 316.276 431.604 315.532 434.62C314.37 439.331 315.151 444.825 317.486 448.995C318.845 451.421 320.56 453.914 322.936 455.499C324.178 456.326 325.563 456.903 326.91 457.529C328.634 458.33 330.253 459.363 332.046 460.015C339.705 462.8 347.774 463.367 355.812 464.13C361.501 464.67 367.184 464.882 372.901 464.912C378.988 464.944 385.029 465.694 391.119 465.694C397.29 465.694 403.315 464.748 409.403 463.891C415.806 462.99 421.865 461.038 427.99 458.951C437.108 455.845 444.975 448.597 445.676 438.54C445.905 435.265 445.229 432.326 444.406 429.192C443.642 426.285 442.947 423.647 441.171 421.147C439.48 418.767 436.567 417.241 434.157 415.664C432.204 414.386 430.038 413.29 427.903 412.342" stroke="black" stroke-width="5" stroke-linecap="round" stroke-linejoin="round"/>
<path d="M377.287 451.427C379.353 453.677 382.705 455.391 385.81 455.412C388.969 455.433 390.778 452.786 392.335 450.45" stroke="black" stroke-width="5" stroke-linecap="round" stroke-linejoin="round"/>
</svg>
