<svg width="1443" height="777" viewBox="0 0 1443 777" fill="none" xmlns="http://www.w3.org/2000/svg">
<path d="M93.1395 106.351C93.3069 113.044 99.8537 114.53 104.614 117.825C111.914 122.879 126.598 122.178 134.994 122.178C147.485 122.178 159.645 118.704 170.342 112.286C173.747 110.243 178.857 108.449 180.806 104.768C181.742 103 179.715 100.306 178.608 98.6127C174.747 92.7081 166.87 89.2278 160.362 87.7094C154.186 86.2683 147.693 85.4769 141.413 86.3904C137.902 86.9011 134.608 87.1694 131.125 87.9732C129.985 88.2364 127.476 87.5867 126.553 88.3249C122.615 91.4751 114.333 91.8973 109.407 93.6886C104.941 95.3125 99.2573 98.8632 97.0964 103.185" stroke="#f0f0f5" stroke-width="5" stroke-linecap="round" stroke-linejoin="round"/>
<path d="M95.305 104.768C93.8647 112.33 95.0194 119.675 95.305 127.102C95.456 131.026 95.5025 135.124 96.2723 138.973C97.3715 144.469 100.139 149.386 101.636 154.624C103.422 160.876 112.789 166.607 118.255 169.484C124.393 172.715 131.879 175.2 138.83 175.2C144.152 175.2 149.812 174.809 154.658 172.386C158.946 170.242 162.055 167.803 165.385 164.472C169.078 160.78 170.406 154.94 173.035 150.491C178.379 141.448 180.058 130.044 181.52 119.804C182.286 114.445 180.773 109.303 180.773 103.976" stroke="#f0f0f5" stroke-width="5" stroke-linecap="round" stroke-linejoin="round"/>
<path d="M180.773 115.847C186.033 115.847 189.224 117.508 192.468 121.562C193.871 123.316 194.126 129.322 193.039 131.279C191.242 134.514 189.795 136.423 185.917 136.423C183.153 136.423 178.2 134.74 178.399 134.84" stroke="#f0f0f5" stroke-width="5" stroke-linecap="round" stroke-linejoin="round"/>
<path d="M100.053 153.041C92.6521 153.222 86.7989 155.717 81.8517 160.955C78.155 164.869 80.8354 171.528 82.643 175.595C85.8807 182.88 95.5422 185.028 102.383 187.422C110.494 190.261 120.478 191.027 128.982 191.027C136.318 191.027 143.592 190.351 150.877 190.236C154.792 190.174 158.862 190.606 162.747 190.06C166.596 189.519 170.26 187.943 174.09 187.246C185.487 185.174 190.063 177.389 193.831 167.594C194.318 166.327 193.661 161.181 193.039 159.812C191.823 157.136 189.241 154.844 186.708 153.437C183.028 151.392 177.771 152.25 173.651 152.25" stroke="#f0f0f5" stroke-width="5" stroke-linecap="round" stroke-linejoin="round"/>
<path d="M858.224 187C852.745 187.368 847.167 187.726 841.81 189.023C834.857 190.706 828.555 194.505 822.881 198.798C812.763 206.454 804.865 218.196 800.347 229.993C799.422 232.408 798.759 234.824 798.143 237.331C797.084 241.642 795.75 245.882 795.317 250.322C794.453 259.174 795.455 268.631 797.132 277.341C798.523 284.564 800.107 291.779 802.837 298.63C805.563 305.472 809.78 311.539 814.635 317.041C822.545 326.006 833.024 331.032 844.066 335.088C851.597 337.855 859.091 339.388 867.092 340.041C875.087 340.693 883.369 341.343 891.363 340.404C899.755 339.418 907.417 337.16 913.948 331.64C916.594 329.403 919.07 326.952 921.65 324.638C923.44 323.033 925.264 321.322 926.654 319.349C928.489 316.746 930.372 314.03 931.892 311.232C932.917 309.346 933.249 307.394 933.655 305.32C934.297 302.041 935.055 298.842 935.47 295.519" stroke="#f0f0f5" stroke-width="5" stroke-linecap="round" stroke-linejoin="round"/>
<path d="M857.29 187.467C855.407 188.956 853.681 190.601 851.793 192.082C848.858 194.387 846.883 197.811 845.285 201.132C842.099 207.748 840.294 214.22 839.554 221.539C838.913 227.873 838.782 234.253 839.917 240.546C840.299 242.665 841.285 245.022 842.458 246.834C842.748 247.282 843.055 247.836 843.055 248.377" stroke="#f0f0f5" stroke-width="5" stroke-linecap="round" stroke-linejoin="round"/>
<path d="M934.77 295.285C932.485 298.06 928.497 299.64 925.422 301.236C919.245 304.444 912.716 304.856 905.91 305.139C901.328 305.329 897.183 304.702 892.659 304.063C888.605 303.49 884.776 302.512 881.043 300.769C878.697 299.675 876.531 298.035 874.093 297.152C873.117 296.799 872.272 296.498 871.526 295.752" stroke="#f0f0f5" stroke-width="5" stroke-linecap="round" stroke-linejoin="round"/>
<path d="M842.355 247.21C843.183 248.304 843.491 248.482 844.662 248.792C845.581 249.035 847.052 249.148 847.774 249.726C848.45 250.266 849.58 250.31 850.289 250.944C850.946 251.532 851.341 251.966 851.741 252.811C853.234 255.963 851.988 260.149 850.523 263.08" stroke="#f0f0f5" stroke-width="5" stroke-linecap="round" stroke-linejoin="round"/>
<path d="M850.523 263.313C854.151 265.526 858.052 266.844 861.828 268.733C864.431 270.034 867.203 270.747 870.074 271.196C871.396 271.403 872.557 271.964 873.86 272.181" stroke="#f0f0f5" stroke-width="5" stroke-linecap="round" stroke-linejoin="round"/>
<path d="M874.093 272.648C871.227 277.235 864.561 279.582 859.624 280.816" stroke="#f0f2f5" stroke-width="5" stroke-linecap="round" stroke-linejoin="round"/>
<path d="M859.624 281.283C862.347 283.346 865.238 284.288 868.583 284.783C870.768 285.107 873.775 285.632 875.377 287.234C877.163 289.02 876.296 291.253 874.975 292.952C872.888 295.635 868.41 296.544 865.303 296.906C861.639 297.333 857.953 296.982 854.283 297.269C852.415 297.415 850.529 297.619 848.656 297.619" stroke="#f0f0f5" stroke-width="5" stroke-linecap="round" stroke-linejoin="round"/>
<path d="M839.087 253.511C834.771 253.612 830.78 254.641 826.952 256.597C823.992 258.11 819.873 260.435 818.317 263.546" stroke="#f0f0f5" stroke-width="5" stroke-linecap="round" stroke-linejoin="round"/>
<path d="M818.317 264.48C820.831 266.175 823.506 266.55 826.355 267.28C828.475 267.824 830.685 268.212 832.864 268.395C836.307 268.685 839.724 268.214 843.055 268.214" stroke="#f0f0f5" stroke-width="5" stroke-linecap="round" stroke-linejoin="round"/>
<path d="M839.321 253.978C841.298 256.667 842.588 260.901 842.588 264.247C842.588 265.208 842.164 267.959 841.188 268.447" stroke="#f0f0f5" stroke-width="5" stroke-linecap="round" stroke-linejoin="round"/>
<path d="M838.854 253.978C835.607 256.529 832.923 258.548 832.034 262.794C831.783 263.997 831.888 264.999 832.073 266.204C832.187 266.947 832.553 267.689 832.553 268.447" stroke="#f0f0f5" stroke-width="5" stroke-linecap="round" stroke-linejoin="round"/>
<path d="M102.32 610.629C143.64 579.994 184.388 547.913 226.553 518.218" stroke="#f0f0f5" stroke-width="5" stroke-linecap="round" stroke-linejoin="round"/>
<path d="M224.331 518.553C220.611 517.967 215.117 518.19 211.727 516.366" stroke="#f0f0f5" stroke-width="5" stroke-linecap="round" stroke-linejoin="round"/>
<path d="M225.488 520.197C223.87 523.747 220.714 527.711 221.322 531.736" stroke="#f0f0f5" stroke-width="5" stroke-linecap="round" stroke-linejoin="round"/>
<path d="M102.563 609.228C99.3527 609.179 93.6089 608.158 90.8728 610.085" stroke="#f0f0f5" stroke-width="5" stroke-linecap="round" stroke-linejoin="round"/>
<path d="M110.78 603.441C105.236 603.357 101.224 602.504 95.9536 601.59" stroke="#f0f0f5" stroke-width="5" stroke-linecap="round" stroke-linejoin="round"/>
<path d="M119.819 597.075C115.796 596.875 110.943 595.362 107.458 593.487" stroke="#f0f0f5" stroke-width="5" stroke-linecap="round" stroke-linejoin="round"/>
<path d="M88.8935 609.02C94.5351 605.047 102.746 600.257 105.236 593.823" stroke="#f0f0f5" stroke-width="5" stroke-linecap="round" stroke-linejoin="round"/>
<path d="M101.498 611.208C102.546 615.461 103.913 618.071 103.176 622.319" stroke="#f0f0f5" stroke-width="5" stroke-linecap="round" stroke-linejoin="round"/>
<path d="M108.894 605.999C109.046 608.301 110.286 614.795 109.172 616.867" stroke="#f0f0f5" stroke-width="5" stroke-linecap="round" stroke-linejoin="round"/>
<path d="M117.933 599.633C118.322 604.249 119.97 608.651 117.146 612.48" stroke="#f0f0f5" stroke-width="5" stroke-linecap="round" stroke-linejoin="round"/>
<path d="M103.998 621.74C108.19 618.788 111.556 615.188 115.746 612.237" stroke="#f0f0f5" stroke-width="5" stroke-linecap="round" stroke-linejoin="round"/>
<path d="M1135 301.832C1116.94 293.055 1099.17 290.216 1079.92 296.874C1063.45 302.573 1054.63 316.288 1047.42 331.133C1035.98 354.667 1037.31 383.864 1045.7 408.103" stroke="#f0f0f5" stroke-width="5" stroke-linecap="round" stroke-linejoin="round"/>
<path d="M1134.2 301.442C1150.75 309.483 1154.92 330.879 1151.64 347.583C1150.04 355.774 1149.27 364.245 1145.56 371.884C1143.54 376.037 1142.34 380.996 1140.02 385.326C1137.33 390.355 1132.46 394.313 1129.37 399.202C1127.1 402.796 1124.33 405.287 1120.78 407.473C1117.91 409.238 1112.91 414.828 1109.66 415.175C1103.42 415.841 1097.85 420.592 1091.5 420.941C1086.59 421.21 1078.21 423.165 1073.99 425.813C1071.14 427.594 1066.45 426.863 1063.24 427.973C1059.72 429.193 1056 429.886 1052.34 431.153" stroke="#f0f0f5" stroke-width="5" stroke-linecap="round" stroke-linejoin="round"/>
<path d="M1045.7 408.103C1047.34 413.096 1050.22 420.116 1050.28 425.196" stroke="#f0f0f5" stroke-width="5" stroke-linecap="round" stroke-linejoin="round"/>
<path d="M1050.32 429.183C1048.48 430.821 1045.9 432.162 1044.8 434.428" stroke="#f0f0f5" stroke-width="5" stroke-linecap="round" stroke-linejoin="round"/>
<path d="M1044.41 435.23C1046.1 436.5 1047.73 437.834 1049.63 438.759" stroke="#f0f0f5" stroke-width="5" stroke-linecap="round" stroke-linejoin="round"/>
<path d="M1050.35 431.176C1050.93 434.097 1051.64 437.017 1052.04 439.928" stroke="#f0f0f5" stroke-width="5" stroke-linecap="round" stroke-linejoin="round"/>
<path d="M1050.35 431.176C1054.05 433.902 1056.94 435.556 1056.03 440.326C1055.06 445.418 1055.85 448.59 1050.88 451.26C1042.45 455.789 1035.64 458.759 1029.3 466.324C1025.41 470.965 1026.44 475.328 1027.18 480.767C1028.66 491.54 1014.61 492.807 1012.79 502.35C1011.49 509.17 1012.56 518.885 1005.65 522.943C1002.14 525.002 993.083 527.306 992.479 531.908" stroke="#f0f0f5" stroke-width="5" stroke-linecap="round" stroke-linejoin="round"/>
<path d="M1135.5 310.996C1133.26 310.4 1129.94 308.73 1127.92 310.285" stroke="#f0f0f5" stroke-width="5" stroke-linecap="round" stroke-linejoin="round"/>
<path d="M1134.31 311.408C1140.97 321.933 1143.22 334.59 1140.43 346.757C1138.32 355.95 1134.42 362.185 1130.59 370.061" stroke="#f0f0f5" stroke-width="5" stroke-linecap="round" stroke-linejoin="round"/>
<path d="M1125.54 311.109C1128.94 315.117 1131.1 321.204 1131.73 326.456C1132.56 333.314 1133.84 341.013 1132.93 347.906C1131.97 355.256 1133.1 362.861 1129.79 369.671" stroke="#f0f0f5" stroke-width="5" stroke-linecap="round" stroke-linejoin="round"/>
<path d="M528.497 184.967C543.031 189.812 556.88 196.77 571.485 201.264C583.811 205.057 596.867 208.795 609.318 211.907" stroke="#f0f0f5" stroke-width="5" stroke-linecap="round" stroke-linejoin="round"/>
<path d="M527.748 185.715C527.748 177.563 531.461 174.001 538.974 171.497" stroke="#f0f0f5" stroke-width="5" stroke-linecap="round" stroke-linejoin="round"/>
<path d="M540.47 170C548.597 172.955 557.322 173.418 565.498 176.361C574.8 179.709 584.729 180.974 593.977 184.593C604.593 188.747 615.838 190.383 626.53 193.947" stroke="#f0f0f5" stroke-width="5" stroke-linecap="round" stroke-linejoin="round"/>
<path d="M628.775 196.192C618.562 196.192 608.57 202.332 608.57 213.404" stroke="#f0f0f5" stroke-width="5" stroke-linecap="round" stroke-linejoin="round"/>
<path d="M527 187.212C527 201.882 528.207 216.786 529.827 231.364C532.635 256.636 531.49 282.306 531.49 307.695" stroke="#f0f0f5" stroke-width="5" stroke-linecap="round" stroke-linejoin="round"/>
<path d="M532.238 308.444C540.694 313.556 549.692 315.771 559.137 318.505C566.699 320.694 574.006 323.723 581.629 325.656C594.522 328.924 606.343 335.315 619.046 339.126" stroke="#f0f0f5" stroke-width="5" stroke-linecap="round" stroke-linejoin="round"/>
<path d="M610.06 215.152C612.222 226.505 610.652 238.803 610.808 250.325C611.031 266.824 611.906 284.033 613.427 300.464C614.071 307.414 614.708 314.367 615.88 321.251C616.251 323.43 615.327 326.558 616.42 328.527C617.262 330.041 616.495 331.927 616.961 333.557C617.596 335.779 618.291 338.557 618.291 340.874" stroke="#f0f0f5" stroke-width="5" stroke-linecap="round" stroke-linejoin="round"/>
<path d="M631.02 197.689C631.02 203.079 632.517 208.031 632.517 213.238C632.517 218.332 632.576 224.756 633.307 229.868C634.639 239.197 635.51 249.589 635.51 259.053C635.51 282.201 640 304.778 640 327.901" stroke="#f0f0f5" stroke-width="5" stroke-linecap="round" stroke-linejoin="round"/>
<path d="M638.503 328.649C632.326 328.649 630.403 329.266 626.156 333.513C623.674 335.994 620.543 339.113 620.543 342.868" stroke="#f0f0f5" stroke-width="5" stroke-linecap="round" stroke-linejoin="round"/>
<path d="M544.212 224.629C546.306 226.265 547.382 229.946 550.199 228.537C552.82 227.227 553.501 228.264 555.271 230.034C556.791 231.554 559.731 229.561 561.258 230.782C563.253 232.378 564.204 233.672 567.244 232.695C571.887 231.202 570.247 233.093 574.146 234.94C575.535 235.598 577.866 234.607 579.218 234.191C580.459 233.809 580.719 234.994 581.629 235.854C584.14 238.225 585.819 236.603 588.946 236.603C592.114 236.603 591.649 239.19 595.099 236.603" stroke="#f0f0f5" stroke-width="5" stroke-linecap="round" stroke-linejoin="round"/>
<path d="M550.199 275.517C551.158 276.215 552.924 278.029 554.315 277.72C554.925 277.584 555.521 276.847 556.185 277.18C557.867 278.02 557.959 280.185 560.301 278.884C561.997 277.942 562.616 279.372 564.043 280.007C566.343 281.029 568.84 280.936 571.152 279.84C573.817 278.578 578.964 279.481 580.881 281.878C581.798 283.024 591.031 282.904 591.358 282.252" stroke="#f0f0f5" stroke-width="5" stroke-linecap="round" stroke-linejoin="round"/>
<path d="M557.682 254.563C561.121 253.961 562.765 255.685 565.623 257.224C568.434 258.737 571.189 258.979 572.649 256.06" stroke="#f0f0f5" stroke-width="5" stroke-linecap="round" stroke-linejoin="round"/>
<path d="M456.465 518.18C448.315 521.761 439.944 523.215 430.962 523.297C425.491 523.346 420.035 522.759 414.579 522.468C409.648 522.204 404.286 521.803 399.489 520.65" stroke="#f0f0f5" stroke-width="5" stroke-linecap="round" stroke-linejoin="round"/>
<path d="M456.439 515.249C453.75 507.951 450.739 500.896 449.002 493.241C447.634 487.214 445.62 480.998 443.447 475.232C440.887 468.444 434.043 463.121 427.005 461.955C424.596 461.556 422.056 461.07 419.631 460.882C417.998 460.754 416.08 460.109 414.748 461.251C412.947 462.797 411.409 464.757 409.692 466.418C405.891 470.095 404.261 476.68 403.208 481.694C401.572 489.481 399.829 497.135 397.899 504.868C397.212 507.618 396.467 510.666 396.493 513.512C396.506 514.988 395.354 519.926 396.884 520.674" stroke="#f0f0f5" stroke-width="5" stroke-linecap="round" stroke-linejoin="round"/>
<path d="M396.52 516.443C394.07 516.073 390.946 516.048 388.672 515.03C385.586 513.649 382.395 512.457 379.282 511.134C376.285 509.861 373.262 508.736 370.362 507.234C369.331 506.7 366.49 506.084 365.872 504.995C362.367 498.818 361.5 493.18 365.055 486.69C368.558 480.295 372.122 473.068 377.188 467.762C379.286 465.565 381.569 463.519 384.303 462.16C388.739 459.956 393.484 460.154 398.298 460.984C402.08 461.637 404.154 465.563 408.11 465.528" stroke="#f0f0f5" stroke-width="5" stroke-linecap="round" stroke-linejoin="round"/>
<path d="M459.727 513.609C467.819 513.536 475.383 509.985 482.463 506.563C486.081 504.815 489.337 503.715 490.704 499.486C491.765 496.205 491.008 493.171 490.527 489.879C490.035 486.516 489.431 482.027 487.732 479.012C485.547 475.135 482.434 472.159 478.549 470.047C477.631 469.548 476.791 468.478 475.852 467.864C474.143 466.747 472.579 465.84 470.688 465.124C468.812 464.414 466.348 464.311 464.663 463.261C463.936 462.807 462.611 462.321 461.794 462.056C458.807 461.091 455.646 462.394 452.922 463.512C450.491 464.51 447.552 465.11 445.662 467.052C444.034 468.724 443.89 472.164 442.1 473.381" stroke="#f0f0f5" stroke-width="5" stroke-linecap="round" stroke-linejoin="round"/>
<path d="M492.806 491.808C494.417 490.466 495.238 488.419 496.143 486.567C496.777 485.269 497.506 483.792 498.078 482.46C498.95 480.429 500.698 477.361 500.798 475.125C500.973 471.237 501.259 466.616 499.548 462.94C498.063 459.75 492.976 458.159 489.958 456.983C487.67 456.092 485.741 454.669 483.362 453.949C480.746 453.157 477.981 453.259 475.457 454.256C473.502 455.028 472.212 458.498 470.769 460.016C469.778 461.058 468.935 463.771 467.804 464.349" stroke="#f0f0f5" stroke-width="5" stroke-linecap="round" stroke-linejoin="round"/>
<path d="M362.457 495.58C352.076 493.454 346.526 483.918 343.376 474.582C341.957 470.375 341.091 465.904 341.557 461.461C341.886 458.315 343.59 453.706 346.429 451.936C349.734 449.874 352.386 446.219 356.528 448.243C358.388 449.153 359.351 450.36 360.938 451.605C363.17 453.359 366.089 453.992 368.125 455.992C369.859 457.695 371.37 459.919 373.563 461.099C375.137 461.946 376.826 462.564 378.13 463.845" stroke="#f0f0f5" stroke-width="5" stroke-linecap="round" stroke-linejoin="round"/>
<path d="M496.054 458.841C497.027 452.25 495.148 446.726 493.463 440.462C492.762 437.856 491.323 435.623 489.636 433.494C488.284 431.788 487.61 429.89 486.007 428.316C484.401 426.739 484.084 426.743 482.497 428.42C481.154 429.84 480.273 431.438 479.337 433.099C475.92 439.16 478.346 445.631 478.406 452.161" stroke="#f0f0f5" stroke-width="5" stroke-linecap="round" stroke-linejoin="round"/>
<path d="M350.625 447.808C350.591 444.017 351.424 438.925 348.87 435.791C347.729 434.391 344.024 431.793 342.848 434.199C341.471 437.016 340.38 440.005 340.233 443.161C340.021 447.715 340.344 452.202 340.591 456.729C340.69 458.546 340.235 460.642 341.31 462.224" stroke="#f0f0f5" stroke-width="5" stroke-linecap="round" stroke-linejoin="round"/>
<path d="M614.677 540.186C616.984 537.88 619.224 535.473 621.639 533.281C625.56 529.722 630.185 526.687 634.359 523.422C639.908 519.081 645.911 515.371 651.594 511.21C660.144 504.951 669.083 499.283 677.974 493.523C696.345 481.622 715.377 470.975 736.058 463.663C742.962 461.222 749.8 458.636 756.661 456.08C759.908 454.87 763.108 453.071 766.408 452.129" stroke="#f0f0f5" stroke-width="5" stroke-linecap="round" stroke-linejoin="round"/>
<path d="M764.714 452.806C775.442 450.451 786.465 446.216 797.642 448.817C803.51 450.183 808.179 458.845 809.157 464.321C809.843 468.161 808.96 471.377 808.066 475.046C807.168 478.733 805.44 480.605 802.496 483.099C799.524 485.619 796.959 487.583 792.976 487.69C791.798 487.722 790.616 487.69 789.438 487.69" stroke="#f0f0f5" stroke-width="5" stroke-linecap="round" stroke-linejoin="round"/>
<path d="M789.1 487.69C788.983 493.766 786.904 499.9 781.63 503.27C767.425 512.345 749.586 515.949 732.84 515.575C722.881 515.353 712.706 513.749 702.886 512.151C695.062 510.878 686.531 509.716 679.291 506.299C676.88 505.161 673.56 503.886 671.557 502.084C671.021 501.601 670.197 501.528 669.883 500.899" stroke="#f0f0f5" stroke-width="5" stroke-linecap="round" stroke-linejoin="round"/>
<path d="M809.421 469.74C809.908 471.963 810.496 474.085 810.945 476.326C811.38 478.501 811.114 480.921 811.114 483.137C811.114 486.111 810.906 489.337 810.455 492.263C809.378 499.264 805.588 504.708 802.308 510.721C800.918 513.271 798.93 514.934 796.814 516.893C795.217 518.371 793.407 519.489 791.64 520.712C790.324 521.623 788.71 523.049 787.218 523.591C785.402 524.251 783.723 525.456 781.987 526.3C779.723 527.402 777.257 528.664 775.138 530.026C771.559 532.327 767.019 532.81 763.021 533.921C758.815 535.089 754.528 535.785 750.301 536.63C746.845 537.321 742.977 537.138 739.464 537.138C736.356 537.138 733.375 536.461 730.281 536.461C726.771 536.461 723.25 536.426 719.82 535.802C717.797 535.435 715.606 535.834 713.573 535.37C710.984 534.778 708.382 534.445 705.783 533.94C702.48 533.297 698.905 533.72 695.642 532.905C691.666 531.911 687.863 531.165 683.938 529.857C680.202 528.611 676.204 528.158 672.329 527.58C669.487 527.156 666.977 526.078 664.2 525.284C662.37 524.761 660.474 523.628 658.894 522.575C657.24 521.472 654.821 520.721 653.457 519.357C651.579 517.479 649.383 515.569 647.191 514.108" stroke="#f0f0f5" stroke-width="5" stroke-linecap="round" stroke-linejoin="round"/>
<path d="M614 540.186C619.287 540.186 624.528 540.813 629.805 540.864C636.454 540.928 642.451 539.896 648.922 538.493C657.096 536.72 666.194 534.053 672.254 527.994" stroke="#f0f0f5" stroke-width="5" stroke-linecap="round" stroke-linejoin="round"/>
<path d="M791.47 464.321C790.328 465.105 787.444 466.82 787.444 468.555C787.444 469.17 788.71 469.932 789.024 470.418C789.993 471.915 792.092 471.578 793.427 470.756C794.493 470.101 795.745 468.257 794.518 467.031C793.831 466.344 791.818 464.981 790.793 465.413C789.227 466.072 787.968 465.96 788.083 468.047C788.142 469.095 789.818 470.418 790.793 470.418C795.084 470.418 789.582 463.58 789.777 468.649C789.832 470.092 792.377 469.867 793.164 469.326C794.418 468.464 792.087 467.041 791.47 466.767C790.094 466.156 788.846 467.384 790.116 468.724C790.873 469.524 792.724 470.543 792.825 468.724C792.941 466.637 791.892 467.269 790.53 466.278C789.646 465.635 788.268 466.838 789.024 467.783C789.871 468.842 789.066 470.756 791.132 470.756C793.424 470.756 791.413 468.667 790.793 468.047" stroke="#f0f0f5" stroke-width="5" stroke-linecap="round" stroke-linejoin="round"/>
<path d="M809.082 462.967C811.728 463.813 814.52 464.383 817.286 464.66C819.413 464.873 822.06 464.714 823.984 465.676" stroke="#f0f0f5" stroke-width="5" stroke-linecap="round" stroke-linejoin="round"/>
<path d="M811.114 476.853C814.261 474.42 817.274 472.137 820.221 469.458C821.449 468.342 824.314 467.725 825 466.353" stroke="#f0f0f5" stroke-width="5" stroke-linecap="round" stroke-linejoin="round"/>
<path d="M709.202 526.588C711.64 529.55 713.291 532.989 715.526 536.099C717.42 538.733 719.402 541.304 721.295 543.938C722.086 545.039 722.723 547.107 723.696 547.883" stroke="#f0f0f5" stroke-width="5" stroke-linecap="round" stroke-linejoin="round"/>
<path d="M723.667 548.22C721.719 550.732 719.258 552.574 717.198 554.956C716.283 556.015 715.518 557.631 714.307 558.297" stroke="#f0f0f5" stroke-width="5" stroke-linecap="round" stroke-linejoin="round"/>
<path d="M723.667 548.22C725.147 551.945 727.427 555.922 727.072 560.069" stroke="#f0f0f5" stroke-width="5" stroke-linecap="round" stroke-linejoin="round"/>
<path d="M723.667 548.22C728.118 549.825 732.987 550.925 737.638 551.795" stroke="#f0f0f5" stroke-width="5" stroke-linecap="round" stroke-linejoin="round"/>
<path d="M737 536C740.149 539.982 743.311 544.32 745.865 548.698" stroke="#f0f0f5" stroke-width="5" stroke-linecap="round" stroke-linejoin="round"/>
<path d="M746.104 548.938C744.807 551.069 743.477 553.172 741.552 554.794C740.589 555.605 739.816 556.06 739.635 557.323" stroke="#f0f0f5" stroke-width="5" stroke-linecap="round" stroke-linejoin="round"/>
<path d="M745.865 549.417C748.098 552.352 749.735 555.959 751.375 559.24" stroke="#f0f0f5" stroke-width="5" stroke-linecap="round" stroke-linejoin="round"/>
<path d="M745.865 549.177C750.613 549.177 755.275 550.251 760 550.615" stroke="#f0f0f5" stroke-width="5" stroke-linecap="round" stroke-linejoin="round"/>
<path d="M812.638 710.457C816.628 708.825 820.407 707.346 824.604 706.272C838.048 702.833 850.809 696.728 863.314 690.841C881.623 682.22 900.564 673.93 917.325 662.462C921.695 659.472 925.846 656.18 930.337 653.373" stroke="#f0f0f5" stroke-width="5" stroke-linecap="round" stroke-linejoin="round"/>
<path d="M812.638 712.811C822.304 707.057 834.435 705.003 845.201 702.153C863.717 697.252 881.657 690.809 899.048 682.765C909.89 677.751 918.927 670.402 929.16 664.555" stroke="#f0f0f5" stroke-width="5" stroke-linecap="round" stroke-linejoin="round"/>
<path d="M813.226 710.457C817.625 708.718 822.437 707.916 827.154 707.515C838.879 706.517 850.495 703.758 861.973 701.27C882.492 696.822 902.968 691.4 923.013 685.152C928.262 683.516 933.033 681.397 937.857 678.809C939.263 678.054 940.512 677.501 942.107 677.501" stroke="#f0f0f5" stroke-width="5" stroke-linecap="round" stroke-linejoin="round"/>
<path d="M816.757 710.457C822.353 709.408 827.82 709.315 833.497 709.28C844.344 709.213 855.047 707.611 865.798 706.338C883.903 704.194 902.208 703.674 920.202 700.649C931.538 698.743 945.004 697.067 955.054 691.037" stroke="#f0f0f5" stroke-width="5" stroke-linecap="round" stroke-linejoin="round"/>
<path d="M917.978 655.727C919.459 646.397 923.445 639.429 929.291 632.056C934.398 625.615 941.026 617.3 950.346 619.371C953.252 620.017 961.006 622.072 959.762 626.302C958.759 629.711 957.717 628.426 960.154 625.583C965.702 619.11 978.104 616.012 986.244 617.279C996.663 618.899 1006.33 630.234 1005.6 641.015C1004.89 651.555 989.867 653.863 981.601 653.962C981.481 653.963 978.827 653.849 980.196 653.112C982.084 652.095 985.698 653.546 987.421 654.223C997.541 658.199 1004.57 669.573 1002.79 680.444C1000.89 691.998 990.245 698.092 979.444 699.603C977.667 699.851 970.569 698.507 973.101 701.434C977.862 706.936 980.778 716.148 979.378 723.404C976.2 739.886 947.592 737.048 935.633 733.866C924.309 730.854 922.724 718.514 922.098 708.496C921.72 702.455 921.417 696.128 923.863 690.448C924.564 688.821 925.567 687.368 926.217 685.74" stroke="#f0f0f5" stroke-width="5" stroke-linecap="round" stroke-linejoin="round"/>
<path d="M934.456 654.55C938.811 648.329 947.507 641.951 955.381 646.573C959.256 648.848 964.303 656.632 960.939 660.958C960.32 661.754 959.55 661.909 960.743 661.743C962.711 661.468 964.864 662.046 966.464 663.214C968.032 664.358 969.8 666.907 969.374 669.001C968.981 670.93 965.935 670.865 964.47 671.028" stroke="#f0f0f5" stroke-width="5" stroke-linecap="round" stroke-linejoin="round"/>
<path d="M961.527 678.678C964.524 680.926 971.284 685.732 965.777 689.141C964.306 690.052 963.83 689.597 964.175 691.462C964.876 695.243 964.766 699.896 962.9 703.33C960.974 706.875 957.465 708.735 953.55 709.15C951.268 709.391 948.466 708.628 946.782 710.523C942.799 715.004 937.453 717.573 932.691 712.811" stroke="#f0f0f5" stroke-width="5" stroke-linecap="round" stroke-linejoin="round"/>
<path d="M813.226 713.988C819.76 713.988 826.027 713.616 832.516 712.811C840.92 711.768 849.497 712.232 857.952 711.765C869.878 711.107 881.805 710.755 893.719 709.869C900.781 709.344 909.156 709.572 915.624 706.338" stroke="#f0f0f5" stroke-width="5" stroke-linecap="round" stroke-linejoin="round"/>
<path d="M765.04 682.052C774.698 678.527 782.966 679.633 792.358 683.227C798.459 685.561 802.89 690.847 806.779 695.985C811.462 702.173 814.064 708.891 814.723 716.687C815.728 728.59 811.367 737.448 806.134 747.743C802.335 755.215 794.756 762.791 787.59 766.953C780.367 771.148 772.476 774.662 763.976 774.241C760.218 774.055 755.518 774.333 752.486 771.836" stroke="#f0f0f5" stroke-width="5" stroke-linecap="round" stroke-linejoin="round"/>
<path d="M809.133 743.736C826.148 742.149 842.721 734.603 853.826 721.241C863.397 709.724 864.1 694.922 858.199 681.548C852.872 669.476 848.11 659.166 837.047 651.109C826.939 643.748 815.613 640.135 803.214 640.954C796.79 641.378 791.15 642.505 784.897 643.599" stroke="#f0f0f5" stroke-width="5" stroke-linecap="round" stroke-linejoin="round"/>
<path d="M1279.52 397.069C1281.86 400.692 1285.2 403.017 1288.89 405.151C1292.69 407.349 1296.52 408.883 1300.7 410.207C1305.1 411.602 1309.49 412.971 1314.04 413.798C1318.76 414.656 1323.34 414.65 1328.13 414.65C1335.32 414.65 1342.43 414.037 1349.55 413.175C1352.89 412.772 1356.25 412.279 1359.5 411.433C1363.79 410.318 1367.9 408.425 1371.97 406.721C1377.93 404.232 1384 401.222 1389.14 397.28C1390.36 396.341 1391.53 395.362 1392.72 394.388C1392.95 394.198 1393.21 393.915 1393.45 393.794" stroke="#f0f0f5" stroke-width="5" stroke-linecap="round" stroke-linejoin="round"/>
<path d="M1279 397.069C1279.83 395.979 1280.85 395.05 1281.82 394.082C1283.46 392.433 1285 390.67 1286.68 389.054C1290.34 385.536 1295.3 383.351 1300.04 381.729C1305.95 379.705 1312.01 377.619 1318.2 376.644C1322.51 375.966 1326.84 375.646 1331.19 375.351C1334.52 375.125 1337.72 374.854 1341.06 375.093C1344.51 375.34 1347.95 375.445 1351.39 375.859C1354.75 376.263 1358.06 376.875 1361.39 377.42C1368.33 378.555 1374.71 380.691 1381.15 383.529C1384.78 385.126 1388.13 387.23 1391.27 389.619C1392.31 390.415 1393.17 391.617 1394.1 392.549C1394.43 392.883 1394.64 393.382 1395 393.622" stroke="#f0f0f5" stroke-width="5" stroke-linecap="round" stroke-linejoin="round"/>
<path d="M1279.52 397.069C1279.55 398.565 1279.79 400.122 1280.07 401.589C1280.39 403.25 1280.51 404.908 1280.72 406.587C1281.36 411.591 1282.04 416.589 1282.75 421.583C1284.27 432.205 1287.08 442.632 1288.48 453.259C1289.09 457.894 1289.93 462.549 1290.68 467.163C1291.67 473.173 1292.81 479.263 1294.47 485.127C1295.16 487.552 1295.97 489.933 1296.68 492.347C1297.02 493.506 1297.29 495 1297.96 496.005" stroke="#f0f0f5" stroke-width="5" stroke-linecap="round" stroke-linejoin="round"/>
<path d="M1297.96 496.005C1301.47 497.461 1305.23 498.104 1308.82 499.28C1314.51 501.143 1320.55 502.081 1326.49 502.814C1331.59 503.443 1336.62 503.236 1341.74 503.503C1346.55 503.753 1351.51 503.724 1356.31 503.331C1361.25 502.926 1366.12 502.661 1371.03 501.952C1374.72 501.42 1378.62 500.809 1381.9 498.935" stroke="#f0f0f5" stroke-width="5" stroke-linecap="round" stroke-linejoin="round"/>
<path d="M1323.81 454.638C1321.13 459.081 1317.89 463.229 1315.46 467.814C1315.13 468.441 1314.63 469.032 1314.25 469.634C1313.89 470.187 1314.17 470.167 1314.47 470.668C1314.96 471.505 1317.34 470.923 1318.15 470.85C1321.84 470.514 1325.53 471.185 1329.23 471.185C1331.11 471.185 1333.02 471.013 1334.92 471.013C1336.33 471.013 1337.6 471.185 1338.98 471.185" stroke="#f0f0f5" stroke-width="5" stroke-linecap="round" stroke-linejoin="round"/>
<path d="M1342.26 471.185C1343.85 471.185 1345.4 471.058 1346.99 471.013C1347.98 470.984 1348.96 470.84 1349.98 470.84C1351.28 470.84 1352.54 471.357 1353.84 471.357C1355.87 471.357 1357.86 471.53 1359.88 471.53C1361.13 471.53 1363.37 472.169 1364.59 471.616C1364.79 471.523 1365.79 471.353 1365.79 471.013C1365.79 470.596 1365.08 469.997 1364.91 469.624C1364.1 467.776 1362.37 466.365 1361.56 464.549C1361.34 464.058 1360.82 463.524 1360.49 463.084C1359.84 462.214 1359.29 461.252 1358.73 460.326C1358.24 459.53 1357.82 458.59 1357.25 457.856C1356.91 457.41 1356.53 456.928 1356.39 456.362" stroke="#f0f0f5" stroke-width="5" stroke-linecap="round" stroke-linejoin="round"/>
<path d="M1326.57 449.812C1328.01 447.861 1329.32 445.89 1330.71 443.913C1331.5 442.79 1332.17 441.609 1332.99 440.504C1333.47 439.86 1333.99 438.824 1334.67 438.398C1335.15 438.102 1335.65 437.197 1335.92 436.712C1336.22 436.161 1336.9 435.85 1337.22 435.334C1337.51 434.866 1338.66 433.94 1339.15 433.648C1339.37 433.524 1339.25 433.153 1339.42 433.102C1339.65 433.038 1339.96 433.093 1340.19 433.093C1342.06 433.093 1343.5 434.994 1344.5 436.406C1345.17 437.367 1345.91 438.253 1346.57 439.26C1347.14 440.128 1347.69 440.996 1348.29 441.845C1349.39 443.413 1350.88 444.799 1351.6 446.575C1351.92 447.361 1352.52 448.017 1352.91 448.778C1353.24 449.45 1353.57 450.239 1353.98 450.846" stroke="#f0f0f5" stroke-width="5" stroke-linecap="round" stroke-linejoin="round"/>
<path d="M1354.32 451.191C1354.32 449.109 1355.01 447.038 1355.01 444.986" stroke="#f0f0f5" stroke-width="5" stroke-linecap="round" stroke-linejoin="round"/>
<path d="M1353.81 451.363C1352.12 450.992 1350.49 450.321 1348.81 449.984" stroke="#f0f0f5" stroke-width="5" stroke-linecap="round" stroke-linejoin="round"/>
<path d="M1342.08 471.013C1343.18 469.2 1344.56 467.679 1346.05 466.187" stroke="#f0f0f5" stroke-width="5" stroke-linecap="round" stroke-linejoin="round"/>
<path d="M1342.08 471.53C1342.9 472.588 1343.94 473.333 1344.84 474.288C1345.38 474.851 1345.81 475.587 1346.57 475.839" stroke="#f0f0f5" stroke-width="5" stroke-linecap="round" stroke-linejoin="round"/>
<path d="M1323.47 454.466C1322.27 454.488 1320.79 454.426 1319.64 454.772C1319.18 454.911 1318.78 454.983 1318.3 454.983" stroke="#f0f0f5" stroke-width="5" stroke-linecap="round" stroke-linejoin="round"/>
<path d="M1324.33 454.466C1324.71 456.211 1325.54 458.023 1325.54 459.809" stroke="#f0f0f5" stroke-width="5" stroke-linecap="round" stroke-linejoin="round"/>
<path d="M1381.73 498.418C1381.73 489.666 1383.79 481.088 1384.87 472.43C1385.56 466.929 1386.72 461.467 1387.08 455.931C1387.34 451.929 1388.28 447.866 1388.28 443.866C1388.28 442.991 1388.45 442.139 1388.45 441.27C1388.45 440.354 1388.32 439.36 1388.58 438.474C1388.9 437.397 1388.52 436.104 1388.76 434.989C1388.9 434.312 1388.78 433.608 1388.93 432.92C1389.03 432.468 1389.14 431.826 1389.14 431.369C1389.14 429.925 1389.25 428.293 1389.57 426.888C1389.72 426.252 1389.61 425.615 1389.67 424.973C1389.79 423.608 1389.98 422.228 1390 420.855C1390.05 418.233 1390.36 415.573 1390.65 412.965C1391.38 406.483 1391.69 399.88 1392.76 393.449" stroke="#f0f0f5" stroke-width="5" stroke-linecap="round" stroke-linejoin="round"/>
<path d="M1071.34 667.267C1074.41 667.866 1077.3 667.834 1080.41 667.834C1085.6 667.834 1090.75 668.968 1095.97 668.968C1103.3 668.968 1110.58 668.401 1117.85 668.401C1135.9 668.401 1154.33 667.834 1172.52 667.834C1187.75 667.834 1202.95 665.856 1218.15 666.701C1223.34 666.989 1228.79 667.267 1234.14 667.267C1236.82 667.267 1241.24 667.278 1243.65 666.26C1245.29 665.57 1248.1 666.134 1249.86 666.134C1251.61 666.134 1251.03 666.706 1252.16 667.267" stroke="#f0f0f5" stroke-width="5" stroke-linecap="round" stroke-linejoin="round"/>
<path d="M1251.59 666.134C1252.94 673.061 1252.54 679.661 1252.16 686.539C1251.94 690.37 1249.07 697.797 1245.07 699.576C1242.2 700.854 1239.24 702.839 1236.29 704.237C1232.28 706.134 1227.81 706.303 1223.82 708.078C1219.4 710.043 1214.21 710.347 1209.68 711.763C1206.12 712.874 1201.44 713.747 1197.74 713.747C1179.79 713.747 1161.83 714.88 1143.89 714.88C1128.19 714.88 1113.13 712.088 1097.98 708.204C1089.81 706.108 1081.47 700.123 1078.39 692.207C1075.58 684.966 1072.47 677.442 1072.47 669.535" stroke="#f0f0f5" stroke-width="5" stroke-linecap="round" stroke-linejoin="round"/>
<path d="M1043 718.848C1045.87 715.201 1049.22 712.689 1053.74 711.227C1055.78 710.566 1057.6 710.346 1059.72 710.346C1061.21 710.346 1062.54 711.4 1063.97 711.479C1066.35 711.611 1068.5 712.613 1071.06 712.613C1072.68 712.613 1073.52 713.597 1075.18 712.613C1076.55 711.804 1078.2 711.442 1079.53 710.597C1081.01 709.654 1081.74 707.066 1083.81 706.945C1086.54 706.784 1088.53 708.757 1090.9 710.031C1092.64 710.968 1096.49 710.46 1098.55 710.346C1100.93 710.213 1103.37 709.779 1105.92 709.779" stroke="#f0f0f5" stroke-width="5" stroke-linecap="round" stroke-linejoin="round"/>
<path d="M1230.62 705.811C1237.97 704.634 1245.01 703.346 1252.44 704.961C1256.71 705.89 1261.37 708.524 1265.63 706.819C1266.35 706.531 1266.24 705.695 1266.89 705.37C1267.62 705.006 1268.91 704.989 1269.73 704.803C1272.41 704.19 1274.73 705.427 1277.32 705.811C1279.62 706.152 1287.75 708.869 1289 706.378" stroke="#f0f0f5" stroke-width="5" stroke-linecap="round" stroke-linejoin="round"/>
<path d="M1156.93 542C1156.93 544.868 1156.36 547.48 1156.36 550.219C1156.36 552.824 1156.93 555.326 1156.93 557.871C1156.93 563.206 1157.51 568.464 1158.1 573.742C1159.28 584.376 1160.33 595.297 1160.33 606.051C1160.33 616.946 1160.98 627.924 1162 638.674C1162.5 643.905 1162.83 649.322 1163.76 654.482C1164.63 659.222 1166 664.035 1166 668.968" stroke="#f0f0f5" stroke-width="5" stroke-linecap="round" stroke-linejoin="round"/>
<path d="M1155.8 553.336C1160.15 554.136 1163.83 554.47 1168.27 554.47" stroke="#f0f0f5" stroke-width="5" stroke-linecap="round" stroke-linejoin="round"/>
<path d="M1167.13 547.101C1167.13 551.761 1168.27 556.125 1168.27 560.705" stroke="#f0f0f5" stroke-width="5" stroke-linecap="round" stroke-linejoin="round"/>
<path d="M1167.7 545.968C1179.08 550.521 1193.01 549.936 1205.11 549.936" stroke="#f0f0f5" stroke-width="5" stroke-linecap="round" stroke-linejoin="round"/>
<path d="M1170.53 561.839C1175.64 560.342 1180.87 558.744 1185.84 556.863C1190.66 555.039 1195.39 553.046 1200.39 551.73C1203.61 550.883 1206.65 550.298 1209.65 548.802" stroke="#f0f0f5" stroke-width="5" stroke-linecap="round" stroke-linejoin="round"/>
<path d="M1164.87 566.373C1166.39 574.355 1167.13 582.059 1167.13 590.211C1167.13 593.262 1167.3 597.562 1168.14 600.508C1169.43 605.023 1168.34 610.267 1168.96 614.931C1169.61 619.782 1169.97 625.32 1169.97 630.172C1169.97 634.714 1170.53 639.227 1170.53 643.713C1170.53 649.122 1171.67 654.032 1171.67 659.332" stroke="#f0f0f5" stroke-width="5" stroke-linecap="round" stroke-linejoin="round"/>
<path d="M1171.67 659.332C1184.98 659.332 1198.28 660.466 1211.6 660.466C1216.71 660.466 1221.81 659.204 1226.9 658.797C1232.39 658.358 1237.57 658.765 1243.09 658.765" stroke="#f0f0f5" stroke-width="5" stroke-linecap="round" stroke-linejoin="round"/>
<path d="M1246.49 658.198C1239.35 651.064 1233.07 642.809 1226.65 634.959C1220.08 626.928 1212.92 619.163 1206.78 610.869C1199.56 601.125 1190.04 592.955 1182.44 583.504C1179.03 579.267 1176.08 574.188 1172.27 570.372C1170.95 569.056 1168.25 566.901 1167.7 565.24" stroke="#f0f0f5" stroke-width="5" stroke-linecap="round" stroke-linejoin="round"/>
<path d="M1020.11 25.5147C1016.52 20.9101 1011.61 16.4252 1005.44 16.0829C1001.27 15.8509 997.183 16.5471 993.1 17.3638C988.475 18.2889 987.75 20.0243 984.483 22.1379C972.977 29.5829 980.291 48.0322 980.291 58.4679C980.291 65.7557 983.615 74.9116 986.579 81.5817C988.542 85.9978 989.76 92.3689 992.634 95.9623C992.859 96.2434 994.906 100.515 994.963 100.969C995.135 102.34 997.363 103.951 998.34 104.928C1001.22 107.808 1008.16 108.666 1012.25 109.295C1022.62 110.89 1032.32 109.353 1042.65 109.353C1049.67 109.353 1054.74 105.992 1057.32 99.3974C1061.14 89.6394 1065.87 78.9424 1068.09 68.7148C1070.51 57.5933 1074.53 42.695 1070.42 31.5697C1067.82 24.5286 1063.33 12.939 1054.12 12.939C1045.99 12.939 1039.81 13.1559 1033.8 19.1686C1031.73 21.2305 1029.35 23.0466 1026.87 24.4668C1024.79 25.6516 1022.21 30.7583 1022.21 27.6107" stroke="#f0f0f5" stroke-width="5" stroke-linecap="round" stroke-linejoin="round"/>
<path d="M1022.28 27.1036C1024.3 21.923 1024.86 16.2415 1027.28 11.3838C1028.55 8.86021 1031.71 5.77444 1031.71 3" stroke="#f0f0f5" stroke-width="5" stroke-linecap="round" stroke-linejoin="round"/>
<path d="M1047.36 43.3305C1049.46 42.5107 1051.5 41.8475 1053.65 41.2345" stroke="#f0f0f5" stroke-width="5" stroke-linecap="round" stroke-linejoin="round"/>
<path d="M1024.85 12.4319C1022.69 9.46187 1019.59 4.29341 1015.42 4.04803C1011.96 3.84485 1008.08 3.82076 1008.08 8.23996" stroke="#f0f0f5" stroke-width="5" stroke-linecap="round" stroke-linejoin="round"/>
<path d="M1008.59 8.74719C1012.95 14.3354 1016.85 18.259 1023.26 13.9871" stroke="#f0f0f5" stroke-width="5" stroke-linecap="round" stroke-linejoin="round"/>
<path d="M1013.83 8.74719C1016.76 9.99188 1019.25 11.9532 1022.21 12.9391" stroke="#f0f0f5" stroke-width="5" stroke-linecap="round" stroke-linejoin="round"/>
<path d="M1047.31 43.7075C1050.87 49.7859 1050.02 54.8463 1050.02 61.311C1050.02 67.5283 1045.43 73.143 1043.53 78.8545" stroke="#f0f0f5" stroke-width="5" stroke-linecap="round" stroke-linejoin="round"/>
<path d="M1053.8 43.1667C1056.33 49.7903 1056.79 57.4225 1054.46 64.1348C1053.49 66.942 1051.61 69.3122 1049.75 71.5847C1047.57 74.2443 1044.4 75.8202 1041.91 78.3137" stroke="#f0f0f5" stroke-width="5" stroke-linecap="round" stroke-linejoin="round"/>
<path d="M1038.85 26.8817C1040.52 29.1708 1041.1 31.6034 1042.62 33.871" stroke="#f0f0f5" stroke-width="5" stroke-linecap="round" stroke-linejoin="round"/>
<path d="M1039.39 27.4193C1041.67 26.6753 1043.67 25.992 1045.84 25.2688" stroke="#f0f0f5" stroke-width="5" stroke-linecap="round" stroke-linejoin="round"/>
<path d="M1045.3 25.2688C1048.93 28.0136 1048.45 29.9474 1050.14 33.3333" stroke="#f0f0f5" stroke-width="5" stroke-linecap="round" stroke-linejoin="round"/>
<path d="M1050.14 32.7957C1047.08 33.3941 1044.69 34.4086 1041.54 34.4086" stroke="#f0f0f5" stroke-width="5" stroke-linecap="round" stroke-linejoin="round"/>
<path d="M1127.79 163.491C1148.81 170.645 1172.15 160.37 1186.36 144.703C1196.44 133.588 1201.99 121.685 1201.43 106.323C1201.02 94.8749 1194.61 83.2273 1189.78 73.0604" stroke="#f0f0f5" stroke-width="5" stroke-linecap="round" stroke-linejoin="round"/>
<path d="M1133.23 178.575C1147.74 181.022 1161.53 189.344 1176.26 190.15C1196 191.23 1210.18 175.849 1221.53 161.727C1229.51 151.794 1232.61 139.544 1232.51 126.888C1232.44 116.864 1229.01 110.14 1223.77 101.941C1217.78 92.5536 1209.49 86.1405 1202.56 78.0743" stroke="#f0f0f5" stroke-width="5" stroke-linecap="round" stroke-linejoin="round"/>
<path d="M1130.7 165.229C1133.72 167.033 1139.79 169.883 1138.3 174.377C1137.39 177.113 1135.76 179.69 1132.78 179.328C1128.62 178.822 1127.88 169.937 1129.54 167.165" stroke="#f0f0f5" stroke-width="5" stroke-linecap="round" stroke-linejoin="round"/>
<path d="M1199.85 80.3994C1198.11 73.4751 1198.05 67.4769 1197.31 60.475" stroke="#f0f0f5" stroke-width="5" stroke-linecap="round" stroke-linejoin="round"/>
<path d="M1187.07 68.8075C1188.57 70.8671 1189.82 73.1248 1191.14 75.1869" stroke="#f0f0f5" stroke-width="5" stroke-linecap="round" stroke-linejoin="round"/>
<path d="M1187.65 67.8395C1190.02 66.8417 1194.94 62.8258 1197.12 62.9906" stroke="#f0f0f5" stroke-width="5" stroke-linecap="round" stroke-linejoin="round"/>
<path d="M1138.64 173.925C1146.34 173.942 1154.12 172.667 1161.6 172.907C1166.58 173.066 1174.04 172.256 1178.2 169.328C1188.24 162.26 1194.72 157.105 1201.03 146.544C1206.98 136.604 1212.89 122.445 1209.95 110.762C1208.52 105.054 1205.84 99.986 1203.84 94.6146C1202.44 90.8596 1198.41 86.143 1198.69 82.3357" stroke="#f0f0f5" stroke-width="5" stroke-linecap="round" stroke-linejoin="round"/>
<path d="M1270.89 222.971C1273.8 220.816 1277.09 219.75 1280.46 218.505C1285.78 216.54 1291.04 214.431 1296.4 212.558C1302.71 210.355 1309.07 208.242 1315.3 205.847C1322.77 202.981 1329.92 199.403 1337.49 196.791C1349.37 192.686 1361.63 189.802 1373.39 185.317C1377.59 183.714 1382.29 181.723 1385.92 179" stroke="#f0f0f5" stroke-width="5" stroke-linecap="round" stroke-linejoin="round"/>
<path d="M1273.66 226.081C1297.53 226.081 1321.37 227.548 1345.22 227.413C1352.48 227.372 1359.69 227.324 1366.94 227.068C1376.1 226.744 1385.2 227.645 1394.38 226.771C1400.78 226.161 1407.08 224.622 1413.48 223.86C1418.09 223.31 1422.79 222.911 1427.34 222.083" stroke="#f0f0f5" stroke-width="5" stroke-linecap="round" stroke-linejoin="round"/>
<path d="M1271.44 225.636C1272.93 237.511 1272.8 249.234 1271.89 261.144C1271.68 263.852 1271 266.437 1271 269.164C1271 271.253 1271.44 273.273 1271.44 275.357C1271.44 278.561 1272.25 283.647 1273.66 286.486" stroke="#f0f0f5" stroke-width="5" stroke-linecap="round" stroke-linejoin="round"/>
<path d="M1275.11 286.042C1285.58 286.042 1295.97 287.433 1306.42 287.793C1314.28 288.065 1322.04 287.948 1329.89 288.706C1340.37 289.72 1350.84 290.039 1361.37 290.039C1369.47 290.039 1377.66 289.762 1385.75 289.373C1396.16 288.872 1406.57 289.411 1416.96 288.706C1421.32 288.411 1425.71 287.021 1430.02 286.93C1433.01 286.866 1436.01 286.93 1439 286.93" stroke="#f0f0f5" stroke-width="5" stroke-linecap="round" stroke-linejoin="round"/>
<path d="M1435.78 222.971C1438.51 236.316 1438.11 250.105 1439.24 263.636C1439.83 270.755 1439.78 278 1439.78 285.153" stroke="#f0f0f5" stroke-width="5" stroke-linecap="round" stroke-linejoin="round"/>
<path d="M1387.15 178.332C1394.65 179.222 1400.36 181.651 1407.03 185.217C1413.55 188.697 1420.88 193.463 1425.1 199.652C1427.69 203.463 1429.96 207.288 1430.77 211.841C1431.34 215.02 1431.95 219.549 1433.78 222.304" stroke="#f0f0f5" stroke-width="5" stroke-linecap="round" stroke-linejoin="round"/>
<path d="M1271.89 249.621C1284.26 249.621 1296.59 250.509 1308.95 250.509C1316.51 250.509 1324.07 250.509 1331.63 250.509C1340.94 250.509 1350.42 250.958 1359.73 250.41C1378.28 249.319 1396.8 247.774 1415.35 246.931C1420.16 246.713 1425.46 246.794 1430.21 245.845C1432.86 245.314 1436.01 245.951 1438.45 244.735" stroke="#f0f0f5" stroke-width="5" stroke-linecap="round" stroke-linejoin="round"/>
<path d="M1271.89 262.057C1275.44 261.396 1279.3 261.908 1282.89 262.156C1287.05 262.443 1291.33 262.18 1295.45 262.723C1298.97 263.187 1302.55 262.829 1306.09 262.97C1310.35 263.14 1314.36 263.455 1318.62 263.044C1326.58 262.277 1334.72 262.96 1342.71 262.477C1351.36 261.952 1360.03 262.057 1368.71 262.057C1383.53 262.057 1398.45 260.881 1413.11 258.726C1418.95 257.867 1424.98 258.155 1430.8 257.073C1433.51 256.569 1436.13 255.395 1438.89 255.395" stroke="#f0f0f5" stroke-width="5" stroke-linecap="round" stroke-linejoin="round"/>
<path d="M1433.56 221.639C1430.15 220.974 1427.99 222.527 1424.68 222.527" stroke="#f0f0f5" stroke-width="5" stroke-linecap="round" stroke-linejoin="round"/>
<path d="M1271.44 223.86C1271.62 224.749 1271.76 225.63 1271.89 226.525" stroke="#f0f0f5" stroke-width="5" stroke-linecap="round" stroke-linejoin="round"/>
<path d="M1273.66 286.042C1275 286.042 1276.33 286.042 1277.66 286.042" stroke="#f0f0f5" stroke-width="5" stroke-linecap="round" stroke-linejoin="round"/>
<path d="M1389.59 179.888C1388.54 179.653 1387.53 179 1386.48 179" stroke="#f0f0f5" stroke-width="5" stroke-linecap="round" stroke-linejoin="round"/>
<path d="M1274.38 254.689C1276.95 254.629 1279.48 254.085 1282.06 254.061C1285.38 254.03 1288.64 254.183 1291.95 254.358C1294.14 254.472 1296.13 254.031 1298.32 254.305C1301.63 254.718 1305.01 254.155 1308.32 254.532C1315.39 255.335 1322.34 253.118 1329.36 253.118C1335.77 253.118 1342.13 253.084 1348.52 252.42C1355.51 251.694 1362.85 251.862 1369.88 251.862C1377.95 251.862 1385.9 251.129 1393.95 250.902C1402.68 250.656 1411.42 250.331 1420.11 249.366C1423.47 248.992 1426.94 249.611 1430.3 249.663C1431.37 249.679 1433.27 249.111 1434.14 249.506C1434.98 249.886 1435.48 249.312 1435.24 250.151C1435 250.978 1435.59 252.368 1434.84 253.049C1434.14 253.687 1431.14 254.061 1430.2 254.061C1424.52 254.061 1418.59 254.339 1413.09 255.562C1411.95 255.815 1410.83 255.531 1409.71 255.876C1408.11 256.369 1406.29 256.574 1404.61 256.574C1400.7 256.574 1396.7 256.918 1392.81 257.359C1388.08 257.897 1383.24 257.469 1378.5 257.848C1374.94 258.133 1371.4 258.145 1367.82 258.145C1358.63 258.145 1349.37 258.773 1340.11 258.773C1330.58 258.773 1320.79 258.807 1311.27 259.384C1305.19 259.752 1298.89 259.715 1292.81 259.715C1288.1 259.715 1283.32 259.549 1278.64 259.017C1277.14 258.847 1275.6 258.516 1274.24 258.127C1272.94 257.755 1275.37 256.564 1275.64 256.504C1277.34 256.125 1279.25 256.645 1280.87 256.103C1282.65 255.51 1285.5 255.632 1287.4 255.632C1298.85 255.632 1310.36 255.946 1321.82 255.946C1326.34 255.946 1330.69 255.717 1335.22 255.928C1339.93 256.147 1344.61 256.26 1349.34 256.26C1355.14 256.26 1360.91 255.632 1366.7 255.632C1372.47 255.632 1378.21 254.762 1383.95 254.689C1391.61 254.592 1399.52 254.09 1407.16 253.363C1414.98 252.618 1423.05 253.157 1430.82 251.862" stroke="#f0f0f5" stroke-width="5" stroke-linecap="round" stroke-linejoin="round"/>
<path d="M804.004 107.525C791.412 107.525 778.954 109.234 766.387 109.593C751.589 110.015 736.798 110.463 722.009 109.407C708.743 108.459 695.162 108.972 682.092 106.038C672.431 103.869 665.759 95.9862 663.272 86.5902C660.916 77.6897 661.901 70.3642 665.665 62.0311C666.888 59.3226 669.467 57.8359 671.938 56.4083C674.635 54.8504 678.081 52.8768 681.139 52.226C689.729 50.3985 699.496 54.1717 706.558 59.0106C709.752 61.199 712.363 64.1167 714.411 67.3751C715.93 69.7914 718.126 72.9394 718.686 75.7396" stroke="#f0f0f5" stroke-width="5" stroke-linecap="round" stroke-linejoin="round"/>
<path d="M699.03 51.9008C700.124 46.6746 703.018 42.5219 706.79 38.7499C713.297 32.2434 724.593 31.4077 733.208 31.4077C740.153 31.4077 748.324 31.6874 753.492 36.9376C756.71 40.2064 759.319 44.6432 761.764 48.555" stroke="#f0f0f5" stroke-width="5" stroke-linecap="round" stroke-linejoin="round"/>
<path d="M746.708 30.5713C748.314 23.0751 756.6 20.041 762.832 17.281C767.146 15.3707 770.811 13.237 775.519 12.4017C780.46 11.5251 785.354 10.6466 790.342 10.0783C801.532 8.80351 812.626 7.59833 822.918 13.0988C827.89 15.7563 832.143 19.3582 836.394 23.02C840.982 26.9728 845.604 30.6647 849.033 35.7294C858.158 49.2062 860.737 69.2723 851.125 83.1283C847.996 87.6378 845.067 91.7945 840.158 94.5133C836.52 96.5283 832.677 98.5428 828.912 100.322C825.041 102.151 820.446 101.905 816.342 102.948C812.404 103.948 808.895 105.749 805.073 107.014C798.425 109.212 791.747 106.721 785.184 108.361" stroke="#f0f0f5" stroke-width="5" stroke-linecap="round" stroke-linejoin="round"/>
<path d="M383.766 99.9685C379.547 100.852 376.593 101.986 373.113 104.627C370.084 106.925 368.18 110.809 366.6 114.159C363.922 119.836 365.487 125.383 369.791 129.687C375.971 135.867 383.895 138.204 392.307 139.09C400.294 139.931 408.577 138.879 416.483 137.817C423.107 136.928 429.87 136.103 436.086 133.526C438.035 132.718 440.081 132.422 441.996 131.498C444.829 130.132 447.749 129.085 450.665 127.918C458.128 124.933 465.621 121.985 472.792 118.343C481.317 114.013 489.075 108.231 497.098 103.074C505.039 97.9688 512.297 92.1191 518.383 84.9152C522.446 80.1064 526.346 74.7668 528.973 69.0208C531.242 64.0554 530.522 58.1175 528.865 53.0832C527.174 47.9453 524.205 45.047 518.836 44.8233C514.447 44.6405 511.08 44.4685 506.91 46.0095C504.271 46.985 501.841 49.3238 499.448 50.8619C497.978 51.8071 496.576 52.821 495.178 53.8596C491.155 56.8479 487.586 59.8127 484.007 63.392C482.581 64.8175 481.519 66.5535 480.06 67.9209C477.27 70.5363 474.271 72.8626 471.283 75.2534C466.431 79.1349 460.368 81.5641 455.108 84.8289C450.889 87.4473 446.673 89.4166 442.082 91.3419C431.922 95.6025 421.25 99.0646 410.164 99.5803C404.103 99.8622 398.079 100.745 392.005 100.745C388.312 100.745 384.716 101.133 381.049 101.133" stroke="#f0f0f5" stroke-width="5" stroke-linecap="round" stroke-linejoin="round"/>
<path d="M364.357 120.543C362.118 120.49 359.04 120.062 357.11 118.904C355.881 118.166 352.51 115.831 352.323 114.332C352.145 112.914 351.187 111.558 351.158 110.062C351.105 107.378 350.692 104.167 351.46 101.608C352.815 97.0901 356.783 94.6024 360.388 91.8165C365.007 88.2478 371.188 87.347 376.606 85.6054C386.23 82.5121 395.97 79.1821 405.807 77.0651C413.197 75.4749 420.555 73.8896 427.546 70.9403C435.254 67.6885 443.598 65.2414 450.751 60.8472C457.191 56.8914 463.908 52.705 470.549 49.1151C474.347 47.0625 477.401 43.8033 481.203 41.7394C483.385 40.5547 484.97 38.3438 487.328 37.383C489.662 36.432 491.765 34.0672 494.013 32.811C495.687 31.8755 497.118 30.3718 498.758 29.3172C500.31 28.3194 502.983 27.2598 504.02 25.8235C504.986 24.4867 508.098 24.1287 509.627 23.7963C512.031 23.2737 514.267 22.6684 516.744 22.7179C518.428 22.7516 519.818 23.7732 521.187 24.6589C522.758 25.6757 524.911 26.3413 525.543 28.2389C526.311 30.5403 527.02 32.7571 527.7 35.0539C528.201 36.7446 527.461 38.4559 527.398 40.1004C527.317 42.1978 527.008 45.2353 525.457 46.786" stroke="#f0f0f5" stroke-width="5" stroke-linecap="round" stroke-linejoin="round"/>
<path d="M385.319 90.6517C387.753 91.579 390.259 92.1313 392.867 91.73C395.413 91.3384 399.172 91.063 401.321 89.4871C405.68 86.2911 409.556 81.4311 415.34 80.9684C418.257 80.735 421.202 80.4018 424.139 80.192C427.48 79.9533 430.872 80.4271 434.21 80.1489C439.132 79.7387 442.345 76.6126 444.929 72.8811C446.395 70.7628 448.292 69.5524 450.148 67.7483C452.026 65.9224 454.137 65.8334 456.359 64.9446C458.432 64.1152 461.345 64.6203 463.605 64.1683C466.044 63.6804 468.266 63.3186 470.528 62.3135C474.079 60.7354 476.843 56.0763 478.896 52.9969C480.303 50.8863 481.679 47.7421 483.748 46.2251C485.936 44.6206 488.996 44.1901 491.469 43.2058C494.766 41.8928 497.445 41.3511 501.001 41.3511" stroke="#f0f0f5" stroke-width="5" stroke-linecap="round" stroke-linejoin="round"/>
<path d="M356.981 94.1456C356.078 91.3799 355.198 88.1421 356.01 85.2171C356.664 82.8657 357.731 81.1047 358.836 79.006C361.962 73.0658 367.65 70.8124 373.716 68.3307C379.779 65.8505 387.268 65.9165 393.687 65.031C401.603 63.9392 409.094 61.8836 416.677 59.2944C422.523 57.2982 427.876 55.2255 433.283 52.2422C437.144 50.1118 441.406 48.7351 445.101 46.2252C449.707 43.0964 453.931 39.1864 458.472 35.9165C463.372 32.3889 468.127 28.6812 473.073 25.2196C477.54 22.0921 482.697 20.0005 488.212 20.0005C494.023 20.0005 502.021 19.8562 506.436 24.2707" stroke="#f0f0f5" stroke-width="5" stroke-linecap="round" stroke-linejoin="round"/>
<path d="M256 245.953C256 251.98 256.324 258.026 256.591 264.047C256.89 270.777 256.79 277.491 257.453 284.201C258.074 290.487 257.814 296.84 258.146 303.14C258.332 306.681 258.737 310.236 258.737 313.766" stroke="#f0f0f5" stroke-width="5" stroke-linecap="round" stroke-linejoin="round"/>
<path d="M256.216 242.649C259.355 245.788 263.554 247.631 267.231 250.083C273.265 254.105 279.628 257.559 285.342 262.044C289.035 264.942 293.026 267.442 296.728 270.322C298.362 271.592 300.175 272.651 301.83 273.903C302.485 274.399 303.288 275.156 303.959 275.491" stroke="#f0f0f5" stroke-width="5" stroke-linecap="round" stroke-linejoin="round"/>
<path d="M304.263 276.099C305.361 273.333 307.017 271.42 308.994 269.24C311.212 266.794 313.159 264.104 315.278 261.571C318.883 257.262 323.035 253.522 326.462 249.035C328.024 246.991 329.592 244.919 330.787 242.649C331.15 241.958 332.223 240.225 332.848 239.912" stroke="#f0f0f5" stroke-width="5" stroke-linecap="round" stroke-linejoin="round"/>
<path d="M333.76 240.216C336.885 244.302 341.129 246.802 344.775 250.319C347.703 253.143 351.187 255.316 354.456 257.719C356.659 259.339 358.82 261.078 361.112 262.567C362.613 263.543 364.097 265.383 365.386 266.672C366.655 267.942 367.749 269.34 369.018 270.609C370.568 272.159 372.246 273.599 374.205 274.579" stroke="#f0f0f5" stroke-width="5" stroke-linecap="round" stroke-linejoin="round"/>
<path d="M375.117 274.883C377.453 271.706 378.849 267.918 381.182 264.73C383.959 260.935 386.928 257.373 390.018 253.833C391.812 251.777 393.431 249.584 395.187 247.498C396.437 246.013 398.034 244.37 398.971 242.666C399.799 241.162 400.961 239.612 402.181 238.392" stroke="#f0f0f5" stroke-width="5" stroke-linecap="round" stroke-linejoin="round"/>
<path d="M404.702 238C404.702 243.016 404.806 247.907 405.242 252.901C405.608 257.083 406.163 261.248 406.526 265.436C407.031 271.259 406.83 277.133 406.83 282.972C406.83 290.356 406.922 297.666 407.574 305.019C407.753 307.046 407.827 309.094 408.199 311.101C408.324 311.778 408.655 312.43 408.655 313.111" stroke="#f0f0f5" stroke-width="5" stroke-linecap="round" stroke-linejoin="round"/>
<path d="M258.474 315.982C264.954 319.46 272.24 320.732 279.389 322.199C287.579 323.881 295.76 324.799 304.02 326.018C311.402 327.107 318.688 327.646 326.135 327.994C333.337 328.331 340.709 328.735 347.877 327.91C355.092 327.078 362.345 326.812 369.552 325.865C375.194 325.125 380.383 322.643 385.957 321.524C389.282 320.856 392.66 320.469 396.009 319.936C398.588 319.525 401.427 319.242 403.493 317.486C405.253 315.99 406.589 313.647 409 313.246" stroke="#f0f0f5" stroke-width="5" stroke-linecap="round" stroke-linejoin="round"/>
<path d="M259.649 280.661C264.486 282.513 269.635 283.233 274.567 284.766C280.386 286.575 286.387 287.446 292.39 288.398C310.482 291.268 328.796 292.884 347.127 292.825C354.303 292.801 361.956 292.866 369.055 291.727C374.646 290.829 380.063 289.086 385.51 287.587C387.996 286.904 390.495 286.377 393.011 285.83C394.512 285.504 395.715 284.638 397.099 284.023C399.192 283.093 401.296 282.987 403.181 281.573" stroke="#f0f0f5" stroke-width="5" stroke-linecap="round" stroke-linejoin="round"/>
<path d="M283.889 258.766C288.747 255.432 293.02 251.294 298.181 248.427" stroke="#f0f0f5" stroke-width="5" stroke-linecap="round" stroke-linejoin="round"/>
<path d="M298.485 248.427C301.805 250.357 305.331 251.585 308.588 253.664C310.652 254.981 312.611 257.697 314.906 258.462" stroke="#f0f0f5" stroke-width="5" stroke-linecap="round" stroke-linejoin="round"/>
<path d="M357.263 259.287C359.387 254.039 364.858 250.389 368.515 246.211" stroke="#f0f0f5" stroke-width="5" stroke-linecap="round" stroke-linejoin="round"/>
<path d="M372.38 248.427C375.277 250.151 378.178 252.119 380.827 254.205C382.381 255.428 384.043 257.299 385.76 258.158" stroke="#f0f0f5" stroke-width="5" stroke-linecap="round" stroke-linejoin="round"/>
<path d="M336.193 258.462C334.657 260.981 332.78 263.392 330.854 265.625C329.189 267.557 327.28 270.013 325.246 271.538" stroke="#f0f0f5" stroke-width="5" stroke-linecap="round" stroke-linejoin="round"/>
<path d="M324.637 271.538C326.521 273.865 328.431 276.225 330.415 278.465C331.276 279.436 332.49 281.15 333.76 281.573" stroke="#f0f0f5" stroke-width="5" stroke-linecap="round" stroke-linejoin="round"/>
<path d="M337.714 257.854C339.366 260.672 341.493 263.076 343.424 265.693C343.982 266.449 344.798 268.086 345.62 268.497" stroke="#f0f0f5" stroke-width="5" stroke-linecap="round" stroke-linejoin="round"/>
<path d="M346.228 271.234C344.78 273.573 343.133 275.782 340.906 277.434C339.368 278.576 337.884 279.273 336.497 280.661" stroke="#f0f0f5" stroke-width="5" stroke-linecap="round" stroke-linejoin="round"/>
<path d="M314.602 276.099C313.581 277.678 312.901 279.625 311.561 280.965" stroke="#f0f0f5" stroke-width="5" stroke-linecap="round" stroke-linejoin="round"/>
<path d="M311.561 281.269C312.954 283.091 314.992 285.721 317.035 286.743" stroke="#f0f0f5" stroke-width="5" stroke-linecap="round" stroke-linejoin="round"/>
<path d="M316.731 276.404C317.36 277.637 318.166 278.593 318.86 279.749" stroke="#f0f0f5" stroke-width="5" stroke-linecap="round" stroke-linejoin="round"/>
<path d="M320.38 282.485C319.726 284.013 318.465 285.19 317.947 286.743" stroke="#f0f0f5" stroke-width="5" stroke-linecap="round" stroke-linejoin="round"/>
<path d="M356.567 273.667C355.062 275.628 353.796 277.767 352.31 279.748" stroke="#f0f0f5" stroke-width="5" stroke-linecap="round" stroke-linejoin="round"/>
<path d="M352.31 281.573C353.948 283.211 355.431 284.335 357.175 285.83" stroke="#f0f0f5" stroke-width="5" stroke-linecap="round" stroke-linejoin="round"/>
<path d="M357.479 273.971C358.38 275.507 359.548 277.757 361.433 278.228" stroke="#f0f0f5" stroke-width="5" stroke-linecap="round" stroke-linejoin="round"/>
<path d="M362.345 279.444C360.586 281.617 359.018 283.827 357.479 286.135" stroke="#f0f0f5" stroke-width="5" stroke-linecap="round" stroke-linejoin="round"/>
<path d="M315.515 276.404C316.627 277.872 317.573 279.376 318.691 280.813C319.267 281.554 319.783 282.793 320.684 283.094" stroke="#f0f0f5" stroke-width="5" stroke-linecap="round" stroke-linejoin="round"/>
<path d="M345.62 268.193C346.038 269.264 346.236 270.03 346.836 270.93" stroke="#f0f0f5" stroke-width="5" stroke-linecap="round" stroke-linejoin="round"/>
<path d="M337.409 280.357C336.286 280.822 335.208 281.496 334.064 281.877" stroke="#f0f0f5" stroke-width="5" stroke-linecap="round" stroke-linejoin="round"/>
<path d="M368.731 246.298C370.209 247.178 372.425 247.864 373.596 249.035" stroke="#f0f0f5" stroke-width="5" stroke-linecap="round" stroke-linejoin="round"/>
<path d="M32.1752 410.999C33.0707 411.869 34.1134 412.488 35.0655 413.286C37.9254 415.683 40.3394 418.516 42.958 421.159C47.7362 425.982 52.9396 430.294 57.4876 435.348C62.1544 440.533 67.1699 445.269 72.387 449.887C76.0767 453.153 80.0137 456.118 83.6661 459.434C86.8607 462.334 89.7793 465.636 92.7848 468.728C93.9397 469.916 95.0181 471.15 96.2104 472.309C96.9786 473.056 97.7225 474.072 98.7407 474.411" stroke="#f0f0f5" stroke-width="5" stroke-linecap="round" stroke-linejoin="round"/>
<path d="M99.0911 474.761C101.895 473.055 104.069 470.525 106.526 468.377C108.779 466.408 111.066 464.3 113.105 462.11C119.009 455.769 125.262 449.661 130.719 442.919C134.668 438.042 138.413 432.932 142.534 428.204C146.035 424.188 149.675 420.28 153.005 416.118C154.376 414.404 155.684 412.645 156.898 410.823" stroke="#f0f0f5" stroke-width="5" stroke-linecap="round" stroke-linejoin="round"/>
<path d="M32.1752 410.648C48.8904 410.648 65.5898 411.879 82.2939 412.575C85.5286 412.71 88.714 412.781 91.9479 412.575C95.7931 412.33 99.6506 412.337 103.49 412.05C109.432 411.605 115.402 411.743 121.348 411.437C130.204 410.98 139.091 411.195 147.945 410.687C151.223 410.499 154.489 410.298 157.774 410.298" stroke="#f0f0f5" stroke-width="5" stroke-linecap="round" stroke-linejoin="round"/>
<path d="M99.6166 474.937C96.0271 470.001 92.122 465.223 89.1841 459.881C87.6432 457.08 85.9431 454.339 84.3766 451.541C83.278 449.58 82.1518 447.645 81.0483 445.683C79.7224 443.326 78.0308 441.219 76.669 438.89C74.6088 435.366 72.312 431.903 69.9735 428.555C69.0034 427.166 68.1546 425.716 67.2097 424.312C65.7278 422.109 64.1322 419.885 62.8304 417.577C61.3388 414.933 59.4844 412.478 57.8379 409.928C55.9155 406.951 54.0043 403.95 52.213 400.887C49.8597 396.864 47.5611 392.722 45.4883 388.577" stroke="#f0f0f5" stroke-width="5" stroke-linecap="round" stroke-linejoin="round"/>
<path d="M32 409.948C33.762 405.738 36.1108 401.536 38.7928 397.861C39.6955 396.624 40.5386 395.361 41.3815 394.085C41.7697 393.497 42.3664 393.033 42.6855 392.43C43.2282 391.405 43.7841 390.106 44.6124 389.277" stroke="#f0f0f5" stroke-width="5" stroke-linecap="round" stroke-linejoin="round"/>
<path d="M98.04 475.761C98.439 474.836 99.0665 473.989 99.276 473.046C99.4788 472.134 99.8263 471.161 100.064 470.243C100.243 469.556 100.632 469.092 100.93 468.472C101.47 467.351 101.852 466.126 102.595 465.115C103.802 463.471 104.656 461.273 105.358 459.373C106.149 457.234 107.057 455.088 108.122 453.067C109.449 450.55 110.285 447.829 111.626 445.34C114.15 440.652 116.643 436.026 119.761 431.696C120.872 430.154 121.788 428.468 122.739 426.83C123.62 425.313 124.692 423.899 125.503 422.334C127.585 418.314 130.207 414.535 132.286 410.5C134.983 405.265 138.071 400.256 140.743 395.007C141.99 392.558 143.586 390.334 144.986 388" stroke="#f0f0f5" stroke-width="5" stroke-linecap="round" stroke-linejoin="round"/>
<path d="M144.986 388.226C147.274 391.923 150.198 395.029 152.772 398.503C154.49 400.821 156.269 403.257 157.589 405.831C158.126 406.879 158.476 408.024 159 409.072" stroke="#f0f0f5" stroke-width="5" stroke-linecap="round" stroke-linejoin="round"/>
<path d="M45.3131 388.226C47.0526 388.226 48.7413 387.725 50.471 387.701C52.2543 387.676 54.0398 387.701 55.8235 387.701C59.1544 387.701 62.4855 388.052 65.8277 387.866C69.2614 387.675 72.7153 387.35 76.1532 387.35C80.8666 387.35 85.5611 387.526 90.274 387.526C93.9289 387.526 97.6039 387.35 101.271 387.35C106.089 387.35 110.892 387.526 115.713 387.526C122.066 387.526 128.394 387.286 134.739 387.613C138.255 387.794 141.843 387.614 145.337 388.051" stroke="#f0f0f5" stroke-width="5" stroke-linecap="round" stroke-linejoin="round"/>
<path d="M58.9766 412.349C59.8312 411.991 60.4132 411.566 61.0884 410.948C61.9082 410.196 62.9107 409.702 63.7743 409.011C65.5845 407.563 67.3051 406.17 69.2339 404.855C71.234 403.493 73.2354 402.087 75.2773 400.788C77.6607 399.271 79.7985 397.416 82.2356 395.961C85.4402 394.047 88.4625 391.703 91.7338 389.927C92.3242 389.606 92.8083 388.963 93.3979 388.701C93.78 388.531 94.177 388.369 94.3614 388" stroke="#f0f0f5" stroke-width="5" stroke-linecap="round" stroke-linejoin="round"/>
<path d="M28 352C30.5536 355.906 32.9144 359.829 35 364" stroke="#f0f0f5" stroke-width="5" stroke-linecap="round" stroke-linejoin="round"/>
<path d="M63 343C63.7202 350.292 63.5609 357.805 65 365" stroke="#f0f0f5" stroke-width="5" stroke-linecap="round" stroke-linejoin="round"/>
<path d="M103 341C103 349.075 103.001 356.988 102 365" stroke="#f0f0f5" stroke-width="5" stroke-linecap="round" stroke-linejoin="round"/>
<path d="M131 368C134.439 361.122 137.918 354.808 143 349" stroke="#f0f0f5" stroke-width="5" stroke-linecap="round" stroke-linejoin="round"/>
<path d="M159 387C164.404 379.451 170.148 372.202 176 365" stroke="#f0f0f5" stroke-width="5" stroke-linecap="round" stroke-linejoin="round"/>
<path d="M3 369C9.32313 375.494 14.9948 382.492 20 390" stroke="#f0f0f5" stroke-width="5" stroke-linecap="round" stroke-linejoin="round"/>
<path d="M94.011 388.35C95.2595 389.305 96.5032 390.068 97.7675 390.978C99.1265 391.956 100.56 392.82 101.894 393.82C103.355 394.916 104.981 396.21 106.604 397.021C107.91 397.674 109.015 398.704 110.312 399.396C112.373 400.495 114.226 401.945 116.18 403.201C116.797 403.598 117.683 404.209 118.107 404.826C118.77 405.791 120.004 406.232 120.958 406.821C124.552 409.041 127.906 411.298 131.848 412.874" stroke="#f0f0f5" stroke-width="5" stroke-linecap="round" stroke-linejoin="round"/>
<path d="M372.846 668.979C372.043 663.962 369.753 659.805 365.832 656.52C360.759 652.27 353.673 650.012 347.269 648.807C342.529 647.916 337.808 647.033 333.057 646.197C326.073 644.969 319.112 644.479 312.041 644.18C304.424 643.857 296.763 643.991 289.154 644.404C281.922 644.796 274.742 644.642 267.533 645.485C262.307 646.096 257.167 646.795 252.002 647.805C247.142 648.756 242.205 649.333 237.434 650.732C232.793 652.094 228.597 653.687 224.659 656.52C220.007 659.866 216.621 664.567 213.848 669.559C211.205 674.317 211.025 679.335 211.29 684.668C211.56 690.096 212.643 695.789 215.39 700.541C218.301 705.576 221.805 709.334 226.887 712.262C231.435 714.882 236.124 716.578 241.138 718.049C250.801 720.885 260.698 722.816 270.565 724.747C280.103 726.613 289.85 726.502 299.49 725.881C309.097 725.261 318.641 723.805 328.258 723.204C334.09 722.84 339.541 721.749 345.252 720.62C351.486 719.388 356.668 716.64 362.246 713.646C371.77 708.533 377.517 698.23 377.816 687.621C377.969 682.207 377.767 676.035 375.878 670.877C374.71 667.687 372.551 663.701 370.13 661.279C368.931 660.08 367.986 658.362 366.438 657.588" stroke="#f0f0f5" stroke-width="5" stroke-linecap="round" stroke-linejoin="round"/>
<path d="M211 684.404C213.306 684.404 213.92 684.748 214.902 686.909C215.783 688.847 216.774 690.613 217.882 692.42C219.319 694.764 221.675 695.966 224.289 696.401C225.198 696.553 226.021 696.98 226.821 696.349C227.816 695.562 229.021 694.859 229.853 693.896C232.096 691.3 234.177 687.159 238.238 688.082C239.408 688.348 239.382 691.121 239.53 692.051C239.866 694.166 240.048 696.93 240.954 698.88C241.976 701.081 243.465 702.565 245.515 703.837C247.41 705.013 248.787 703.954 250.103 702.44C251.62 700.696 252.887 698.973 254.217 697.1C255.517 695.268 257.37 693.29 259.477 692.407C263.355 690.78 266.352 694.577 268.179 697.469C269.625 699.76 270.982 703.28 273.36 704.76C276.048 706.433 280.4 706.517 283.221 705.235C288.788 702.704 288.361 694.386 295.008 693.132C301.177 691.968 302.641 699.338 306.293 702.769C309.395 705.683 314.154 707.747 318.212 708.741C323.591 710.059 327.531 706.532 330.103 702.11C330.781 700.946 331.318 699.817 331.554 698.484C331.835 696.898 331.651 695.081 332.318 693.58C333.189 691.622 337.828 691.265 339.49 692.051C341.8 693.142 343.368 694.672 345.107 696.52C346.16 697.639 347.165 699.049 348.403 699.961C349.852 701.029 351.919 701.562 353.65 701.965C356.201 702.559 359.287 700.742 360.374 698.524C361.674 695.871 361.493 693.558 361.705 690.693C361.85 688.74 362.586 688.175 364.408 687.726C366.94 687.102 368.652 688.16 370.723 689.506C371.784 690.196 373.466 691.431 374.85 690.996C376.331 690.53 378.06 687.525 378.304 686.065" stroke="#f0f0f5" stroke-width="5" stroke-linecap="round" stroke-linejoin="round"/>
<path d="M265.107 671.589C267.481 676.963 275.045 678.439 280.044 680.106C283.164 681.146 286.781 681.596 290.024 682.136C294.124 682.82 298.314 682.72 302.444 682.506C305.861 682.328 309.437 682.142 312.701 681.082C315.837 680.062 318.677 679.018 321.587 677.522C323.848 676.359 326.377 675.034 327.994 673.013" stroke="#f0f0f5" stroke-width="5" stroke-linecap="round" stroke-linejoin="round"/>
<path d="M264.87 671.352C265.834 666.335 271.413 662.276 276.155 661.253C283.542 659.66 291.192 659.465 298.673 660.686C303.095 661.408 307.279 662.193 311.567 663.468C313.82 664.138 316.041 664.596 318.133 665.656C320.793 667.006 323.668 668.468 325.99 670.35C326.525 670.783 327.12 671.413 327.282 672.064" stroke="#f0f0f5" stroke-width="5" stroke-linecap="round" stroke-linejoin="round"/>
<path d="M274.362 677.759C275.921 674.41 280.732 673.353 284.131 672.908C291.407 671.955 298.287 672.225 305.502 673.606C309.05 674.286 312.016 674.739 314.836 676.995C315.247 677.323 315.298 677.909 315.548 678.366C316.017 679.221 316.537 680.034 317.078 680.844" stroke="#f0f0f5" stroke-width="5" stroke-linecap="round" stroke-linejoin="round"/>
<path d="M485.671 709.308C484.311 709.625 483.057 710.415 481.774 710.97C480.619 711.468 479.462 712.088 478.636 713.065C476.613 715.456 475.276 718.604 474.532 721.62C473.37 726.331 474.151 731.825 476.486 735.995C477.845 738.421 479.56 740.914 481.936 742.499C483.178 743.326 484.563 743.903 485.91 744.529C487.634 745.33 489.253 746.363 491.046 747.015C498.705 749.8 506.774 750.367 514.812 751.13C520.501 751.67 526.184 751.882 531.901 751.912C537.988 751.944 544.029 752.694 550.119 752.694C556.29 752.694 562.315 751.748 568.403 750.891C574.806 749.99 580.865 748.038 586.99 745.951C596.108 742.845 603.975 735.597 604.676 725.54C604.905 722.265 604.229 719.326 603.406 716.192C602.642 713.285 601.947 710.647 600.171 708.147C598.48 705.767 595.567 704.241 593.157 702.664C591.204 701.386 589.038 700.29 586.903 699.342" stroke="#f0f0f5" stroke-width="5" stroke-linecap="round" stroke-linejoin="round"/>
<path d="M492.316 690.547C489.279 690.008 485.805 690.829 484.043 693.587C482.041 696.72 482.588 700.88 483.239 704.325C483.914 707.893 486.415 709.243 489.428 710.872C493.665 713.164 498.837 713.599 503.531 714.292C508.74 715.06 513.787 716.017 519.068 716.159C525.353 716.329 531.699 717.65 538.003 717.082C540.921 716.82 543.808 715.813 546.547 714.9C547.91 714.446 549.482 714.297 550.901 714.151C552.927 713.942 554.946 713.529 556.959 713.217C561.305 712.543 565.606 711.759 569.901 710.872C571.578 710.526 573.281 710.398 574.895 709.786C576.413 709.21 577.849 708.259 579.184 707.343C581.816 705.538 583.949 703.529 585.535 700.753C587.086 698.039 587.114 694.974 586.708 691.926C586.215 688.234 582.54 686.262 579.368 685.314C576.389 684.424 573.294 683.982 570.183 684.109C567.932 684.201 565.471 685.049 563.452 686.009C562.865 686.288 561.934 686.593 561.497 687.03" stroke="#f0f0f5" stroke-width="5" stroke-linecap="round" stroke-linejoin="round"/>
<path d="M510.686 667.487C507.88 667.247 504.144 667.305 501.74 669.007C500.216 670.085 498.886 672.015 497.994 673.632C496.429 676.468 494.856 679.224 494.856 682.535C494.856 683.78 494.899 684.971 495.095 686.205C495.399 688.116 496.888 689.419 498.363 690.526C500.64 692.233 503.783 693.6 506.582 694.022C508.34 694.287 509.98 694.822 511.772 694.999C513.976 695.217 516.199 695.296 518.406 695.422C522.313 695.646 526.124 696.227 530.033 695.781C533.767 695.354 537.518 695.284 541.151 694.174C544.866 693.038 548.485 691.689 552.225 690.634C553.49 690.278 554.489 689.654 555.635 689.082C557.149 688.325 558.766 687.697 560.173 686.747C562.702 685.04 565.173 681.624 565.601 678.518C565.782 677.206 566.383 675.939 566.383 674.62C566.383 673.371 566.211 672.148 566.188 670.918C566.144 668.592 565.577 667.069 564.331 665.153C562.398 662.179 560.425 661.316 557.003 660.354C552.929 659.208 548.414 658.556 545.32 655.414C544.335 654.413 543.586 653.168 542.715 652.07C541.496 650.535 540.164 649.053 539.349 647.249C537.849 643.932 538.437 640.504 538.437 637" stroke="#f0f0f5" stroke-width="5" stroke-linecap="round" stroke-linejoin="round"/>
<path d="M538.241 637.195C535.53 638.551 532.363 639.459 530.229 641.734C527.674 644.457 524.844 646.984 522.564 649.942C518.348 655.41 513.422 661.466 513.422 668.659" stroke="#f0f0f5" stroke-width="5" stroke-linecap="round" stroke-linejoin="round"/>
<path d="M536.287 738.427C538.353 740.677 541.705 742.391 544.81 742.412C547.969 742.433 549.778 739.786 551.335 737.45" stroke="#f0f0f5" stroke-width="5" stroke-linecap="round" stroke-linejoin="round"/>
<path d="M517.9 723.237C516.789 723.692 515.68 724.05 514.96 725.067C514.291 726.012 513.696 727.156 513.344 728.26C512.514 730.863 513.21 733.115 515.174 734.958C518.019 737.629 522.113 736.93 525.085 734.783C526.809 733.538 526.977 731.139 526.799 729.175C526.698 728.071 526.577 726.898 525.689 726.128C524.092 724.744 521.795 723.484 519.701 723.159C517.564 722.826 515.992 722.92 514.337 724.385C513.395 725.219 513.013 726.742 513.013 727.968C513.013 729.977 513.715 731.982 515.281 733.235C517.402 734.932 519.819 736.019 522.447 734.618C524.443 733.553 525.815 731.828 525.173 729.545C524.475 727.062 523.155 725.614 520.568 725.301C519.322 725.149 518.248 725.333 517.112 725.778C515.653 726.349 515.099 727.144 514.61 728.63C513.829 731.001 516.011 734.031 518.504 734.102C519.877 734.14 521.406 734.082 522.447 733.04C523.564 731.923 523.685 730.172 522.982 728.825C522.368 727.647 521.105 727.236 519.896 727.355C518.906 727.452 517.339 727.286 517.063 728.494C516.611 730.47 517.595 732.231 519.653 732.174C521.385 732.126 521.121 729.285 519.692 729.857C518.877 730.183 520.809 732.036 521.23 730.772" stroke="#f0f0f5" stroke-width="5" stroke-linecap="round" stroke-linejoin="round"/>
<path d="M563.843 719.057C562.234 720.692 560.772 722.459 559.174 724.105C558.462 724.839 556.19 726.453 556.047 727.569C555.95 728.324 561.364 729.813 561.899 730.033C563.718 730.782 566.027 731.514 567.556 732.737" stroke="#f0f0f5" stroke-width="5" stroke-linecap="round" stroke-linejoin="round"/>
</svg>
